<mxfile host="app.diagrams.net" modified="2021-06-29T10:34:28.737Z" agent="5.0 (Windows NT 10.0; Win64; x64) AppleWebKit/537.36 (KHTML, like Gecko) Chrome/91.0.4472.124 Safari/537.36" etag="mwsR3ZVxO4SEBkcvGTd0" version="14.6.6" type="github">
  <diagram id="e2Kx_vL27JoPpPcbRzYg" name="Page-1">
    <mxGraphModel dx="2062" dy="1154" grid="1" gridSize="10" guides="1" tooltips="1" connect="1" arrows="1" fold="1" page="1" pageScale="1" pageWidth="827" pageHeight="1169" math="0" shadow="0">
      <root>
        <mxCell id="0" />
        <mxCell id="1" parent="0" />
        <mxCell id="6bSPFQIg_zKgYMIiMJCl-64" value="" style="rounded=1;whiteSpace=wrap;html=1;fillColor=#dae8fc;strokeColor=#6c8ebf;" vertex="1" parent="1">
          <mxGeometry x="98.73" y="450" width="760" height="190" as="geometry" />
        </mxCell>
        <mxCell id="6bSPFQIg_zKgYMIiMJCl-34" value="" style="rounded=1;whiteSpace=wrap;html=1;fillColor=#dae8fc;strokeColor=#6c8ebf;" vertex="1" parent="1">
          <mxGeometry x="98.73" y="660" width="760" height="410" as="geometry" />
        </mxCell>
        <mxCell id="6bSPFQIg_zKgYMIiMJCl-49" value="" style="rounded=0;whiteSpace=wrap;html=1;fontSize=18;fillColor=#d0cee2;strokeColor=#56517e;" vertex="1" parent="1">
          <mxGeometry x="147.47" y="870" width="662.53" height="150" as="geometry" />
        </mxCell>
        <mxCell id="6bSPFQIg_zKgYMIiMJCl-48" value="" style="rounded=0;whiteSpace=wrap;html=1;fontSize=18;fillColor=#b1ddf0;strokeColor=#10739e;" vertex="1" parent="1">
          <mxGeometry x="147.47" y="680" width="440" height="150" as="geometry" />
        </mxCell>
        <mxCell id="6bSPFQIg_zKgYMIiMJCl-7" value="" style="rounded=1;whiteSpace=wrap;html=1;fillColor=#dae8fc;strokeColor=#6c8ebf;" vertex="1" parent="1">
          <mxGeometry x="100" y="235" width="760" height="190" as="geometry" />
        </mxCell>
        <mxCell id="6bSPFQIg_zKgYMIiMJCl-1" value="" style="verticalLabelPosition=bottom;verticalAlign=top;html=1;shadow=0;dashed=0;strokeWidth=1;shape=mxgraph.android.keyboard;" vertex="1" parent="1">
          <mxGeometry x="170" y="280" width="185" height="100" as="geometry" />
        </mxCell>
        <mxCell id="6bSPFQIg_zKgYMIiMJCl-2" value="" style="shape=image;html=1;verticalAlign=top;verticalLabelPosition=bottom;labelBackgroundColor=#ffffff;imageAspect=0;aspect=fixed;image=https://cdn3.iconfinder.com/data/icons/google-material-design-icons/48/ic_mouse_48px-128.png" vertex="1" parent="1">
          <mxGeometry x="380" y="266" width="128" height="128" as="geometry" />
        </mxCell>
        <mxCell id="6bSPFQIg_zKgYMIiMJCl-3" value="" style="shape=image;html=1;verticalAlign=top;verticalLabelPosition=bottom;labelBackgroundColor=#ffffff;imageAspect=0;aspect=fixed;image=https://cdn2.iconfinder.com/data/icons/computers-and-hardware-1/32/Computers_and_Hardware_joystick_videogame_controller-128.png" vertex="1" parent="1">
          <mxGeometry x="540" y="266" width="128" height="128" as="geometry" />
        </mxCell>
        <mxCell id="6bSPFQIg_zKgYMIiMJCl-4" value="" style="shape=image;html=1;verticalAlign=top;verticalLabelPosition=bottom;labelBackgroundColor=#ffffff;imageAspect=0;aspect=fixed;image=https://cdn0.iconfinder.com/data/icons/google-material-design-3-0/48/ic_touch_app_48px-128.png" vertex="1" parent="1">
          <mxGeometry x="690" y="260" width="128" height="128" as="geometry" />
        </mxCell>
        <mxCell id="6bSPFQIg_zKgYMIiMJCl-10" value="InputSystem" style="outlineConnect=0;fontColor=#232F3E;gradientColor=none;strokeColor=#ffffff;fillColor=#232F3E;dashed=0;verticalLabelPosition=middle;verticalAlign=bottom;align=center;html=1;whiteSpace=wrap;fontSize=10;fontStyle=1;spacing=3;shape=mxgraph.aws4.productIcon;prIcon=mxgraph.aws4.iot_core;" vertex="1" parent="1">
          <mxGeometry x="440" y="500" width="80" height="110" as="geometry" />
        </mxCell>
        <mxCell id="6bSPFQIg_zKgYMIiMJCl-12" value="" style="shape=flexArrow;endArrow=classic;html=1;fillColor=#f5f5f5;strokeColor=#666666;" edge="1" parent="1">
          <mxGeometry width="50" height="50" relative="1" as="geometry">
            <mxPoint x="479.5" y="425" as="sourcePoint" />
            <mxPoint x="479.5" y="495" as="targetPoint" />
          </mxGeometry>
        </mxCell>
        <mxCell id="6bSPFQIg_zKgYMIiMJCl-13" value="&lt;b style=&quot;font-size: 18px;&quot;&gt;硬件输入&lt;/b&gt;" style="text;html=1;strokeColor=none;fillColor=none;align=center;verticalAlign=middle;whiteSpace=wrap;rounded=0;fontSize=18;" vertex="1" parent="1">
          <mxGeometry x="100" y="250" width="100" height="24" as="geometry" />
        </mxCell>
        <mxCell id="6bSPFQIg_zKgYMIiMJCl-74" value="" style="edgeStyle=orthogonalEdgeStyle;rounded=0;orthogonalLoop=1;jettySize=auto;html=1;fontSize=18;" edge="1" parent="1" source="6bSPFQIg_zKgYMIiMJCl-21" target="6bSPFQIg_zKgYMIiMJCl-65">
          <mxGeometry relative="1" as="geometry" />
        </mxCell>
        <mxCell id="6bSPFQIg_zKgYMIiMJCl-21" value="" style="shape=image;verticalLabelPosition=bottom;labelBackgroundColor=#ffffff;verticalAlign=top;aspect=fixed;imageAspect=0;image=data:image/png,iVBORw0KGgoAAAANSUhEUgAAASUAAADCCAYAAAAPUdT5AAAgAElEQVR4Ae2dZZfcuNPF/59lk002sMFlZs4yQ5aZmZmZmZmZmZmZmZnp7O7xc37KUxONW7Zlxz3RTN8XfdRtl2WpdHVVVYL+3zxTdsn0kQ6EAWGgmxiYOGXvrOozecqejov+182CKG8BXRgQBsBAFSFxX6QkC1EWsjAwYBioTUrjFlgjm238QvpIB8KAMNAVDIwYv2hW9Zl9/jWmu29j5loum2WWWfSRDoQBYWCmYWD0HMuIlETEGoiEgXQwIFLSiDjTRkQRQTpEkFJbiJRESiIlYSApDIiUBMikAJnSiK2yzBxLTqQkUhIpCQNJYUCkJEAmBUhZJzPHOklJ7yIlkZJISRhICgONSGn48OFZ1WfYsGGNKspzVXlz35g9RtbK0s28rTz5tO47Y+StPryrm/XP18V+d/Od3czbyp9Pu/nOmPbk/fky9fLvRqQ0efLkrOozfvz4Rormuaq8J02a5PKmMatkuT927FgnTxojP+usszp53lMlP2HChNJ6jhkzpjIP3jFixAiXz8SJEyvl7Z0jR46slCXv0aNHu7zHjRsXJV/WIShnlU78d84+++xR8ka0MXlTD8o4atSoqLzRU1mdYt5peI5952yzzebeWQfPZWXspXsipQDBipSK4xoipTgiFCkVY6iKYEVKIqUOa6MMNCIlkVIZPtq4J1ISKYmUAhjIu3Ry35pbPnWJSqQUAKTct2IAylKSpVSXZOrKi5RESrKUAhiQpVQ8MNUlmbryIqUAIGUpFQNSlpIspbokU1depCRSkqUUwIAspeKBqS7J1JUXKQUAKUupGJCylGQp1SWZuvKNSIkFcVUfW7BXu0CjR1fmbYshWXBXVQ7u25oR0hh5W2HLe6rkWRxZVkcW7lXlwf0m74Q8Y/K2xYMs/IuRL6tPt98ZUz7qQRljdWuDTFG9Yt5peIaUY+SR4308VyVveC4qX69db0RKvaYk1bfYcpJupJu2MdCIlLAOqj42mjFKVcly30YznouRRxFYSjGyZimQxsjblgdGuSr5uvW0ERSrrSpv7luDx8iaRcg7YuTNOoupp1kKPBOTdzfrGfN+X8awZbrMp75s0fe67WzvrIPnfLns92DsQ4Ytq0OdtBEp5YOAod8DsdiMiofenb9m5jFp/l7otwGqzt43CCGUV/6agbvOPjRIMp9P6DduAo1Pxwrdz18z4ojZb4cMefNMPp/QbyMxyhS6n79mA0H+ehu/bVAq6hgx7xgIPBeVry62YvbbUWfeF9uH6mLL+lBRncqui5RaCnTXBY5Iqf+mbpFSsRtYF1sipUCnhoUHYmSJZXlZSv0JwCwDWUrTiMD0UZYOBJ6LrAeRUsSBV2WNZ/cGohFFSv3Jpq6JLVISKcX2obrYkvtWYK0ZQcpS6k9epheRkkhJpFRCHpiomK8x/nCKh7zVNbEVU+pPlIopKaZk7qsC3QGiNNNTs2/TiUOzb9NOUmX21CzNsrTJIGudMp/WHfBiBnbKzntkKQUIwBq2SSPGKlTu23RyMX2Tyn2T+xbbhxRTKiEvOpPctzDJ1AWOSEmkNGRICfem6kNlMQ+JFVTJct9iCjGyyJiJGyNvZSGNka+Tt5Wlbj27URarZ92yxOgkpXrGltfkDFvWrvnU5MrSgdBtvlz2u5vtyTvK6m33rP6xuK3SudUtlDaKKYUy0rXiQKV0I90IA/EYaERKBD1xoZp+bK9VzPPG0DHvtL/eIT4Vk7fFsXiuSt4CvYwAVbLctzgWdY2RZ0QCuPx9UpW8rQFj+0SVLPdtawvuXYy8daAYWXMZeUeMvLmM1KFK3v5KCt1UyVbdt/da3fw0BltWz1hs2daWOtjyy+R/j31nEzzTv6p0x/2mePbrEfu9ESn5wdIm39mbRSVjnjVSQjFV8tZZaZwqWe5bZ01htsI6DR2kquzWWQF+lSz3bR9anWUIACgmbxsIeEeMvHXWmHraQIBuYvIuk7H3hjpG2XN2z7Cl2be4fZU2yIb0XXVNpBS5NgpwokxI0oBaltrI2o3NsSKlcKC/rD1ESp066yaeRUr/P1tno5kspf4AlKU02R0IVzRCl5GZ3TNsyVKSpdR3IqPct+lEI0tpui6MNKpSWUqdOpOl5K09UkypEyCKKXXqRDGlaTNWg9Hyl/sm9600ziX3Te5byJKUpSRLqZQ4ZCnJUiqKeclSauk8pRAz2zW5b50dUKTUqRO5b3LfsjFzLde3faOItblOoHVGPsxg4FLE5GHrlGJkbRqeoGaMvAU/eS5GnrqzeDJGFuJFnrrGyJsPzixPlbytDYLIqmS5z0hLWVgbFiOPLJ8YWVtUF1tPI1/qUJW/zXihmyrZqvv2Xqubn1Y9y33DFrqMka+DLaunXyb/e0p4jl3iYnj26xH7vdE6pdjMJRe/tF66kq4GAwaSJSWYu40PVhCMGpOXNViMrI2K5B8jb5sHeS5GnrLwTIysjRix9bSyxORdt55mddapJ3WNKUs36xnz/jIZ06lhaLClsTgeiPZNlpQsNjSjKS4cZnFMPgasGFlzb2IXugFogIpZXpU/66WQpRNWyXLf3Bttq+kfMzISi1l/FqPnMhlr38FGRlZeBboHINBtABIp9e+o6MVGu5jOarGIwQzamHoaXpqmIqVOnKFLSA+8xejVYmqylLxlBLKUOoElUurUSaiDiZTCehIpeQRjwJGl1AkWWUqdOjG8NE1FSmGdipRESlFmskgp3IGaEhLPiZTCOhUpiZRESh4GFOiOXwIxmGOGEF/dT6N1SjMyavnPyn3rHMFkKXXqxMdMk++ylMI6laXkjZIGLJFSJ1hESp06Mbw0TUVKYZ2KlERKct88DMh9i3dr5L5F+IBYOG18ACajWExe5pfGyNrISP4x8mad0PhV8izIpCwsUaiS5b6tuo6tpy194D1V+VNeyhJbTyOCmHry7jr1NJ1T36pyc79OPWPyK5Ox9jUMDba0G+1bF8dN27eJrhvFlJq8SM/Ej4zSlXTVyxhoREps42j7YxYFK0ar8rbVpYy2VbLct1GBNEbeRlbeUyVv20gof5Us923Eiakn8oAztp5YC8hjCcWUxSynOvXkmZi8zYqjTDHy3ZQxbLXR0Wm/mLK2+c4UsGV9KBZb1oea6LwRKTUNOJY9ZyBmlXKZHPds/xkVr5LlvhFH7P4z66wxWyDYL2dEEFMWa1yAHSNP3pBSjKyRdexWAOs43fi7IyNIyhRT9m7K2EDQpIPkn6H9YspqeM4/3+Q3ecW807AV04fIj7LE9qG62LI+1KS+IiUv+GoNbwoVKU2ftal74JpIaVq8r0mnzD8jUooIdFvnbTO1kSWG5WUpTScLvw3qjmaylOrHrmQpDdG/WPI7kn0XKYWJhlFT7ltYN4adqlTuW1h/YEvuW8BVMkCJlIqBI1IK68awU5WKlML6EymVEBKgEikVA0ekFNZNFRnZfZFSWH8iJZGSm0GxGRLNvoU7ihFJm6lIKaxrkZJISaRUgYE2icjPS6QkUopaU+GDhu9y34qBI/ctrJs8hop+i5TC+htSlhKV0Uc6EAZ6DwOxC3NtrV8TjDRaPMnIXfXxC1Mly/2m8jF5S6a6vdrWUTfbs2ne/nP+95i6D6S8/y77HlPGujJ18jbZZEmpyEz2r9uh9nUXm3Vj8aRfLn0Pm/Jt66Xuim46FMCPKQeTBMjGYqvKfYt550Dg2Tp+PiW0EVPGujK8p6fWKQ1EI8YqtG5jSX7GiUukNG2bSZ1BNk9G9lukFBEvium0IqUZ79gxek5VRqQkUjJSrZs2iinFdASRkkgJMMaeEiD3rThoLktJllJX/PcYIh9KMrKUZCnVtZBMXpbSTFrQN5QIKFQXkZJIyUimbipSEil1xTIUKYmU6pKRyYuUREoipQgMDESM1DplPlVMSTGlrnTSkIszlK/JUpKllCfX2N+NLCVmVKo+rPykEJxuWCXLfTsFkedi5MmbGZsYWclUt1fbOrIFiyxwjMnbABsja4THO2Lkq7Y8xORR951N8Gw6yKexfSimHr5MnT5kp1tgtfl5FH1nDWG+HrG/G5FSbOaSK57mlW6kG2EgjAGRUoS7KvCEwSO9SC/dwIBISaTU2MzuBiCVp4hOpCRSEikJA0lhQKQkQCYFSFlKspRESiIlkZIwkBQGREoCZFKAlKUkS0mkJFISKQkDSWFApCRAJgVIWUqylERKIiWRkjCQFAZESgJkUoCUpSRLSaQkUhIpCQNJYUCkJEAmBUhZSrKUREoiJZGSMJAUBkRKAmRSgJSlJEtJpCRSEikJA0lhQKQkQCYFSFlKspRESiIlkZIwkBQGREoCZFKAlKUkS0mkJFISKQkDSWFApCRAJgVIWUqylERKIiWRkjCQFAZESgJkUoCUpSRLSaQkUhIpCQNJYUCkJEAmBUhZSrKUREoiJZGSMJAUBgaUlBZbbLFs1VVXzeadd94oJaywwgrZ5MmT3d9zh0ZQ/o550UUXzTbeeONsiy22yFZfffWMvxUOyeqaRmBhYHBgoFVSgkC22mqr7PDDD8+OO+647Igjjsh23XXXbNlll3VEceihh2ZXXXVVtt1221USx8SJE7Prr78+23333bOxY8d2yENIkNCVV16ZPfjgg9kDDzyQXXbZZY7EDHz8z/ncc88dfN5khmK6wQYbZIccckiGvg888MBszTXXdPpDHzvvvHO20UYbZRMmTOjTKe2D3CKLLFI4AOT1tPzyy2cHHHCAewfv2nLLLfvyy8vqdzEZrL/++q6t6C8HH3xwRhv5+ppvvvmyrbfe2vWpY489Ntthhx2yUaNG9ckstNBC2U477ZQdc8wxrr9NnTo1Gz9+fN99P6/Q9xEjRmQM/vvss4/L46ijjsp22WWXjHxD8gNxrTVSmnPOOZ1Sn3zyyey1117L3nzzzeyNN97IHn30UQdeKgOBcA0FVlVu4YUXzl555ZXslFNO6Uc09twcc8yRnX322dlPP/2UPfzww9ltt92WXXHFFdno0aP78saCgiCtU9qzQz299NJLsw8++CB7+eWXsyeeeCI77LDDnE4WX3zx7KmnnnIDA6Rieth///2zjz76KNtmm20yyN6ul6WQ2+OPP5699NJL2XvvvZfdcccdUc+V5dlr93bbbbfsoYcecjoE67TVAgss0KdH2uukk07KHnvssT4Z+hB9DV1hBJxwwgnZ008/7foVfe7ee+917RjrMSy44IKu37z44ouu37766qvZ888/n5155pnBfjcQbdQaKdHxn3nmmez999/PzjnnnAxWP++885z1ApNTGZ+UGAGWXHLJbNKkSR2jM6M4Cseiwj0bPnx4X0OZUnj2kUcecZ1pnnnmcfn4hMQIgGLphPvuu6/LjxFk5MiRHXlZnkMlhaA//vhjBzZGvvXWW8/VGYsIArn77ruzVVZZpU8PRx99dPbHH384qxS9oX9SdMUzADevm5VWWik78sgjs4suuih75513nJ7zMvpdbCExKDBAv/3229lZZ52V7bnnng6nZuWQYulCNGAY8gHHeCJjxoxx7YEF9cILLzgSgbwuvPBC1+7XXXddn3dS1Qb0I/Bwww03ZGCF9zz33HOuH2+22Wau72GZ4a1AmPRb8px//vldGCY/iFHupZdeOoNQ/f5YVQ7/fmukRAUgpLvuuqsDwPZCSIlGuPnmmzMUd+edd7pRe8cdd+znTmAB3XjjjU4O98933xgBIBuUSMf7+uuvnezVV1/tXBDeteGGG7rOQoN99dVXbjQiP8gS18bKM1RTSAkw4/r6dYwlJdxgXLOLL77YAfaWW25xBOS3g+WL2waI6Th2TWkxGZluTj/99Oz333937rRd81MGDaxPCB+L379n38HzW2+95TwGBm4GEbwGrNftt98++Iw9aynPYRjYb4wB8v3iiy+ygw46KFtmmWVcyrVrr702wwrH0yEMc80112TbbrutIy7ICWKlj1NuPshQ9lirzcrQGimts846Dpx0BipDUNteYikF/vLLL50iATGWFW4D8SDiHCZH5XEN/vrrLzfaYwnZPUYJCIn7EM4PP/zgvpMHLI8cDQL7Q5K4dzQS8sSoGF0sr6Gazigpfffdd30jNC4FbUrnAHR5nYmUqgkorzN+43K9++67Ln5z2mmnuY6+9tpr9+kXLwH3G9eNAYIwBulyyy3XJ8NA+/rrr/e55+QLEeC645KH3hu6BjHhEhJb2muvvdwgTgiGwZ0JJIiO9setI2/u0X8//fRTR1SEWtZdd11XJ9xQysx9yr/HHnv0WXahd4eutUZKmHUnnniiM0kpNKSAItdYY40+5UBKAP7+++/P1lprLRdMs9HA4h5WSGboIBziRD4p2f2llloqI37FSGHX/JSAIdYY7kqoM/myQ+17G6TESIn1i3W03377OauUdsvrSqTUjJQYjMEmgylhCEiK+BJEgI4hh08++cQRANcZVJGBdFZeeWUng6dBX8Ots3YhZPLZZ58518+uVaX0XQZ0yARSYRDCMoKsICXe++yzzzoCxSpGBiucAYtJJsIDkODnn3/uyofrZuEX+u6wYcP6yldVFu63RkpkRuWYQYBoCJhBGJATfjD3ISWYFvfLCocSaZzjjz++7xr3RErNwI7u2iAlCN/aaMUVV3QjH5anXbNUpNSsnQg7QPzE5Jj5vOCCC5zlwUCKbunkDOBYQmeccYabWSOITRzKPAJCJfQzn5TOPfdcRw75Qd7aK5TS15j9g/xod0jo1ltvddYPpAQhQj6QDRNXkNeUKVMcoWJFMXgRFoG4KC/9n/yILUFsoXeWXWuVlOxFBMGwTmDyDz/80Jl43IOUYGEKbLLEjyAlrCy7RipSagZ2dFdESkz54zLcd999bjmF6RvdE+hmupnYAJ2BEdzu4zIASsx1u2apSKlZOxHGIOZpeqQD4/Jg+XAN6xSLh/irybD0AisFt41rxPqQxxAwGWI+xFoJodi1mJSJDWa0sXrop/RbCA5SgojADPiBhPgsscQSzuPBytt8880d+UCOYI960c8hualTp7pJk5gymExXSMkyZ8oTJsfM4xqVzS8J6BYpEXsiNgXhYQpbmXohLSIlXDFGMsDvB09pl19//TVjzQymNqRE/MB0hbtA/I+4gl2zVKTUjJQgE2KdpkfCEVgkRkqsFaKvYLGYDERDnOamm25y15iIQObkk0/uk8F6ghDoe/YcKUFw4r4xM2JYaXg04KiIlLCacOeNlOxdzNRawPubb75xs++sFbT7MWlrpIRSmZaENYnYs0QA05TKYc5RmDqkBCsTU8KHxmrKV6YqpsSIzywSvjuNRqMQZ4pplPy7BtvvIlKiHrjTjKS4CwRWAS8zorjaFkSFlL7//nsXpGT0ZK0Xo7a1o68PkVIzUjr//PPdJAzLMYi74MJhiWL9oF/6D21F29DJcaEZZCGcU0891clwnUEft45AM2vHGDj4TczWbyf6JlaWxYq4xwCExUPoZLXVVnMz4BAXpEd7IxtLSgxyTDCxxACra5NNNnETUZAqnpNflqrvrZESATpYG/eAFOWhIJgU1qcgMaTE+iZGDJT9999/O/8YZWIy+lPSVaTE+2honoUYGZXorCwQrFLKYL9fRkosscD3xzyHiLAkzX22qWFIifgROkN/fKc9mP7N60ak1IyUWOeFBwE20S39BrcHEkDH7GjAYuEa97BwISja1iaPmPVi4KWvWX+jvXDzrC2tvSCHf/75x7nhkAbXifcwMGGd8TzP0nfBBQMQxBZLSuzewJo2C9DyYaW432+tPGVpa6TEIkdiE/i0rF9AWVgogNYWe/GdAJy/whoyY9EWTE9BmbJnipSRxD4Ew8nLX6jFAj98WEbxogpSJnxzzFzKw3ts5qLomaFwvYyUbKsJwVMGCSwmYhJsK7BZEospMXtKW6I/XODQehORUjNSAmdYE1gjWECkWDrWBtzHwmBKHY+DWWisHfqLL8NeUtYNcf+SSy5xfQKyyuMYwwArjP7gB59ZEEngnGdpa96FYWD9kaU9tD0W9bhx45zVhoVG/2MGjnvIQG70f/oZawbBFUsYbPV5vjxlv1sjJV5CZVnRiTKZEix78UDdo0yMOigHF26g3jsz3wMpQSxYRLgA/uyMlQuCx9f391HZPZ7lOcBPW+ZHXeSwOIlfEJ9ivRipPa80nqggeuIwZr3kdWd9aq655upHJr4cuKYtwblPOHkZ3PNQe9PODFYQFMTjP1fnO++mn5EPhohPnnXyaZWU6rxYsvHArasr4hTMnkEsjI6MtnXyMFIqewaznpkh3sG7mLAok9e97rX3UNOtSGkInqWD24o5TdASVzm0d60MyKxTwfwuk2HkJm/ewYcp7TJ53RMpxWJApDQESSm28Yvkpk6dmvmnCBTJ6bqIphsYECmJlGThCANJYUCkJEAmBchujLzKc3BZdCIlkZJISRhICgMDSkpMO7IgjDUVfFg2PzOP3dQIOrhGULVXb7RX66TEWggIhzUy+f03LLhiiTzHHzDtzEY/W6SVBxzL3llaH1pXkZfV7/5gZXqeFbqszGWVLovh0BGL6u655x63KJUV8aY3FsEhx25vf4Gq3Q+lLJpjHxbv4MPCu5CcrvVvm7w+WMRKW7HWi1XQ/sJHVn2zzYrV92z7YFO0f3gba4E4/ZP+xH1WfHN4XOgss/x77Td50P7WjqSU5/bbb+9oT1ubxtYtjilhhpa1UZZXW2nrpITS2Jbw888/920czBeWw6RQJNtJ7KjWvAyExepQ9sDl7+l3OdBZPMkudPZAXX755W73PzqLPXnS1y8L4EKL4FhZTPtwEgR76bR4srxNfJ3yHZ0yQHCQIWu92LEAodgKaPaksTKaPYhsEUHXbNti8GB2lDwYbNiCwnYg7rOUA3mILpYs7Kx7TolgvRmnAYCb/JIQVv3zfvo2RgdH+HJirO3WsPr5WPG/231LuVd0v1VSwqqBuVEMbMuentBq4DJSYnMi1habE+lcbPBlzQ2NZBVSWt4BiraZxJKS/Q0WO8HZUsBCSdYlhUCkbSblbVGEVayTf//9t8+KzcuxwZW9cZzWYB0YosCSMcsXz4M2om14HisLkmL3vu2Py+eb/80ZaJAMg1j+nv3maF6OIaE/h05upY+zEZd+C1GR0o85m59zl/ydFFzHENl7771dXhgd+e1LrZISZIPZxyZD9q0xgrL/xSpnaRkpcYAUpPbff/+5Dbm//fZbxodRpRd2+JuOZiSdUVLCtcZVwKVA95wljTvuu3xWPpFSM1LCKuGQN07AYOEp5ALJmF4hFTAPCbExls7NCnpcPDq0yfkpW01w4SAlf3+pL5P/DpGRLy4iBMEHa80fgLCSsNDYHcB9cMD2IwutsJ8V8iQPjsDBIOHfUfCWwBJGBfnxDBuMwRP3SDldk3O8/HK1SkoAlN3MmIAEtFEgB1L5FeTlZaTEfdiUs1g4i9v3sf2C63txZ2iDlCAj2pBRENfi22+/DcaNRErF7VCGUSwaOiguGu4XVhEbWsE+z2FdMBHEwA7RcCIk37FqQoMz8mzMpZOzuRe3rOz9dg8yhPywlCBKPmzKhUjMwsGthBy5B+FRbo434RxxTgCAlIgxEVdk0zBGBaeDEKPkjHw22OPmEU/+888/XVyM2CUxM04XyO+3a42UUBR/CQOZYGYSCGV0ReH5bQ4ipWZANiBVpW2QEsCz9+DO8ZsR0K5ZKlJq1pZYoVgR9BFOYaAT//jjj65To1usEE4RIL7zyy+/uLPFsD44esa3qJClgyNLXyOuZMdPWxuVpVhFkCHP4aLRzvRhLCOIiWfpz5QVD4hN2BgaBLshSlx7SAkriRNlsfA46pe4Fm4lAXjiXWzUJ7TDYMfvTTfd1Ll5Rnx+GVsjJeIVuG68FFOOSlJQ2D1/NKdIqRmQ/YYr+15ESpjdjNCMjBCN5UGMgkAngGe3OgBkRLT7xAh0HG67bUbHxQLydQyp2GDA7DOTCHR+jhZhwCemg4z9jyLP4oWw95CJITwTzhArOnHA3lWWYhlj0eBaYpUhy//JYQnZb65hTTFIYUVDSuCKjeC4mRAuB8dBnlhuzCBCSpSLc5qwuqkXBMcMPff8MrVGSgTmKBgvIy7EBwVSKNww/0iFKlLCNzb3DR/WL7C+V3eOIlLCpMcMZ1T2l2JwFjP+PaMX7QQp0X6ma9oL0DPI2DVLZSlVt4fpyk+xOuyYaK4zkYOlYkTFyQ4cvmcnUSLD4AHx+Msv+Ot6Zu9oVyMC/z32nXbFY4lZ8sFRN/RlO2mUP/qAgPw//MBN4xqzcJASM3OcV2akhNUE2fikRFkoB8cuwwlwBRNauIFWTtJWSAl/kdPuADP+o72AmTOmimF/ovN2nYJjTRUtCcDHxMeFSRndGQ0sqGZ5KC3uDEWkhM4wuQGTHezGoXcQDvrGx0eGdoSAmHXBLefESToL1m9e7yKl4nbI68r/DbZxbfgXEOIyDAjEY20wYNYTUiJ2Y2clYTFxsiOHwpEX7QVpIYcLCEFh1dJnWKjsv4/8kcmfHkrfxdJibRPfMQJwvfBwOLCRPJisor9CUnhELHiGGCkLcaxYUmLdIeWjL4MrTqXE+MDq8svaCinB8nQETD7fLSDaTiCPtQ10AkxSyIuRGUXSOSgQwa78iZD42rAvsrAyEXrf2vIroe/9O0YZKTFoMEpDMKxhwuWm3QC3xf4gJeIbzMoAUOIadCD/X2hM5yKl/ro3vVSlTK0zEGC1YoFAUlgVWBs8C1nhMlsfIXjNIE5cycIhXMMNNKuG9uKDmwXR+GWgfTkOl2C1795BRlgtuFi0Nc/i4fCx2BREhAzWGCm4gZBw8fGQYkkJt5DnwSCnmoJTBj9cTr+srZASfxRApUOrQGFZCg+jwow0ApVj5OXDdzoI6zb8ghEot3/QQAZyCgXF/Gf0fVoHKSMlRl10CbhtYGBxHlaRkT6kRAfAymVAoWMAxPwsCfoWKTUjJXTHYEycCB2TcvCti10AAAPDSURBVOyzuVdYE7g1EBODM8RDe9CP7MxrVu7znPUlS7Fq/JXfvAsC4z20o7Uz15ndxvLiWe7T1+ivxBe5bx8WbBLg5j7lQYbYFl4Mx/gSpyQ+xGwebimWHuXEJSWQznfcS8gM3FEfdgSARauzvasVUrLM2k5pGEw+pknzywraftdQyg9SYtRl1GPGI7RqngVrjIAENvO6hZQYuRlRsWBDcT3ahU6FpQtItaJ7egeugyWIHu8iNM1PPrQBFixrmWYkhAEpMFMWWulN+xNvpE1D/xxk9cEogHQ4RNC3tux+TEodiFHiehbVJ2lSiqmkZDo7A0TBSIQJjsXDzE0dPUFKBE/LnmF0JP5BvJBRFku5TF73OttJOgnrRKTkmahDBSSY2vj5/NMLsbz8f4BV1RPLx4KpRbKMdsQ2eAfvsvhDkbyuhzug9NKpF5HSECSlGQU6Acn8CQ8zmqee7+x80klYJyIlkZLcLmEgKQyIlATIpAAp6yFsPfSSXkRKIiWRkjCQFAZESgJkUoDsJYtAdQ1bhSIlkZJISRhICgMiJQEyKUDKeghbD72kF5GSSEmkJAwkhQGRkgCZFCB7ySJQXcNWoUhJpCRSEgaSwoBISYBMCpCyHsLWQy/pRaQkUhIpCQNJYUCkJEAmBchesghU17BVKFISKYmUhIGkMCBSEiCTAqSsh7D10Et6ESmJlERKwkBSGBApCZBJAbKXLALVNWwVipRESiIlYSApDIiUBMikACnrIWw99JJeREoiJZGSMJAUBkRKAmRSgOwli0B1DVuFIiWRkkhJGEgKAyIlATIpQMp6CFsPvaQXkZJISaQkDCSFAZGSAJkUIHvJIlBdw1ahSEmkJFISBpLCgEhJgEwKkLIewtZDL+lFpCRSEikJA0lhQKQkQCYFyF6yCFTXsFUoUhIpiZSEgaQwIFISIJMCpKyHsPXQS3oRKYmURErCQFIYECkJkEkBspcsAtU1bBWKlERKIiVhICkMiJQEyKQAKeshbD30kl5ESiIlkZIwkBQGREoCZFKA7CWLQHUNW4UiJZGSSEkYSAoDIiUBMilAynoIWw+9pBeRkkhJpCQMJIUBkZIAmRQge8kiUF3DVqFISaQkUhIGksKASEmATAqQsh7C1kMv6UWkJFISKQkDSWFApCRAJgXIXrIIVNewVShSEimJlISBpDAgUhIgkwKkrIew9dBLehEpiZRESsJAUhgQKQmQSQGylywC1TVsFYqUREoiJWEgKQyIlATIpAAp6yFsPfSSXkRKIiWRkjCQFAaMlP4P6GxPD5/hnfQAAAAASUVORK5CYII=;" vertex="1" parent="1">
          <mxGeometry x="166.98" y="908.25" width="120.82" height="80" as="geometry" />
        </mxCell>
        <mxCell id="6bSPFQIg_zKgYMIiMJCl-70" value="" style="edgeStyle=orthogonalEdgeStyle;rounded=0;orthogonalLoop=1;jettySize=auto;html=1;fontSize=18;" edge="1" parent="1" source="6bSPFQIg_zKgYMIiMJCl-19" target="6bSPFQIg_zKgYMIiMJCl-65">
          <mxGeometry relative="1" as="geometry" />
        </mxCell>
        <mxCell id="6bSPFQIg_zKgYMIiMJCl-19" value="" style="shape=image;verticalLabelPosition=bottom;labelBackgroundColor=#ffffff;verticalAlign=top;aspect=fixed;imageAspect=0;image=data:image/png,iVBORw0KGgoAAAANSUhEUgAAASoAAADJCAYAAACUnX+3AAAgAElEQVR4Ae2dd5hcxZW3RVjbn/3twzrsrj/vrtTdMyPNaGY0CqMshBAiI0AkI4GQQCAMIoskoohCJJv4ASZYJAsTBUISGAVANphgMgaDDRiTkwkSIp593hrOuOZquvt293R3dc/54z63w71161adeut3TtWt22PY+MPENisDswGzgWLYwIDxsyTbNmj8UVkZ1KNx8FZim5WB2YDZQDFsoH7wtpJtaxg8PiuDeqRSKbHNysBswGwgZBswUBmoraMyGwjeBgxUZqTBG2nIPb3lrTRK1EBloDJQmQ0EbwMGKjPS4I3UVEtpVEvI5WygMlAZqMwGgrcBA5UZafBGGnJPb3krjdozUBmoYoOqtiYldbUp6VOXkobeKenN5282Pvft3fZfU33bvrm+7Ri+cy7fdV+TSsmQlpQ01KXkzH1LY+wGlcotZwOVgapTUE3bNiGv3Pyv8unSdeXju/9FVi9bTz5btq58trxtW7N8Xfl02bqy+p71ZdU967vPny5bT1YtXd+ds+qe9dr+X7aerFm2rqxx568jn7Ffvk6H7fMV68qbt2zQaT4MLpULl66sOwOVgaoDICZulpA1y9aRr+7vIbKyh3xx7zry7p3flQ/v+rZ8vmId+eLeHm7/+YoesnrpevLhkm/JB4u/Lavu+RdZvXR9+QRoLV1HPrzrW+3wIr01S9eVz9gvX1c+v3cd+fy+HvL1/W3bl/etK09eZQ2yKxt2taVloOrmoGrpm5LW5pSMG5qUF2/YQL5c8U+AAJfHrvxhB5BVWwMI4X5qamqkrq5O6uvrpbGxUZqbm6WlpUUGDBggAwcOlEGDBrmNz/zGfxzDsZzDuaQRwr0UKw8Gqm4AKgwbY+/du3e7MY9uTcpWI5Py3LUbOGWDekJFoYpeunEDuevc/2w/tljG153TBSxApqmpyYFHYVTIHniRJmlXG7gMVIGBavzopOywcUL6NXSdK6Sg6tfYW3bcJCGTNk/Is9d936mnNveuh4srvXvnd+T2uT82QBXBJhQeffr0cXBCGUWhhGLKZ4um079/f3cNoFVbW1sV0IoFKm42zhanh6TCSp1WpfQuW45MygvzN5A3b/+enPGz/5Fp4xPCbyMHJAuCx7DWFtlzuwEye1pS3ln0Hfl6ZVv8adVv15cPF39bVl78Izly954FXSNO3XfHY9TeGxoapF+/fh3g5LtyKKu+ffs6RYTyVcBEbVfT4xhAxDmqyqKuogKMYzS9Sq2DWKDSG860p9eOUwjI00zp6H/RCuosbXonPT7Tnorq7PzQfltwxo9dABuV8/V9PYRRtBUX/rtcffxP5LCJvXLeth6VlL3GJ+TsA+vljQU/ag+QM4r33qLvyEUz/0uYOhBaOVRDfhQoAEoVLTaqcKId8B/AiWPr2cqENEiLNEk7Ci3yQDuo1HiWgaoIMj+bUaX7/8ZT/p98eW+b2gFWhW7EmV6+6V/b03l/0XfkrQXfkzP3/x8Z1GSASlcPhf6OekHt+J0ygEJRAQuAUug1sp2v0OKaXFs7cj6rS5gtjZD+N1AFBKq9t03IM9d8X968/bvy2q3/95/bbd+Td+78P246ANMDdGOKwJrl67h5TB8s+bawMS2A333Ivbfo3+S12/5dTtq7p5t0GZIBVlNeUDUoFlwxVTSAgZgRSgeAlfp+uSZwRFFpntiTx0pSVwaqgECFETMaN3XrRAeDHtycklmTe7qRuCfm/UCenPcDefyqH8ijV/xQfvf/fyQLz/yxXDjzv+Ximf8tVx7zkw4q6qO7vyVnHtgkrZFRv1I3mGq/HpBCqaiCUQVVLkBFy1tVnh8n4zN57grXM3q9rv5uoAoMVIVW8JjWpDx25Q+conrr9u/Kjaf8RHbdsi2IWwqXo9D8V+L5qlpQTgAKxcIcpxDLmzz56oo8h5pX3xYMVFUGqonjEvLkvO+7WeGXHvlfTplpMDfEhuMbYyV+BlI0dABFHIiyDl2lRNWf5htXMNQ6MFBVGagwtKuP+4ksPf8/3Cgh3w1UxRk40HgUkGKrBEj5IKLjIlal+Sf4z0i6f0wonw1UVQiqqHEZqLoeVD6kUCQ08pAVSdQm9Dt5RhHiroasrAxUBqoge1BtSCHufXePBk5QupLdao2xcS+oqxCVlYHKQGWgysEGFFKqQHCd+C1EoOaSJx9WKCvgG9J9GahyMNJcKj6kY8316xrXjyA0c5JUeVS6koraqA9h7pF7DQVWBioDVcWrgWiDK8Z3HSlT6FcbpLTMNPYGqEIaHDBQGagMVDFsgAZM7KYSR/cUQnH2AJmRPyCl8aoQ4m8GqhhGGqeCQz5GVUAIBhdyOaXLmx+/QWkw25wGne74Sv+de2MkkFgV98vncruABioDVdU2uK4ARlRhVEvwPFvZqIIEVMxeL/ckVgOVgcpAlcEGtMGqyxfqhMhs4MnnfxS4qvFyzxMzUGUw0nwqN8Rz1NjM9ctt9A81hZsHpFAWjIJVs8sXtV3uVUc5y+3yGqgMVKao0tiAqimdsd0dQU8ZMMKpgXW+R4FWiu8GqjRGWorCL9U1TFHlpqSoF9QEcRmURHdUU2qbqiopA2BVroGEWKCiJ8m2xSUtx2VLK27PRSHGSavcIxZa6eXaG6hyBxU2Q+C8O6sptVfamNoQsapytKdYoNIM2z53gw+hzNTI4nYAIeS53HmgrHR9KYbn6RTLnadyXZ97pwxQVJRJOQYUDFTm+nXbBpiu4dMwCSLrPCJcwHTHdpffKQMgRZmUA9wGKgNVt2+EUdhoAFndvrhhjWg61fTdLxOC66UuEwOVgcpAFbEBdfsAFY2ymoBTyL2gMtX9K3UYIRaoyByVlmmzCg03fmUxqvh1E3X7GOUqpHFX07k6CgoHSj2nLBaoMgFK/6MxVFOlVNO9GKjig8of7StX4DhU2/OVZqkfJTJQRWR/qEZSSL4MVPFBRexFy4t9qWMxhdRzsc8F4uUqGwOVgcqUsGcDgEmnJTBnqNiNv9LSp0zwoiijUsapDFSekVaa0cTNr/aCpTSsuHkL7TjmCNEQicsyDB9a/sqdH51PRfmUctqGgcpAZY3xGxsgkE7wXEFFwLiYYOiTSsm4VEp+mkrJHqmU7JRKycbf/LZ5KiWjUilpCMw+KRMep6GMShlQN1AFZgjFaBimqOLFqHQGNo1Qn+8rRn2QZv03cFqYSMiLiYS83auXPN2rl9yQTMr8REJuSiTkgmRSdkulpF9ANgrIFVSoq1I9TmOgCsgIitUoDFTxQOWP+NEYizU1oSaVku1SKVmRSMhXPXuKfLN92bOnvNurlzyRSMiyREIWJxJyWSIheyaTDmzFso9c0vWnKJRy5M9AVQRQYfDEOkLZ9NEHGl4oeSIfuTSQUhxLvWmwGFAVKwbTlErJmcmkfOZByofVG716ycpEQpYmErIokZBzk0kZWwQ7zadMfVCV8gFlA1URDECfuseFsC19GeTTUIp5TqlA1ZpKyfxksl1JKaTYf92zp3zYq5c88g2o7kkk5MpEQnZJJoMAu4GqCMAoplFnShvlgrsVyqZPFqCsQskT+chUhuX4r1Sg6p9KycXJpHyeRlG92auXPOgpqvOTSdkmkPZhoAqkIsrRQIp9TaCAsrPpCZljVaUCVe9USqalUvJ8ItEBVsSrPurVS55LJFz86q5EQq5LJuXQVEqAW7HtJE76BqpAKiJOZVXaMQaqeI08OupXrGA69jMwlZI5yaQ8nUi4APonPXsKsSmU1JJEQhgNvDaZlCNSKRkTUNugTHTUz4LpAVVMpUGps/waqOKDirlBqE/c5WLPowJWhyeT8qtkUu5IJOTyZFIOTiblmGRSTk0mZUYqJcMCaws+qEq5LpUF0wMzhM5AU+hvBqp4oKKccW0UVDYzfe1yA94a8wRaqNBC7TPO+QYqA1VJDC2OMYZwDHE8GiIbrk0IeQopD5QJZYP7V8opJgYqA5U1Rs8G/NUTWGOtVIohJBilywtlQZmgOO2hZM9o0hWY/b62JM9UJub6xS8vf+Sv1I0xUx2G8J8PcSZ7lnIJHFNU3QCMBqr4oIqO/BGzCgESIeQBV0+fcijlc37ceyxQEUDLtlmFxm8MpTY6A1VudUODJAbDVuyRv1LbQiHX0xE/YlS091K6xbFAVcjN2bm5NZJilJeBKrc6iLo4uIPFqJdKShMo6XOQ2FOpJw8bqMz16/aNMAoMwKTPa+LqlHJ0K5qXUL4DJu3wSvkwst6/gcpAZaDqxAZwcxjdMvevTY2q20d5lNrtA1YGqk6MVCleLXvtCUst1yu5/Hz3jyH5Uo5whVZu/khoucoiFqiOG/GKHD/i1YzbAYNXWs8cKPQMVLnFqAAFMRmdhY37150Hi7h3f7SvlEF0hXYsUJ095is5Z4xk3I4Z/qKBykBVVTZQ7riMNtJy7jVex0gfHV654nUGqkDh0pXGaYoqd0VF+aMcmC+kM7G7o6rSuVOAqtRzp/w2YKAyUFWVCvKNuys+q6qioZZ6NnZX5L+QNIjLlXNKgp93A5WBykCVwQZQVf6IF5/9BlTNn/3YFNM1yhGb0vI1UGUwUi2kSt+b65ef66f1jrLQh3Epy+4wehqakjRQGai6jUJQ8OSzZwRQ16lCXVTzdAU/gB7KhFcDlYHKQBXDBnB7gJX/DGA5XaF8YBvnnKiryz2HcJ8GqhhGGqeCQz7GXL/CXD+tWw0uE1jXuVUhNGLNX6F77oVRPuwltMEDA5WByhRVDjZA7IZ4FQ0ZVxDFUSggQjlf41LcV2ixOANVDkYaikHlmg9TVF2jqLTcVXVog+Z7pSsrBbAfh9P7DWFvoDJQVY0iKGWD8mGlyqoSYaXuno5qqktbyrKMcy0DlYHKQJWHDdDAmWekapUGzhwrRsziNLwQjoneA+5suedLpSsXA1UeRpquMEP9XRsT8j7UPFZivqINHWVVzsdMcilDgApYASz5ZjQTlZhLGqU81kBloArWOEvZEAq5lgahUSQ0eB474TdAVki6xTiXPDF6iXIir5pnvhfjel2VpoHKQBW0gXaVoRc7HcCkjR+FgoplRBAohAAs8qAqirz5gKoEpW2gMlAZqLrIBgABrh/ulIIAdYWLVS5gqYIinkZeVEVVWkzNQNVFRlrsHruQ9C1G1bXTEzLVBWAg1qNQQF2x8R1YlApYQJNrKaA0FqV5qbQpFQYqA5UpqiLYAJBASdFJoGIABHumAaC6AAXHAJRM4MvlP4UTaXMNruVfm7wAzK68Zi75K+TYWKA6dMjDcuiQRzNuew1Y0GUFXsgN2blrqwdTVGuXSanspDNgAS0UDiAhrgXQgAuxIoUXyowtmk/9XaHEOZxLGqRFmup6ch026p94WSXEoqL3q99jgUoPtn35DL6QsjdQlb/eFFidgYR4loILxQNw2FBFAMbf+E3/51jqNgqmaHqVDCi1ewNVEWS/Fm4oewNV+UGltoASQgEBH4WWumeqgPLdK+xIm2tUooun5RTdG6i6AahwC+iJq8lwo4Zcid9RWeq2oY4Alyok4IUyikJLRxOBEsdyjqovDdZXYllky7OBqhuAKpsR2P/lV1zEngCXH3Oig1G3T91AfgNIbECOczqLZVVbnRqoDFRrBWyrzcjtfsoP4kLrwEBloDJQmQ0EbwMGKjPS4I200N7YzjdFZUZuoDMbMBsoug2YojIjK7qRmaKpfEVT7jo0UBmoDFRmA8HbgIEqRyNlSHjvvfeWSy65RLbZZpsOFcxQ8qmnnioXXXSR7LDDDu6/jTbaSH7+85/LokWL5KabbnLnMsSsPdROO+0k119/vSxdulQuvfTS9t/1/+ieeTQzZ86UW265RRYuXCinnXaam2+jx22++eZy3nnnyeLFi126kydPzpqmnhvdM1S+++67y/z58+WOO+6QOXPmuGFxjuNejzzySJePm2++WQ499NAOj2iMHz9eLrvsMrnrrrtk3rx5stVWW2XMB8Pt5PU3v/mNLFmyxJXh0KFD3TlbbLGFnH322e5+b7/9djnppJPa75n5RmeeeaYcd9xxMmzYsIzXiN5f3O9MDZg1a5bLw7hx47JeY9NNN5Vf/vKX7t5//etfy9Zbb511CgFz3HbbbTe54YYb3HnnnnuutLa2umsxBeGII46QBQsWuDI4+uij3TN7cfMfPY7pDNgudvfb3/5WLr74YhkyZEjW+8IeTj75ZLnzzjtdXvbff39nB6RP/WH399xzj9x4441CGeh1sclrr71WsAn9Lde9gSoHUFHB++23n9x///1y+eWXuwc+/QI/5phj5PHHH5cHH3xQDjroIFcpv/rVr2TZsmXOAB944AH53e9+J3vttZf7D8N89tln3f9XXHGFnH766VkrEkjde++9QoMFfo888ohceOGF7jwaBEb08MMPO7hg7DvuuGPWNP178D8DKa61cuVKufXWW919KUwxWO7l7rvvdhtlcsIJJ7hrAWm+//73v3cGetZZZ8nYsWMz5gNj5hwAi6FTjjRaIAH8yQPA5H/u7xe/+IVLj8ZDud93332uQwBc/j0U+pk6pzNYvny5AxUTM7OlCVDoeGicjz32mMubQjfduZMmTXKAfvTRRx2MuEdgx/FAkvunLsgHdqRlnS69TL8DfjqeJ598Um677TZnQ9ddd13W+6KjIl/UOfmh/n/2s5+582gPzzzzjOuM//jHP7q80qmTDzqQq666yl0nDug7y7uBKgdQbb/99q5iqSAq2y9QGicG+te//tUZEwqD/ydMmOB6SiBC437xxRed4fEfaoMK32effWSTTTaRUaNGdUjTT18/b7jhhjJlyhSX7owZM2TFihWu8fI/PRrpoahQMKNHj3azlvXcXPb08DSQl19+Wfbdd1+nEGl4QJjeEuVDg0EFAVxAAVgwSo4jHygfAESe1WjT5QEA7LnnnoLCpNGiPp944gk3mx7j3mOPPZwyOeSQQ1zaNDBNi2uiDgDd4Ycf3v67/l/InntHddCwN95441hpT5w4Udi4d5TgW2+9JWPGjMl47rHHHivPPfecg/Iuu+zilCpljSJHlQF97o1yABb8Nnjw4IxpprvvqVOnyksvveSUKHYLRJ5++mlng+nO4XftlOis8Sqef/55oTNkdvyf/vQnV+90jNjlP/7xD2ejnKdqkfuhg810jXT/GahyABXwoXLoWfwC5REGehR6O3p8FJSCyj+OnhkFhYzn97/97W9Odp9xxhkOYr5L6J+X7vP06dPdtQAkx6CwABfKDBVCo0cRpDs/0+9IecBKHnHzSAcVQ2954IEHOigDJwCEIXLfXH/nnXeWhx56yAGdcjrllFNks802yykfuAi4tn/4wx865J3ymTt3rktf1Ybew6677ipPPfWUXHnllXk3YE3L36NWUTlA2/897ufzzz9fXnnlFddppDuHhk7ZAo8RI0a48iS0gFo+7LDDXIeGbeEK4gbiXqGcKet0aab7nXrFdXznnXdcB0K9YiuAqjOb1XQAJuVAB8XjOyhZbAElRmf19ttvy1FHHeXsAZt48803O7QT7hF7eO2119YKmeg1Mu0NVDFBxTNXKBWMLurP0xsi9fH1icd0Bip6fRoecSV6MXrn999/v931QzbjJmSqLP8/nvPCXcSYuT6uBYri9ddfd5Ico0LaH3/88bHT9NPnM43kL3/5i7sOvTm9OooQ0HKfuGe4dRjgn//8Z3dd4hbAGCUGyFBFHKfubvQa0e80JKBAh4Aa0f/puTHyN954w0EShar/sadx4BoBS9SM/1++n3FXib+hYPJxKVGSL7zwgmvMNO50+cA2iOdRttqxADiuS9liT6g6/Y97RI2jjNKlme53gEFHhsrT9E488URXTyjgdOdhs9QjalnPwx7oULANQHXAAQe0n0/9a5hA00QxY09+vep/2fYGqpigokch3oTE9QsVqYsbgqIYPny4k9FRUNH4ABTSF9eFRkVD++CDDxz8UBy4aoArjutCr4oKo0dDyaHocPNwSXG5iC3hdqBsiOuQvp/nuJ9xRRkIAHiAj7RRLSg5XFrcLXpigASccA1wYykjJD6KDhcZiOGW0iAzXZsGgDEDN8rUhwMgxsW84IILHNBxDVF6fnqUMWVP/vzf8/1M/lEuADCaBtcAFtw/G66hP3CB+qMhUycErrVxR9PhOxDjvggb6P8oOUAFRIAUHaH+h61xbdxA/S3unnwx8ICi0nNmz57t6jhT3IvQhCooPQ97BuSUBemhtPU/9Rb0O3s6EGyJTs7/Pc5nA1VMUCHJcTfoEfyCRTbTe3zyyScOPKtWrZI1a9Y4RYDrxLHAgkrGQIAUv+Eu0QsdfPDB7aNlf//7351r46ff2WcUFEqKmBA9JMfQEHAJaKyoP37DXaDHAyqdpRPnN2BALATYASZUH4qS63FtPhO7w2iBB3Ch50Xtad44B8gD+0zXBAw0TmDjQ0rP4Zo0NKAAALiu/seexkujBnb+7/l+xgXlWgAnmsaWW27pXGMAzEYj9wPFQJv7pnFS19Hzo9+xI1w/vSc6IGwGGAF9OgMdSeMz+YqOOkfTTPeduBuKivLmGFQb8THiTunOoeyJSWJPKEWOA9DUK/E3lDxuPp0m/xGjwhX006OjoRPDrfV/j/PZQBUTVKgieh5ggmLRwmW6AAZNAJQNeKA86AkBBoFKGi6GiF+v57GnsWHQVDS90urVq9vjDjRIIAaQ/NgB7hhKCeONKgquxbUBInlRQ/Jd1auvvtpJchSYn5dMn7kO0EXpREeHUAPXXHONa1SoPNJBDRErI+iKyqB3xd3QETPAiTLz3VIUIEAAeGrspAUkUa06vQEI0WAAku9OkTYNm4YERDLdT9z/AC33Rv3lMnrK/VP25JUG7l8PaKlq1Fgl/2tdE2OjQdPp4MqjngkpUDaUIfVPPXCcD0A6BjrS6CCPf239jG1QVnSg2223nXOluUeuxTEoadKj0/NVIscDSVQ/dYeril1wj6hO8sz1cdPxDrS+SZO8Yg/Ernx71jxl2xuoYoKKgpw2bZqLMzF8HoWOFjQVTIXh4iGXMYDPPvvMqSyUFhsBSXpfelt6Mno3eiD8f02HRkiA9cMPP3SGyu+Aj/Q///zzDulxDYaJaaC4BfRuGApGRZ41TYADaMl/NnXDOcQlSI+4EBsQULXGNAkaD6oQlwXXRQ0TVQCEMUrcW9LYdttt2/PBuZ9++mk79ChLyuuLL77ocF8ADsDTQN59911XTlwPmDGypPdFQ6E3x61gTpX+3hV7GiLXI96iDTlTugCVWFq0zok50Vi5V/KK8vYHBFDsAIn7o+4AHWXCtUiTuBTuFeWJG+h3lnRqKH06LwV6pjyiVjVOxbU4lwC7nkNHgqolToh619+xBzpC8oG9MmVFVR3KD3BRT9gs8VwfpNgbipsQgaaXy95AlQOogAcNAflKr6BuXC4F3tmxGBfB8eh/NPxcenI9H6MYOXLkWjAl0E3jpwGkA62mwZ6GiczHRfBVGf/ROOg9AZCvbPzzgTGxpc4a+E9/+tO11IZ/rv8Zg+d+aEBRwAIpwAg0AWkhkwr9a+pnAILLC6yIv8UpNz033R676WzEjntBzXCf6jZrGpQB5c0WVdKocSCB4kf56zmZ9lyLOqVuO6s/VL66mn461CV1TiccvRZlQ70SiyR9PY/8AkIGonwVqf/H2RuocgAVBUpDISZBj4NsjlPIoRyjo3Vxet1Q8pwtH6gDQEJv7bsp2c7L5X/qGVVH4DjfgYlcrpfrsXSauP24dLmeW+zjARaqixHvQtSugSpHUBW7Yi19e4DXbGBtGzBQGaiC64Wtoa7dULt7mRioDFQGKrOB4G3AQGVGGryRdnc1YfefEgOVgcpAZTYQvA0YqMxIgzdSUxQWszJQGagMVGYDwduAgcqMNHgjNUVlispAZaAyUJkNBG8DBioz0uCN1BSVKSoDlYHKQGU2ELwN5AUqfX6HJTDYWDqEZ41YZE0f3OQhSpaD8I9hjR2e2uYhUv/JausxC+sxx9bPlEktV8tuLdfIxH5Xyug++znDq0nVybaNZ7nf+X+X5stki74nSN9a1mb/50OjpSz/HZsvaM8reSrltct5LR7MZQVN1jrnmUHWZMr1WVEWZmQ1CW1T7FkPimVh9N5YxYL26B/DZ9qeHlOJ+7xABWR4ywrLPbAcBU+Ws+AZawzxFDvrIfFkNcuJsKwIC4hxDKtEsuQui36xLEQlFliIed6j/w1y3IhX5JAhD8t+rUsdjMhnbapRDh3yiBw74q9y6NBH3Ocjhz0t+wxaJEPqdhVAVur72XPAbXJA631y+NAn5ZQN3y/59Ut9v3o9lt9liRPaCUvgsAIHa2qxKoQek23PygScy/LGrFNGWrQrf30nltThd39jYUe2bOmH/H/eoOJJfFa1ZJEwVjdEKbHMBgXCSossA8IaOiztgNpiITnW16agWWqEzyEXTCXlbe+BCx2Mdmm+RFBXA+ra1n6qq2mWo4c/LzOHPi4Tms+T7RrPkmkDF8iJI1+X6QMXS9+atpUa9V6bajeWIXUTpaFmRHvd1Kbqpb6Gd76xSmWt1KVapE9N6zeQq5HeNf2ld02L1NX0c3vg11K7hQyqm+COiyq30X1myLj6I2XawDvkrDFftV9H81Cte9a1on2w4ByL5LEmGWtL+etAZbt31uBCGLBIHcqKda1Qaf768bxrkd914zjWuEIk+Omz1Azr9gM/lnPpiuVr/PS7+nNBoGKBLKSmZgqys3gZSzooqFh8y68MFgdjYTH2ep7tC3P9ANVRw/4k4xra3m6j5amgQsEM7T3JlXdT7RjZf9AyOXnUuzK6z/4OOH1qBsnklusd0I4Y+rQcMuQh2an5IqmtqXfHTB+4REb2mSYD67aTSS3zZJ+Bi2RUn+nuO+7mDk3ny47NF8oe/efLngNudcruiKFPyQGt98u4hqMczDRPut+15cpuBSrWFtM1vfBIWPaXjt5vP1o26fa0I7wWf25iThMAAA/iSURBVIHFdMfq77zzkEX6ABe/EbZhNVVAySqfrBaKx4Pg6GyNLE2n3PuCQPXxxx+7QmMVSVxB1gVixUr8cAUVqz8Su6JiWEOZ3oBewV+GttyFUOnXzwVU3OuWfU+UOaNXyc7Nlwgw27Xf5XLiyNcEIO3ecp3MaF0hs4a/INs3nSubNhwtRw17TiY0/Vw2rj9EZg59TI4d8ZLs0Hy+bFI/Uw4a/IBM7v9rB6/Zo96Sw4Y+JlMH3CxT+9/kVN6M1nvbIemXc3cDlX/vLIrH6q0fffRRB7fNP6azz7xuDZeRJYqJOdGuUESZFnDEg8HLIb5FmiydzXl4NazQSTyLPeAKeZ2ygkDF0rEsUcvqgixMT4GwDC/gUlBBcwqF5U5xAzmWwtElTDurEPstN4WVK6ha63aW00d/7IDSu2aAcwUPHvIH6V+7jdSkGpyKIobEhurivykDbpRtGk+XI4c945TXngNuca7kQYN/76CFygJUgK6pdqzU1wyTfQfd5YA3tr7tZax+vXZXUKFoWIIaT4M4U7Y38/hlRriFGDBeCzEo3u7DMtQsF+yvM6/nsDY7Xg+hF/0NYKHIWIKYWDIrdrIYJMsMh+z+FQQqIMTLCXi1D+8lIyZFIfKCAxbl5ztuHqMcHEOBseYyhYtvDcy0AG2fG5z88soVVEN6T3KgmtL/N9Jat5OctdGXbkRQ02yu3USmDbhdZo98SzaqP1CmD1rk3Lhd+l0qRwx72sW3cCcZtQNUqC5ARTxs68bT2ut0cv/r5bgRL8umDR3fRsJ1uiuoWNqZADgdN7EqLfM4e2JKnAOYcOloU3gseCn+GuqaFoNWxKf89eoZfSREAygRFryEg5dyqFuq54a2LwhUfoyqsbHRTU3ghQKMbvCyAUDlx6h4MQBBddRXIa/7Ca0Qy52fXEG1beMZcsboVTKh6VwZ2WdvOXvM18610/torNlIpvS/SU4e9Y4M6727i0vNGv5nYXTxgMEr3feDhjwg+7cukwMHr3SwA1RHDHtStuj7zxee7t7/Wjl+xCsOZJq27rsjqOiYeYXZq6++6t7eUqiCYRlmIIU7yAsztGzZE4fi5RoMbEVdQ9oh8S59/RnAYgSSc/w0QvrcZaDipngRAa4fw6e8NTUKKo7hJYX0AkuWLMl5HklIBRdSXnIBVUPNUDl06KNy0qi3ZVjvPaSxZrScMXqNcwP1nlpqt5L9W5fL8SP+Jn1qBsp2TWe7GNZ+rcsEFbZd0zly8OAH5chhz8q+g+52cS5Ahau4ed/j2o3dQNVRJdMeCJWgYKIvb9CyJ9DOKByvqI8CRo/x9wgDQMVrtPzfeZ0WQoJXVPm/62cgiUKjPeLxIB7yeYOxplfsfUGgIpgOlSkMJnfi8tFb4EfzlgoqBijxqiDegMI0BgqW10PxqiACe8W+we6QfjZQMZdqfOMc2aH5F24u1akb/sNNAq2vGeqmHBw8+AGZPfJNN2rYUDPcBdFPGPma7DVwgaufzRuOc9BiDta2jXNlk4YjXNzqhJGvukA6ZWyg6gilqN0RrKa9LFiwwA0koWgYXOJloP6xDDopfKIvQ6CNMd2AN8fQvnh/HvMUEQf+ix3wbogFEwOLztNqbW11Xg1g4zNvm2FCKO025ClDBYHqq6++ckOszAchOEehIUXxownuASreQcfoBsfwzi/ITaUxFEpg0a8k+5zZ2NOVTzZQzd1ojQCn2SPfcMFwRvtQTW1zo1Ju7hQwO2XUu27awkmj3nIjfwPr2t5EvFGfGS42xUjg0N4ThWA8o3knjPy7TGg6z9WhgSpz3TGg9PXXXztYoXTYaDNMEfDrlbbDpGhiS9E3CgMmQinvvfee2+jwifny+jM/mA7ggCJzG6Ov1uLFsygoJmvTHrkOcWRCMWPHju2QFz9f5f6cF6jINME3lJRuxKT22msv9141Cg0I8Y41/Z89vQcz0pGccWRtuQunUq6fDlSAaGjdbu6Rmg377Cej+uztZqQzIqeQarvHGhlUt4OMrT/EBcPH1B8gA2rHtz9mw8ggM9lJqzbV120Da7eX4d+4jqQxoHYbdwyKTMutX+1mMqz3ZGlTbh0bcneLUTEC57cF/ew//kK58R5EwINyisaMGJ0jHYLpjNjhpfAYTtSNRCXxKBsDWloXuqfdMeKOy0e8GC8HFRe9lh4fyj5vUIVyA5aPlACq00Z/JLOGvyiHDfmjjG+cu5aBxiknZpUzr6qYj9YQ+zp86FNOjRHEj5Ov7nYMQXfg05nHwW/8z9bZ/3HLilgYLiKKq5B04l6v0OMMVFXw5PxmDcfIlP43urlOzDAfU39QsADYpflSF5CfMuAmN7JYqAHb+R2VarWWh4GqCkBVk+ojdakmqUs1S22qSWpSvYMFFa6j5pV9tTYsu6+uBaiBqgpAZY2iaxuFlWd45WmgMlCZqjEbCN4GDFRmpMEbqSmc8BROqevEQGWgMlCZDQRvA3mDiin448aNczNiWc0zSliGPHkUgHlTujFnhHkfzIithCHR6D2F+p160DLm4VTm0ZBX5szwVPxmm23W4QFwntjnuFyeDOAc6k+vY6tf5K5yRowYIVOmTJHp06e7sqQdhGpToeUrb1Ax+YzHYJimD5CiN0YjmTdvnntKnGeRWIOKVRN4WnvOnDluaYnoOfY9d+OnzFiVgkcmeBiclRx5lozfmWnM4xg8IrHlllu21xFP3vM8JpN0WeYjTrmzxAh1zaxpzuVRkDjn2TFtdUqnQHvRVQtYAO+cc84RFtSzMspu93mDCjixKiAPWTIDPVrYTEjjERqe4OYB5Ouuu07uvPNOt7QEz//Nnj17rXOiadj37BVIGS1cuNA9vkR9sHIqM435HTgBMJ6gnzBhQnt5z507V1avXi3AB2XMpD8mALLxbBhP10fLngXaLrroIrcOPkuUsFRJ9Bj7nr6+eK6PFT15Lo+Hf1nQjkdgmF2Od0E94Jkw0VNnlAMx6iLamXAcM9hRuZUyYbNQ2yg6qPxlXsgs61a9/vrrthRxF8ZFABWqFfD4BhEXVChcHm9iXW/eagLseMSiM5ee41BWBqr0UPLrQD+zKid2rzPKAT/PxlJ3wIjOhcdZeDCY5Yl55o9n9VhzCleRTgSgcR6P16DOrrjiCqfKJk+eXPXKrOigwk2gAfAsEU99z58/3/XyIS8pocZVKftCQcXDqcAH2KHAeEgVV12VmV8OBqrcAKVlx+q2DzzwQHtHQifCKp2UM3FbXGnWhaIOABi/4x4CN1QYcUe8GJYNRtHSrthzDg8vE4rRa1Xjvuig4uls4lK4JSzOxZrquCIEFauxQMtxT10BKmDFw7AtLS2uJ6eB4KpH78dAlR+oWCmBEIiWJwMgrDQCaAAV/7HCAm+RoZ0AK9QV7YbYLg8x68oKgAtXHiVGnXF+1D3U61TLvuigYokX6E/vQG/BnsJnXfVqL9xSGUlXgOqhhx5qb0S8IFbX5I7eg4EqP1CxzJEPftaTWrZsmVsHCtAQz2UwhJFB1nUjZDJp0iS3vjlviQFgjNSyrAttiJgvL0jhVVnEt6L1VG3fiw4qP0ZF5bDyID0HC8yzNk61FWg57icdqChvOgl6aFZf1bwx2kQwnd4YI0dNLV26tP1/3kaiS+bqObo3UOUHKgLnfhnjxgEd3DdARR0CIILkLEZJp85a57QTQMVCe8SpgBNKDM+EV13hMlInrISgdVSN+5KCigKkUKkcXgrhj0RVY+GW6p7Sgap///6ul2aEiflPmh/eAsQIFO43AVpAxbsY9X8aCPEU6kl/072BKj9QMa2DF59oOTIPjTgUylVBxf8+qDjGB5WeSzyKtaRQYcQTebFptc9rKxhUxKDomRl5YEOu0lvo9ASCs4wq0aOz6BcFT+ESVNeJiVoBts+vEaQDFeVJfJA6YDloppEwgkQPzUqratyAimkmQAi4Mc+K/1FV0ToxUOVXR7zrkjgVb4BhThUjeqgsRlnjgor6og0xMMU8RdoUAESZ+R1RtM6q4XvBoMKFYDlVegY2JhjyckUFFb45PQXrqNNr4woSD9E5PNVQiOW+h0yg4g259NzEPzBoRvcI4NJA9BVJgIrOgyF03ERAhsvISpLRezNQ5QcqOnBsH3eNYDhuHkFyXuIQF1SsmU5d0/kQfMcFJE3CKQTno3VVTd/zBhVGzrv5MGx/oyB5oyuxD3oN/7/Fixc7/5texR4fyM/gOzO+TKDS3ps1sTFs6oO5bPTK+hgToKKDYS1tYEVDYn3uzuIeBqr86w3wAxg6DOpM573xrj/aDHOjmOTJccCHybezZs1y0w94aSkeCx0MQXjqi3riOKb9aF12Zh/V8FveoKqGm6+We8DoeQIACDEadNBBa6/wiauAq01DiBo1oGLKCMFa3HZ9/bdfPsSzcNvpbBgMsQmf+QGLmedbbLFF3hM0qSNmpFNPzGDnu19P1frZQNWFM8TLZSTMXsalo6cGViz8n0teFFSZzpkxY4aDGYoLFx9oZTre/ssPZFZunZebgaoKQEWMg8mAbLz4lekFuRg8McRs4OHNQaSt1yG2kss17NjOG6CVS7xyMVBVAagKNXbiIFOnTjXwmC0EawMGKjPOYI2zUADb+fHUSiWUk4HKQGWgMhsI3gYMVGakwRtpJfT4lsfiqjcDlYHKQGU2ELwNGKjMSIM3UlMrxVUrlVC+BioDlYHKbCB4GzBQmZEGb6SV0ONbHour+gxUBioDldlA8DZgoDIjDd5ITa0UV61UQvkaqAxUBiqzgeBtwEBlRhq8kVZCj295LK7qM1AZqAxUZgPB24CByow0eCM1tVJctVIJ5WugMlAZqMwGgrcBA5UZafBGWgk9vuWxuKrPQGWgMlCZDQRvAwYqM9LgjdTUSnHVSiWUr4HKQGWgMhsI3gYMVGakwRtpJfT4lsfiqj4DlYHKQGU2ELwNGKjMSIM3UlMrxVUrlVC+BioDlYHKbCB4GzBQmZEGb6SV0ONbHour+gxUBioDldlA8DZgoDIjDd5ITa0UV61UQvkaqAxUBiqzgeBtwEBlRhq8kVZCj295LK7qM1AZqAxUZgPB24CByow0eCM1tVJctVIJ5WugMlAZqMwGgrcBA5UZafBGWgk9vuWxuKrPQGWgMlCZDQRvAwYqM9LgjdTUSnHVSiWUr4HKQGWgMhsI3gYMVGakwRtpJfT4lsfiqj4DlYHKQGU2ELwNGKjMSIM3UlMrxVUrlVC+BioDlYHKbCB4GzBQmZEGb6SV0ONbHour+gxUBioDldlA8DZgoDIjDd5ITa0UV61UQvkaqAxUBiqzgeBtwEBlRhq8kVZCj295LK7qM1AZqAxUZgPB24CByow0eCM1tVJctVIJ5WugMlAZqMwGgrcBA5UZafBGWgk9vuWxuKrPQGWgMlCZDQRvAwYqM9LgjdTUSnHVSiWUr4HKQGWgMhsI3gb+FyjKRffgvOEoAAAAAElFTkSuQmCC;" vertex="1" parent="1">
          <mxGeometry x="310" y="908.25" width="118.6" height="80" as="geometry" />
        </mxCell>
        <mxCell id="6bSPFQIg_zKgYMIiMJCl-71" value="" style="edgeStyle=orthogonalEdgeStyle;rounded=0;orthogonalLoop=1;jettySize=auto;html=1;fontSize=18;" edge="1" parent="1" source="6bSPFQIg_zKgYMIiMJCl-22" target="6bSPFQIg_zKgYMIiMJCl-65">
          <mxGeometry relative="1" as="geometry" />
        </mxCell>
        <mxCell id="6bSPFQIg_zKgYMIiMJCl-22" value="" style="shape=image;verticalLabelPosition=bottom;labelBackgroundColor=#ffffff;verticalAlign=top;aspect=fixed;imageAspect=0;image=data:image/png,iVBORw0KGgoAAAANSUhEUgAAAW0AAADGCAYAAAAZrdG7AAAgAElEQVR4Ae3d97c1RZU38PlbJjpOchyZGQYTOjqCoCgZ4QFEkaAgihgAA6JiACSYUAkmlCCKiqJixog5B0xEAVEcxQmL1bM+9b77UvTTfU6fcM895979Q68+p7u6urpq17e+tWvvXX/yp3/6p00eWQcpAykDKQOrIQN/kg21Gg2V7ZTtlDKQMkAGErRzppEzrZSBlIEVkoEE7RVqrGRaybRSBlIGErQTtJNlpQykDKyQDCRor1BjJctKlpUykDKQoJ2gnSwrZSBlYIVkIEF7hRorWVayrJSBlIEE7QTtZFkpAykDKyQDCdor1FjJspJlpQykDCRoJ2gny0oZSBlYIRlI0F6hxkqWlSwrZSBlYCrQ/rM/+7Nm0ceqC+ui68v7Vr3OsvwJUCkD28vAxKD953/+580//dM/LfR44AMfuPIA9A//8A8LrTNtdL/73W/l6y077fadNutka9dJgvaC1CMJ2lu7oyXQZvvPSwYStBO0k40vSAbm1Wkzn609ACRoL6jDbgam/YAHPKDZa6+9mn333bdT9fLP//zPzbZt25qjjjqq83jkIx/Z/MVf/EUOEguSuXmCu7Y96KCDmmc+85nNM57xjGa33XZr/vqv/3qitqSu23XXXZunP/3pzXHHHdccfPDBzQ477HCfPKhC99tvv+bYY49tjjnmmOaJT3xi83d/93f3STPP71rFvBK0F9SBNgNoA+srr7yy+fCHP9w89KEP3a4jHXLIIc3HPvax5rvf/W7z/e9/v/n5z3/e/OhHPyr/XXvJS17S/P3f//12z61ix9lKZdZmp556avP5z3+++clPflLa9Iorrmie9KQnNX/5l385qD0N1gZ8z5EJ+XzpS19qXvayl62B8t/8zd80z3ve85pPfepTzY9//OOS7iMf+UghALk+c+/sIkE7QXtQpwNShx56aPPFL36x+epXv9r8+7//+3bPYV9nn3128653vau56qqrmrvuuqv5yle+0lxyySXl2uGHHz4xO9tK4Lis33rYYYc1X//615tvfetbzZve9Kbmsssua26++ebmoosuah72sIdtJwdd3/Gv//qvzXnnndfcdtttzXvf+97mda97XZEjg7n8PbP//vs3n/70pwtYX3jhhUVmfvaznzUf+MAHCrPvyncrXkvQTtAe1Ol0jnGgXXcgU+Bbb7210fke/OAHD35HnUf+vpddbWRdvPnNby5A+vrXv75hPYb1YsnXXXfdGuCOK9+ee+5ZQPob3/hG81d/9VdFTfbKV76yMG7g7/lXvepVzfe+973m0ksvLfelw7QNFieeeGLK0P/HqgTtBO3BnSFBezlAdBxAzvs+pvud73ynqLci78svv7z56U9/2hx//PGD5Mdaxy9/+cvmgx/84Fr65zznOc03v/nN5uMf/3i5dsEFFzQ/+MEPmnPOOWctzfnnn18GjDPPPHPtWpRhq54TtBO0B3eGBO2tCdpAFdulbw6gNIOiInnBC16wdi3udZ2pQKhGqM7ivgVNqrYvfOEL5drFF19cAPq0005bSwPAqUje8IY3rF2L57fqOUE7QXtwZ0jQ3pqgfc011xRGfMIJJ6zJCgZ8yy23DFZbPOUpT2luv/325h3veMdaHkcffXRRsVC1AOB3v/vdBbRf8YpXrKV57WtfW0CbLn2rgnT7uxO0E7QHd4YE7a0J2qFXPumkk9Zk5Z3vfGdzww033Id9t8Gl/k92MHOLmHGd+aAFzs9+9rPl2tvf/vaiHjn99NPX0mDY119/fXPuueeuXYvnt+o5QTtBe3BnSNDemqCNAbPysFAYQHn11VcXgGVLHdecmQCyrbaIWF9nGcIMlDlfXD/55JPLwiOduWssSixEvvWtb11L8573vKe8p1aZxPNb9ZygnaC91kHGdYIAbYtSnB+e/OQnl+PAAw/czm47rUc2D8CfcsopBUzZ6O+xxx7NkUce2fzwhz9sqE3Y7tdy8/KXv7zYc7/61a++z/VHP/rRzYc+9KGi6iAbnGwMBlh0pH32s59ddNzM/g444IBircRChZkph636PVv5d4J2gvbgzhCgfeedd5aFKeZbjs985jNNPXXWoRK0Nw9o/8d//Efzvve9r7BtAKrNsWYA/aAHPeg+8sM+/5577lmzCAlw5dX4/Oc/v+TBYsTiI1aNsbPvl+7hD39487a3va2kYd9vkVKaN77xjWk2WuHUxKAt5Of973//hR/R+Kt6Ztu66Hqbt8s4tvSa17ymODuY0sZh1b/NhHbfffeGjpK7Mm/QVW23LPf/G3yY7FFbAFlme2yshSVo189LX/rSMojXi4mR5t/+7d8a98nNRz/60QLQFijjvvPee+/dsAfndWsAOOuss5rHP/7x90lTp9+KvycG7a1YSfnNm4c1ZltO35ZijfCAFIekjxBIs88++xSC0lXXEdoZq0ZiutLQh++0007NjjvuuJ1uvCv9VruWoF1NO7Za4+f3Tg9gWXdZdxslAwnaCdqdbGejBDLfm2CYMjBaBhK0E7QTtFMGUgZWSAYmBm06KQtLizz6wnmyCR1VjvUI5zjunX0xhv/2b/92ZFlHfce099q2sslgRjOYrJ+sn1WQgalAe1n2iATKo8rSt9AxS8MAwlHvFBO4K3/AO+q59bi3HoNW17fltQS7lIHFyUCC9oTTogTtxQlnAkHWdcrA9jKQoJ2g3TkzyM6yfWfJOsk6WQYZSNBO0B4M2kJpCh7EU+3LX/5y8XoT55jTDWG2hyDHC/e7Dl6Tud/fagIf5xpOMeJd82g844wztgtdMA7QONdwzvI8N3jOM0Ig1M9xruHezhNSuIS3vOUtzS677HKfNHX6rfg7QTtBe3CHsJ+fvft0uE984hPNt7/97RIj2b6QggSJQyHAj6BAQN12Y9ydRXFzTWhPC7JbsaOt8jdzY9eG9nUUP8RekTfddFOJGWKtZsi3GaztEWo3I67w4piQJWFZw7Ny5513LtftLUqmyIyNE7i2c+gZ8p6tkCZBO0F7cGfgmoxpYVw82gT9wbx1PkF/LHxiUzofgP7Vr37VCOEpyJBrfVZAW6GjrfI3mk1pY2EJbOgMxA3YgNzmvkO+TVgDMWrk4/mHPOQhxV3d7jexU82LXvSiwq4xcPJiH9LPfe5zJea2MK5D3rMV0iRoJ2gP7gwB2oIHRefQkTEwQX3imnMGjFpNNUjdhvHbRrxCswoQFdcM3HZVHwqm1CAi+ok5EnkIIAX8xRlxzV6UZma1LNk0AVGISIDx7FY+J2gnaK91onEdoQ3adtg2jaUuOfXUU++TT4L25gFtbWy7MSAbMkJlQUVSX4t7XWdhfM286KvjvljcX/va14q6xTVbkZGlOm63GNvYuCBS8dxWP680aI8zv0s77fvNVdCBNn0jPaOFxhtvvLF0RGwbgNedKUF784C29QuLhzbijTYW8Y9+uh2SN+63z6L53XHHHUXFEvdEhhQv2/qHa9ZDsPea0dtujMzldmP3ytPEoB0Vnud7K3Gr1AXQtsmqA/PCnEyTd9hhh7XOHHWRoL155COYdntjX0x7ko19yYswvrWMGPxjY99g2sK+Rhr6bkw7N/a9V54StCdUj4QwbcVzrR6xSKQzBzPi3l/XSYL2vZ2srpdV/G0Ng+5ZLOwo/xVXXFHA1G4zcc1ZvP0HPOAB5VxfZw5qsLfIGNef+9znlsHfbu+uMe+j06YSiTQXXXRRkTGLoXFtq58TtBO0B3eGGrR1HCZcQPuTn/xkMfmrO1OC9uYBbSAKTIHqAx/4wGJBYmcZqg266rrdbVhgY14moO3rTAWBv5jcTAWpPliTXHjhhSWtdREzOIMEEz+WSIgB1cxQ3Xn9zs36O0F7iUEbaxGgy9mx0ULYBm0dD+P6xS9+UTq0+ClRxgTtzQPa++23X9E72zkd0FJjWM+g12YCGG3uzI7bdmPAtr5uWzJsmR6c7po1CF02B5qDDz64pAX4nostxs4///xicfL+97+/mJfW+W3l33MBbYBiejzuWAbgWYXGVk92BuGIwinB2aJqAPhGfcOJJ55Y7GaDGSkHcMagTHt17ijbYYcdVliV7aLai5SRJs+rA+yYLpAFunTZgHSvvfZaa+9oSzrr22+/vbn88su3u8c+G2DHAra9Js3W4llnXrc29r3llluam2++uYB4e0uyOv1W/D0X0B4XbS8i2PWFLd2KFd/3zQAbQNMLRr05m5YCcBYzOfitDtj1tfMqXucchQ0/4hGPKI5UXd8gzbHHHlvkt+s+Ykc9Qn3S502JpDz2sY8tTjjrYQHWVa5VupagvWTqEUIKoGvAjt+u6xTtRb9VErgsaw44KQOzyUCC9hKBNvVHm2EHYMcZcGMiybZnE/wEjqy/VZWBBO0lAm0sO8B51BmwU5OsqtBluRMwUwaml4EE7SUCbaqPUWAd9/7xH/+x6L1T8KcX/Ky7rLtVlYEE7SUCbWqPAOZRZ0w7txJL0FlV0Mlyzya7CdpLBNrM/LDoUYCdOu3ZBD4BI+tv1WUgQXuJQJsw2Ri4D7gBNjOp1Gcn8Kw68GT5p5fhBO0NAG2MGvA62uZ7LEi6gDvM/ahFassR6eu8/F+vDmHjA4HqTznllDKw9L2HY41Qmpdeemk5LrjgghIhzmDU90xen7wTq09eqtqk7Zl4wAEHNOqdx6qzbbwmrWPOMCLucYjhBcnBhmt5nY98xb/mTCNc67Zt24pjWJ1mHr/Zh3PUIlNibB999NG9tuB97+Maf/zxx5eNOS655JLilekb6/SPecxjmtNOO61x3zfbzKPtHMYBiGu/Z+u+WOeznr/HgjY965AD0Aw5huS1nh+8kXkDVKBrwZFeGmt2uFaDbZ0u0qg3AB9C4gys1bk0kZ//dbp5fq9dSrgZ81gD4F1585B0n7eb+BSiuHFVFke575mufPLaaBDnaGVgtHUXMKtB256ddpWxcQFvVW7h2oRTy9B6BVTCoWpHbegs1oigUeRXPpxs7FwknohyaGcR+3bbbbfB7xlSHt8GrMUl4ZXpbJuyI488cvDajv4jQJVvEcuEbPqmeiuzHXfcsbjmx7c6S/fCF76wYGCUlYz7ThEubZUWfTLur/d5LGiP0q/GPaAxpKAELZ4ZdV50JQwp+6xpADFABa7tb8eY3KuB2/swcgDsqO+pH0Cv3jHwOj//18tz8tBDDy2dk+CL8tdVJxiKIEBAGjPj+n722WeXs3J2PZPXRgN0V/1w/wbK3Ml5F9Z95txzz21+/etfFwYsZjXwvfPOO0vsj668uq7ZkQZIAyegZX9Q7xORL7YYEz+ESzomftxxx5XBw3vtQFPLa1f+k1x78YtfXAKT2eEG8Noc+IYbbihsOPaXHJcfpm7TaWFeMWkhZcUJN9BEnHARC8VXscXZySefXGYxds0xMO2zzz5rsqs/CoolrrwohEPxb1wZh95P0F6QeoQLf5+uGpgFcA9pOEIzyjwwgBvoD8lvaJohoI2J69w619B8M91koP2oRz2qMGi7vgDXdjtjoaIvBvvGmg2kEbd6SH2LXy2yn6BNANg7gB6QA2jyAOB2mnna055WBg0zP/cxVL+HvGdIGqoX4InlG5zIv2/BuKmBhuSBlZNLESl9i2+yo7xvtImHPCI0rEEuvhlg+yZqkvo9gNo9cVgi4FV9fz1/J2gvALQJiUauGXHXb8Dd7oDtxie0o1zdI1/AbaCoGVg7r0n/DwHt8847r+w0cs0115QYFMox6Xsy/WgQB15iU9s02Qa57fqy0wu2GDuYm93573o7bd9/MyWAVu/NKKqffR4xXc9RM1BX1MBp0LbZwTzjDNmV3UBQx+6mq8fyn/rUpw76JrpszLje7szgA/hjj0qDA1VSvXMOJq2uzTTadWXt5ne/+10B/XnOLNrvaf9P0F4AaI9j2QG0ztQk7Uaq/2MZQwYAeWHj4waBOu9xv4eA9p577ln0j5iRDX/twK0TtBdzxr0r7/cDNxWUurXDS9egLBKfDXSFQ1WP5MV/YDq0Xm3mG+w2nrH4JgwvdZdrWLbBoFYdiIV91113zRW0sWoqObrkKIsB67bbbit67bg26mzXHZEDzRwiHfZs4MG+XTOTANrUQZHGIitVTL1vZdwzmzCIGVDm2c8i/75zgvYCQBsQY5w1OPf9po/uayzXgXaXXrwrP+mkH5XfJPeGgLb89thjjxJyExsytQzd34Mf/OC5lWWScm+2tADYVN96Qde3ASeMN7aBmwa0sU5Mu96thq4cWw/QBuqLBG1WG/G9LEiA9hFHHLF2Le51nQO0WdLE/QBtum3XLCyqV9Y4kQZok98u0JaGKgqoJ2gvQcD/aLR5nI3Io/TZAbiA3QLjqHeahg1d0LViPs9p21DQjvIznzItpXu1AFQzskiT535G3Vc3sW7Qtz8j9nfttdc2//Iv/1JkyeDt/yTqEeZuQDtUIcoSmxLENYt21COxMCkNPTemP0/1CFDFZslS1AlGDyyHxtqmWvH9Fk0jD+oRli+hHrnssssKaDOjjDSsS8iuXXXiWn1mNUNNk6C9yUDbFBaAjmPb1Bld091aSPwG7OMGAR11notB3jspaEe5mWuxXlj0gk28f7OdWYxYaKxZcP2N2K+Fx5jZUJMAcgBTpzOgM8Okk27LClZNVVAzU7vSYKKxEGkhTjksREa+nqFyaOcX96c5A1qsvgZO3wJwa326vA0Whx9++HaDhmv010wfowx20qHiiYVIrFr5rctEmquvvrp8c3shMu5Lr2wJ2psMtDUwNQVQ7gNuU9ihgq6zUbn0AbfrFivnybJ9Q4A2BsbkzJTTwYJh1113LYLOFMpUctu2bc3uu+9epvA6tqNrp5MQ/jwPZ9zAxpSdtYPBuV131hAskAEfssAa4ve///12U3yAZ8FY27Q3zgVybJQdHFmwegMBJr3vvvuWd9L9UsUYlHfZZZeyFdl//ud/FseTmnyQfaaHALJeCGyXu+8/hu3d1ELK7Pvo5+XVtv0H8NQmdN51fmZ9VD7YORNCsgzAyTJzRWlZmJg9GBAMRCeddFJh2QYnazV1fn775t/+9rdFrVJ/bzvdvP+nTnsBOm2NplGBMtVGG7i77Kqlx6iBL/bQBnQju3s6bahXnP2Xft6A7RsCtP/7v/+7LDYRWIdpJ/MpaUw1dSjMms3uHXfcUfTaQB6AzFuAt2J+bI6xTCoPbdKuA16L9LPAS/3b/gtL3mmnne6TlmqB2kFb1YxafuSI5QgmKQ8HQKNHN2uUhvoFcFIPRBqqjLaXIbnkCATQDTTt8o77b6bgOWqKeA+nIZsKt/uFQcUelaHyiLz1JQMHQI48LOZi17Fg65vtgYk5RxoLoFh2l4EAhu6bDGrxnkWcx4I2cBh3AAkdctwBZMbl5f4iPnyj3gGM1RfBd3Qx4hrcAbyDQLXTxkBAoOTljNW4vh7fpwz00lbx64PZFe8473zCE55Q9vkD0tzdbT21//77J2DPkRxo43POOacMlsCs7VquHXhFHnPMMcVBRBtgmm2ZAFYW91ih2N6rfZ/FD5UWRo1pY7kAuE7HuQUYMomjNza7asvfzjvvXGyaDSLTzrZ4c2L/ZAqIYr5dQGoWYIDocts303Xd7BDbNmi1TSbVpYHQYiTnMLKr/9Xf7Ld6QU4MjmFa2U6zXv/HgvaQFxvFarbX9xtYDclvs6ch1PVRfy/ABo5ddWhQBM5tFt2XV53vIn+H+kanapd1keXYzO/CcqkCqA0sDLbB1LcjQOPMPvVJ8tYG2qg715EF6frSaGNyaTCJ5+ozIMfoqSPazLhON+53yNWoPKQxGPXJnW/w/CjZ9Kxvhmtd38wDFRvH9pGUrjTjvmWW+wnac2RAszREPDvOBhtwE6hIn+fhuuDNVleAG2BTY/CSXNbvM3BgyUxBl7WMk5SLioirvu/pGxwmyW/StAnaSwTaQ2csgH2zq5EmFeStmt4APoo1Lku9kNdFM9L1+vZQb27U9yRoLxFoYyRdapH2tWTbW5ddrxcQZb6rI1MJ2gnam2LKmqCzOqCTbTVbWyVoLxFoWyBps+qu/xj5RujSsrPN1tmy/rL+5iEDKwnadEn1MY+KmEcedZni96T5jnNRpxpJK5zs/JPKVabfPDKzEqAdAGgxw2KdhZc4ABhTI8xTukULp3d6tzIoS5TLWVljAWZo2eSDSbcdcDDu0GVvFMtmj8o+9sADDyzxJti8ss9uDyLcp9nLsnd1iE3BumGUqdai220zvI+sPO5xjyveqOSt/iaWJeqdLbJzBI+q04z7bcFb/occckixS+Y007Zckq+25uhCLrpsxse9Z8h9/YGNt/ccdNBBxRPS9w95NtLojzbv4K1LLpnr+ca47+w/5yX32WKzd2/LNy9Mss9Usn52Ub/nAto6I0AZd6i0ST4sANFzGKj8u9QFGlRlE1wNORQgJylLO613AGRC3AeyAbTua/gA8HZe7f++gd2r74qDgMhjowBbGW1sEAH2eeRxcebCzCMshF+nYA7Fk0wcYgdXYXGJIyh/+3vz/+QskIyI58wDUMS7eosvsiKMqnrn7u7M008fGlrX5Jr7uLClPBF5D4p5AsADLMk1k0M22EK2clPnOm/AGPqeIen0BU41ZI88sU3npu6bh/YHfW+//fYrruy+RT62ZONoE6Dsm8k4e/L4ZpEqDRKej7La+YZn5UZ5+c4FtONj5nkGigaDUYDYBvAAb5U/FCCnKTNB0dCAql2Gvv/K5lsMQEMEzfdL6z2O6CjTlHdez4h+JvCQgEAcOwi32BM6U0Rbi1CWHA8Ezb/wwgvLtk7OCdqTg3Nf2/HUE2FP3QtPWhOVZz3rWc1vfvOb0j7iwIhp7n8dj7ov37iOPQM1cUm4a4uAZwAQvwP7lM5gLZaHMgjXKvqgWNo8CSOfeZwNTgJVkTuDApd83pW8QofOIHhUkkFejAYfEQvliVyoS+V0Frub4wySIaY4F/2LL7647AUZ36Jf8oQ0UAH5Rc8glxK0gRrgxRj6QHDUdQDZFc8jKn2Ws8HAyN/H+keVyz3PmRHUI/cs5Vnks0CbQAuL6b2E1W9Ajsm5hvlh4bHv3iLLt1XeRY6uvPLKAqgi/QGR+tu1AbCJ0ALUVTfffHMjYl2dbtRvgb8wdIBFVr2jHSJV24s7w13eoEGuARmwnyfJEB4VO+ZEFIQpNvcd6hZPrSJEsIGO3PomW6oZlJzVhYGHfHtffLMBz3O+sa4vLv5ixStHV4iAOu28fy8daGsUjQ94xwHgqPvBbDVQzUJmqUCCaDCYR9kA/6oBdxu0zQDClRrrUbeYmOkrFQl9qDSz1Hk+uz07x3CBmJ1WuIi36wgQYb+xWxCi4L/r7bR9/6lcQq0SaTBubStWiWs2/sVUqQ8ijdkX9j3PdjcIAcd631HfTsUBjOPdo84i+UmPPUc66g0EwwDoGlkWIKveYs2g5ZuljefiLH7J3XffvVYfcX29z0sF2jFazwqKAeYB3PMY9QEswI68Zz0rm8FpiKpkvYVgaP5AW8fXMQUQItyYC912BKjXOTAT+k0di87Tgs4k+tSh5dmq6UzzMVyzm66BH6sGdKE6oMbznypraJ0ZfLHOOoa1QEzee9ZZZ5V8gLpIg1QpkS8AFPlxnqBN1dZmu8CUqmPSnWuoPaKsBgGDgfC0rlF5AG1gHGmoY6iFYqCK685kWp2KX77IfrxUoK2hp1U79IEocMRqZ6nUeQ8mUVbfOk/hrgVqPX4DbZ2WEFt8Ag5AHHir53inqeRVV11V7lnQMV0Wr2GjVtujXJvlrG4BZr0tVv1t7T0iraVQjdAD1+lG/Y49Ii0ARjobI1B/xKzKwAyw6oh6Fu7E8p6nXFv0w+hrnbyZgJCzYmBH+UadLTiql3qPSCq89h6R9Nz1HpFUJ2YOfduNGUzIeNfgOao8s9xbGtAGquMW9kTvMuUTTtGiljMTI4wigLDrHOA4rZqEimXcYKIMylKXbccddywRx7rKFNcA2SIbfBZhAdqxEImVmKJj3TXTqvMXJAgjuummm0qnoy6p7+fv7VUfQ+oEa6ZP7VvwM6jawTxChpIx/+m5h+Qvjc2DDQwsJeIZrJOKITZMoFoAqLGQJ50BRSzqeYI2vbJY3rFZgfewWkIayFiUb9QZQAPfenMEs0VM2+YKnjXgAO16dmExHVEh+135mwUoxyL78NKAtoVHbC3ArH0GioCarSg9HltKZzumiNcLzIF6+7n4j21MU7GAfpRaJAYSZbCTBWByKJuyKrPOE+XoOlOTdAnEsl0juLEQKaA+iwL6Pp3Zd/WVF8DryNu2betN0/dsXt8e2McxbQAHjMJmWtsAWNfq+iTb5Jc1SLtviNNNVRCLdJ7T3rXKxIAtX9YdkS89N5loL47G/WnOVC4GqdjmTB5MEc3yqN7qPKlCYUNbJYqlK7tdaCK9Ack3+i7XqE78j5mEaxZbzSjqd8fzzmacW5Jpj2PZBItBO7tMBvHtA0gSPMy2CxRdw5QJ0qRsW+OPYtkGC7bJytAul9CNymwVfxRwY0KzqG9qIVrP3zVoe48A+qaHOmqsrrtmocxgasDSqUyhsbz2fn7rWdbNnLcpPqBg7YDstL+V9QNVCJUUQoCRGzRt1lunRSroqZnA2SihvoeFAiRmfByqDLjamUlcqCSYd2KvymEQlwc9M6CrBwGyLQa1WVfXgl793q7f1kUANJasn9Njm/FhyLV9umdZ0wD0Wi/tOhUO3bXZg0HGc6ECitkEtYiBzaCoL7NJVwfktx6YoowGRSyb+q/+3ri/XuelYNrAtI9lA2wqB8y1DYr1f6MrrzuG/X3APaluG8DrFH35AWKA3AXYddmUnZ3oKDXOPKeT6yUsbdAGCKaPAMTCFRDAWixMYmE6iekz5uW+2ch6lW0r5Ys1qtMAl/a3U1dgpvS1mKUzsKp3TfcMIAJKthurdb3u6UtUJNQFQCnslwG1/igNMGeVAuiobDB85ao3+pXOLH3gW9sAACAASURBVJfssOGWp2uTHPpPqIQAMvkC4oC5vU5ikOnabgyOhPxaPCefvs22ZAH85BeQxzeTXeycLj9mLXW57VVp701rOpOSwTqfSX8vBWjr/H2gDRipHWoQ7PutcTFyDdQFtHTmk4yIGoLAdeUVg4kG7ytPfR3z1PB9ZVsF6woONCwX6sUpXmamlQTbNxJgHUFHx1B0IuZ/2mYVZhOTdqCNSG/mh80CFFYN/rfLYeFNO9C5Am7MuZ2G7Go7gCh9+z63dO1NH85Gm6qETNfpbOqMqUdbk402+2cnbtA2OExrv49dA3z6beXFvs3k6rL4zb4cKHctHJoR08cjE/LB/Ns6cTMKMxWg7pt5lpLd9nvUHdWQARHYt++v5/+lAO0+YASWGpyaoQbAvt/SqcA+tk2427quUZULtPtUIwYT++NNUjYDSh/bbjOGUeVa9ntmNFi1+lkVff2y12m7fGJjAEqgzNyya9B3DeHpuic/g6j+pT/16aBdN0uk/rAg3y6H/9qb2kJf6WKcyoC1YuRIS1ceQ64ZDMiUvtdHvqQxo2gPHJG/5+CDGXJfGrNefRXJ6sILZWDOatCk6170LHkpQHuU1YjO3wfSXdeD0XaxY2y+T/CiUeszAeybAdBlGyC6ytB3zZSTwPWVrX53/p5sCr0V6wvLtch7xhlnFJBZ1jowMFjYDN3xspZzaLno7unTzSq7ZjlD85k23dKDthGxDwS7rgNtrKAPGCcBbUwkQTvBc9rOtYjn6K9N6WdhsOtdTuyWHhw5W+93LSJ/i5pUhRv1PUsB2qZvXSDrGgCmU+oC6PY1i5H0Vn1sdhr1CLVFV9moOcwCxi1CRhl9Ax1cn057M6lHFtFx8h05mG5VGVgK0KZb6mO0wJG+LMBv1NnigBG9C2Rdm9RWm3pk1IBC54XZjypT3KNKoVLpKxu94FYVwvzuBOCUgeEysBSgTWXRB9pAbgg4Yrzj7KEtik1iwQC0DSh9QGtAsUgzbibw2Mc+tgwmfSzbt/ctBKUwDxfmrKusq60gA0sB2sBxlAUJsLOYYRWaCiTYqzPrDaA4DrCpRibRZ0fj08d5tg+4qWKsNCtD25JEWZWZWqTPakS+VCPqIN6Z5wSflIGUgT4ZWArQVjhmM6PYNuDm8cjcBkBit9Qh1A5UIn167ABbao4+M6G+ynEdmFJdRD5dZ4BsUGEdokxRNvp1s4RRgO2b+0yPRpUr72WnThnYmjKwNKANHEfpjwMsgTPdMAB3sLnsUzvEM5jsNCw7OgWwH2WW6D3KUJdNGf0fVzYzjElUNlGmPG/NDpvtnu2+NKBNGAFrn7VGAPCkZ6qNSXXZ7Y5hQDETGKUmmbRc0vvW1GVnJ2zLW/5PmRglA0sF2vMGR6qHadUi7UrDhqlJRqlwJgHuUIv45va78n922pSBlIE+GVgq0FZIIEbHOyurDcDuckPtq4xx1+cF3MH+E7CzY46TubyfMtKWgaUDbQUMxj1Oj9zHbAMUp1l4bFdQ+z/gpm6ZdlDxTVQtCdjZGduylf9TJobIwFKCdhQcS55EJYFdA0V64vUERXnTv1tEHKouqZn/epYt6i7PCQApA5tTBpYatEPoACTw7lukxHrproH1Ii0xgK93encX8wbUyqzsviHBenN2opDTPGf7LkIGVgK0oyKAHvZNvUDv7bxooI6ytM/KBpjrsiVQZyduy0n+T5mYVQZWCrRn/dh8PjtMykDKwKrLQIL2hFsfrXqDZ/kTtFIGVlsGErQTtNNOPGUgZWCFZCBBe4UaKxnSajOkbL9sv3nIQIJ2gnayrJSBlIEVkoEE7RVqrHmM0plHsr2UgdWWgQTtBO1kWSkDKQMrJAMJ2ivUWMmQVpshZftl+81DBhK0E7STZaUMpAyskAwkaK9QY81jlM48ku2lDKy2DCRoJ2gny0oZSBlYIRmYCrTth3jqqac2b3rTm5o3vvGNzWtf+9rmhBNOKDuTG8UFbTrmmGPW7p9zzjnNC1/4wsaO6ZMEdBLP45BDDmk8b+uuZAjryxDsZ6k9tesb3vCG5pRTTil1Lp7KU5/61OblL3952ag42sEemC95yUuaZz3rWSXiYVwfdz7jjDPKO7znda97XbbrkgOGgGfbtm1rTj755Oaoo44q+57WbWyfVvfe+ta3NhdeeGHz0pe+tOzjKo0+bOPrk046aa3NyRgZ0LfrfMb93nnnnZvnPOc5RUbf8pa3lHd6dx2C2f6x5Pb8888v7zvuuOPKloTj8l6l+1OB9n777dd8+ctfbn72s5+V81e/+tXG8a53vas0liBO73nPe5pf/vKXzTe/+c3muuuua77+9a83H/nIRxqVKCrekEoScOnss89ubrzxxrJZ7pBnMs30wL7XXns1v/rVr5pvfetbzec+97nm3e9+d2kn+1yed955zTe+8Y0yGEcdA/LPf/7zzRVXXFF2nI/r487kwHPf+c53mptvvnmQLIzLM+9P3+6j6s4+rM9//vObq6++uvThd7zjHc2ee+651mYA+fWvf33zpS99qWCAvv61r32tgLdNuPXhpzzlKc2nP/3p5ic/+Um5Bys+8YlPNC9+8YvX8hlVBvce9rCHFaD/7Gc/W95DFr/yla8UAAfmBodddtmledvb3rb2DmmkRzANPOPesSr3pwJto+73v//95nvf+15z2mmnFVamE/70pz9tTj/99BLp7qqrriqg/c53vrM566yzmve///3N9ddf33zmM59pDj/88EEVCPyN3nfffXfzxCc+cdAzq1Lxy1jOAw44oPnjH/9Y2gpzevrTn17q3ObJ2vHnP/9589znPnetHdwHvB//+MebRzziEYVt6xyYz6677loG8K4B2qzMzAsQ/Nd//ddafstYJ1u5TMINn3jiic3HPvax5oc//GHz4x//uHnve9/b7L///mtthnkb4IH1K1/5ytKuX/jCFwrAm4GJxqm9ATmMeM1rXtO8+tWvLjM05G9o/T7zmc9sPvnJTzZf/OIXy+xMHt7rXfK3MQlwRjhgDLZ/7rnnlnIp/8EHH1wigoqBT57Jq7P4+wYeG3HXjF25DRS77757SUuuDQxDy7ue6aYG7e9+97ulAhWOyuNVr3pVAe33ve99a6CtoZ/3vOeVD6VSueyyy5obbrihTFvEmh73YQna68Oe+uodaP/hD3/YTmUxFLQxLtPSSy+9tLn22mvLLOzyyy9v9t5770612Nvf/vYE7SVWjYgFTx2BOJlNAUhtW4P28ccfX1g2YKT+1K8/8IEPNN/+9reL+gLYUaEB9Ysvvnhsn++TTWAPsM3+9thjjyJPZuFm/Mq3ww47FGIBl6hr5fPQhz60zP4953kkg1pF+ZSXbMrPb2dkUujnJz3pSSWdQcIMgiybYRx22GGDtQR93zGP63MBbaMcNk1d4uPpQDHtGrQV1sgrjemxih/3AQnaqwXapsA33XRT6VxXXnllYUYGaeBsCttu7wTtxbZvu/6H/AfCD3nIQ5pXvOIVhcG2QfsJT3hCmZlhuECZTtvvj370o2Wwxmyx4mDA1qcw4n333beoToaUQRo6cOALPLFf18zyqV2xf+sxsMfMz/vcdw2JoCa56KKLmjPPPLOk9wyw/9GPflRULaHaQTqoCK21uPapT32qIce+heqXmgfWDS3zeqWbGrR/8IMfFHWHSvRhRla6KjrrPtDebbfdGs+ZJpmujPuoBO3FdupZmTbQpqO2iGm6iXnRO1KlHXTQQdu1d4L2Ytt3XH8bdR/Q0g+3QRsztchI/WE95JZbbinA6FpsF/iiF72osHQYQR4AOEB0nXpi1HvjHjUN3CBjVGvPeMYzmg996ENlvQtBNJNHHMma/1jxC17wgvLML37xi8LC3YdRZvwGD2X+4Ac/WGaW8qUClC8GLh0Qf9SjHtVY7Hz84x/f2JN2GVQkU4M2Fn3bbbeVBsKujFr0oLFxbRfT1ok9Z7qxbdu2sY2VoL3YTj0P0MZ0QiWmw1mQvv3224vVQXTAOCdoL7Z9o96nOfeBNiKGuGGzgI+e2VoX1osRU51KYzETW6dGveSSSwpwU0sMXd9iFfLmN7+5qFmoQAAuIwczd+tlWDX2jnV7PzkEvM6wyQIlpk3FQ51CZQOHALVvszCqzIceemhh6gYX77HuElZTBqFp6m7ez0wN2kY0FfKyl72sLESpvFgN7mPa9F8WswB6THFGfVCC9mI7dR9o020SetZAGFS0mVkVOSDYOo1OqyNp50hjWnrnnXeuLWrGdecE7cW2b133k/7uA239H8BReQJgoKd/Y9NUGu33WOxj6kdmPGfBsJ2m6z/wR/oQQwuMWDOAJm/kyLqLvOnbDQ7MCrFp5QLeTEuBNrYO/GGVAYZcMxEE2ggG4GeF4r78DQ4GATp95YZtXeVb5LWpQTsWIq2ymubovCrh0Y9+dKd6xEq0RcqYPg+ZFiVoL7ZT94G2zkDPRz9t8ScEFANhxhWLz0Dbf/IQaajOtPnTnva0tWtxL0F7se0b9T7NuQ+0yQUdMfa60047lTYGjggdPXDXuwDrhz/84e1AGzDLA6Gj7vC/63nX6NkDVMlhG088C4CBMaDG9NugTd2DVLRBW/5012YIZo0GGOBtEGBR0lemRV2fGbQVlD2mqQUmZnU2mDYTQCOcBjfi6bw69lCj+gBtZmjywOAcGB6AWVQlbZX39IG27zedZPKFHWkDuj96SWacAeTa9q677irTVQvNRx99dAFxC0gWeNr1mKC9+qBt0Y9qBAgfeOCBRffLOsPaFUYM/JjrYchkgFzQFWPiAJWtf8gFKyOqllhw3GeffdbuIQ6AGfkDptgyHTlWL1/3qS/onS2esgAJVQk5MxAMAW0mjGT7yCOPLLhGLUOPb2BS7q4F9Sj/os5zAW2j2rHHHltGIyOsD1eZbHDvuOOOslhAl0335J4V5SEfGKB9zz33lHzo0B2cbSxCDMkj0wwHhlGgHY4L1FsWnG699daiTzSlDEsgoG2g1tYWf6QB6gBfZ2u3RYL28LZp192i//cxbW0PaA3o1rYcZADQWbyjWsNQ4QLS5j4ZIisWFDluxbdQrWC1ZIfFxpOf/OS1e4AYaFJVmPGZ0cEYntfhOGPx2yKi+wik2T+2zx4cMx8C2vwQ6NzpweGMg+oX3hhgVtZ6hE0k8LVCGxXumv8qkX2kkU6jGGFNTYxeRkjqlHhm3NlKLaGQT31YSdbA457P+5OBwijQxmQe85jHlFkOnSFzKyac2tQ9da0jYl3sZDEwtrFYFq+6rlX3BO3J2mcj5VnIAn0O+wWgURbsFhslC5xrLDSaiWG25MLht2txX//FytuhKeil2VKTL3gBhOM9PCtZnMmDbAFXZanVIkge/DHzI5+IJCcvZTT7J78GArpxzjW+h8kiTQHDCIyd+gN2WbvhKOhd8Kv9rijXRpynYtqzFpQJDcW+1dtRh8ae9V35/HBgANr/+7//W5gSNYjpZbv+gK+BF+NoAzHQpvujvjKbcnTpJTktWBzCqNIjcnj7tNtimf5rZ4zX0dXmcZ+HbJ8VBnkiVwaFLvkCypg7uQqi0K4Dsul55WjLZztt33/PGSQMCN7VV96+59f7+oaANrdRsSyAwqjD6L7eFZD53wsa2Ad9JDWWaeakwZxq0B5Vrxi2Qdt7nEelzXv3tk/WRdYFGdgQ0DZKMhEzFRl1LNsIt9k7jXap26Oeng759gsuuKDoA001R6VnGRDvoUoblTbvJVClDNxXBjYEtLMR7tsIm6U+rNzTU5rGbpZvyu/YnLK6yu2aoL3EAXtWWbCy7Al2KQPrIwMJ2gnayYpTBlIGVkgGErRXqLGSuawPc8l6zXpdJRmYCrTpLFmAcLhwiITF/bTWZVrEivtM/Cw4hRH80AqyEMm2srbFZDrEnpNtZS5Uzrezab9oM/WujbUVEyhOELzB6jZk+2pBkR12l5lXXzuTl3gP2ehLl9fn277T1qe2ZUanD1uzYA7XlRc5IQvat3aa6UrbvqYvy1sYDLb/znw/oo8rQ9wP2SGjcKfP/K/9js3yfyrQtt0QF2ZeSTyU2NyKMcGYHcCqaJYE7nNnFdRFRC8+/oBgaCXbrYanVR2kCHBwlefqqtE2S0Msw3fwYOPByKORBxuPM+XSYQXoEavhiCOOWKtzzg7aVaS0iDsx5Du0HbnxHvIx5JlMszEAbiDnPMOrkZeiWCOcU7raQ98UU5uDFXnpStN1DV5wYdevPctjktu4/xxe3EcOvBuWhNyQIbLnXle+m/XaVKDNpEtnU7li03KWCNdSnlERe4S7s/gC4hJwC/VfjJKh7IpnEmcPnknRAEZZAwT3Ut5McT3Ps3dqzjWcXdhbCx7Pq0y9Dt25RucyIGNc3NYdXQM0+2+DOvBO55rZ2229ZB+j1geFKtDXuaCzra93rol3I2uAHVETU1v0vLg37mzWLCqfWCKIgY0UbBkmPonr7iOKXMkB9jXXXLNm4897EgMnc2RNmTnEhHONs6OeCUoLo8gnZ52+mcO4cm/U/alBO6L8KbjK4tfP3x+IB2ir4IitzJ0UGPCC4xpaq1L6Pj5Be7Edus+NfSho29lDeE6Boriwkwmzr3RjX2w79vWnSa9rNyEJAKhIebxkxeVog7b+r50BLnIGfEXPG/o+LuLyFeuamzpsAMbe6bpofWZ14pIggXX4jHgH1Q23dN64wsUKn0EeRZwUAgPBA9xAWn5c6YWOJae2VDN7WIa4IvE9o85zA22szChrJO4CbYWgHsHIecEN8XZM0F5sZ58VtA3KBnPTVgO44F4GacGGqFjagpixRxbbvu36H/KfIxQdMzAF3u2da+QB8ITnBbJ2gqHCmAS0zZ6pQmzxRd0hfgjZMBNznRpU1D0bSJMxICx2iRl7xDIC1soHg8icA1P3nyzK17cgFSKOmjmYrZs9UAWa/fEIHlInG51matDWMTWOEdaopbGMskavPtCmt5JG3O2u7afalZGgvdhOPQ/Q/s1vflOm0zqUDmJNwn582r7dvgnai23fdv1P8r8vyh+DA9vLAVihKagzgOUkoE2tJlAUFg1kReejfgWu4rBj8gLUWT+JGT7wpmoF1hY9neERtq6sfmP88Ij6Vt6A38zBGpwwDWIbOazTYOLKMUmdbFTaqUGb6gOTUgFGLWEXhUHknt4H2jqyxlCxQ6L0JWgvtlPPA7TJRb1wbOZFx5mbICy2LecNKF2gTY1B/Ynhillj0VAM7UlBWxApYU+pVpE6DDjCqm7btq3opIErwCVPdNtYPdxxBvjPfvazy1Zk7mH+AtEBdsTBNaAt4qQwwQYYGKSsBgMMe1UAW7tODdqxEKmxsG5HbNbbB9p0TEZSCwn0WOMESxoLkRor0tKNY/XULKZtcT3Ps4NCH2hjMmImm3IKUxl1bZaF+WBAdIo6idV/YTgjDcaV243N3jZRnxt17gJt7FRfxGipH2zRRfWpj2PJANN6yLgyy4d8IYB02PTQcEXESPLDqqmdB3KIaQN3i+YGDzM6oA4j6NfhDNAH2ti2tRaqGHG5r7vuurKoCbxtqCBdqFra71q2/1ODdkxTxJsQv9aoJ2Kfldwu0FYhTHbokDTQEBMxIyDrgnolOswNBSafNKDRslX+spWnD7S1p+2k6AbDokTZLfZgRjquBR6grRPZBTu+TSc0IzM1jWtxTvXI6oB5F2gbnKk6gTR1BDM9GyBQkRngmf/pr9HemLl+D8hZcMR1TNnAD1hjwHfGjl13P9LWZ2oZ+mgzfGSiDdp04NSwNWh7njWJjRHosbFuWGZwYNpY57+sv2cGbR9GjWFUo7/UkQO0NaZVYKu9VmlVsAqq2dqoimGSY6qEvQlezuDeRqCAQmWPejbvTQ4IfaCtLln8xA4eVt/Z0DMFY9fNREsaoM2s0+IR21kMCqMxC+taw0jQnryNNkquu0DbOoV+jYQBTge1hD7L0sTejRxtlJkZHlUEVozkkY34FgM6yxBqFouMFgyxdvKEsbtPtUqGqEmAPhlEFmAKNYdNEcaBtgVOs3PlNjOUD3yCJfIaug1ilHujznMBbSNogKlpidGVY8avf/3r0mmNxsDaNIrRva1/hnww8Dftoi9XsbHBJr2pHTKG5JFphgPDKNA28GI+QFrnwoqoyLStzqCedbJY52BLLz12jsWEd2XdHgnaw9umrreN+N0F2l3l6NNpA2KzNTNyrLyejVF/GOgBPXkCoM6sSczOAS1VnFkbnw/3yR888Z9s0mmPA+0TTjihLFKGXtyZLMd7VsVZbyrQNo0wqqroaDjXrB5bTGCOY9XWIoGRV+dV4SptiI4r8nRmGmgkl5dGxejljYXX6fL37AAwCrTZsNoCimmXAdQBmNm4hn0r0NaReM5pL52IiRhWXjs3RFslaM/eZlGX6322kMwyBHvGevveBzy1qxl3nYYaFYsGsrCgNkTg3EJdAaCBMRCFGdQXsWkvlo2lA1lyBdQROuWi7mA7Do+YJhoglBWjp982G5AXvTVGToa9Qz7e573eX6ts6rIv2++pQHvWj7CIoHKB/KjDFMa7VKbplanWKq3yzlpPi34eaFtDMFvisaiN2mVgfsXpQsfwu74PtGO7MesR3JrNluo0flsIolLRcdIjcnWAu92Ok/yPPozcIWJd/Zg8WfTW74F8e6D3jHUssiUuSVv+hpRHOZAM71COafMZ8q71SrMhoA186UONcqMOo+R6fXjmuz1Y0BfSP5vRYDRmU5PUUw3ao56jOsOUvId52Ki0eW/7dso62dp1siGgTbVhUcJUZdRhtE0BXZyAahcqLG3izGRrkvpnPWTdYdxz9JPR7qbTk7wj0y5OHrKul7OuNwS0UxiWUxhmbRd2sAKGmb7Omlc+vzllJNt19nZN0M5NEBJgUwZSBlZIBhK0V6ixkqXMzlKyDrMOV10GErQTtJNlpQykDKyQDCRor1BjrTpDyPIny00ZmF0GpgJtQVeYg9lyjBE8DyWeUEzGNAr7STa+7jtYFLD75SY6iW2ltKwMOGt0edSlAMwuAHUdChPABDPalVOT+2zkOUYw02TLHc/wfOXtKKAXe9e4Pu4sGFDIhtgS49Ln/fm286T1KRY6ayIejTwjwzW9zodDnT7OlFPoAg4rtfWX2DSshjjfcczS/jYrIFt1PuN+i20kUh+541VZyx3MgUchW3Hm0EN+x+W9KvenAm2xRni+CQqjYjRShEnUeBwquIjeeuutxRZXJC2BZLif806qG3NURXGP1/gC0Oyxxx6bptJHffNG3uMV9rvf/a60pyA7op8pj46ik4j5UpvoiQnBmUanmGRQ5RHHVltMmbvuuivbdYlnexxQeBbq7/ow0G1H6GQxxK6fjT+CxfRTTA9ATX70d4Aqih8XdrKFEBgIeDMOlXmOOQYGMY7ENeIhWcud+DjKYeBw8MoVwEy5DThD37Ps6aYCbe6gGkiHxbyEXBXRC4ir1DpglIrEsAWA0WCeGxowCmir7Lvvvru4Qi97Za56+bSluuatiEVHLAahB7gMG5jNfOI7RV8TsEc0tfBSY+vNLZlbsfy6dqwRa4J7MgBIj8iNZdHRll3n2G6M5yrQ5gjV3rmGjCBoBmCzbe0OXHkcminzYtT/OV7JB0sWLMpzvBvbXo9d5XBNADLYAnOUxeF/bV5qgEEoEUcHE1RhL5RNbCQDhAEE0COBPHYREhoC+dR7RZoBiHkC68gruV4WN/epQTtCs6pQH2OqY/SjKgnQxqxjj0gVJpRihGblyt7XQHE9QXuxHRrI/uEPfyhxGqINnIeCtrY3PRWiU7Q/cbQN1JxtutyWM/bIYtu3btMhv4GYaHpmV2J5YK9t0EbAqDvMnIBbG9hs+Et9RiYM/F2D+JCywBTxSoRsRSrEDWmDdp0PV3UEgxbATNDswIBBHYc4Yt8GAPn47RuoW2COAGiIiJj9d9xxRwmChrXLb9ry12Wb9fdcQFvDaNSI6NYF2gqq0gE7vamp+LjCJ2gvtlPPCtrYFHWHKbKpr8BeBmlrGl0bViRoL7Z9x/W3rvuAGwAiZWLStEHbDuzUHtrcWoU0VB+xIQqds80KQi0C3LFfrLwOz9r17vY1eKAs3jkOtDFo625YtvTYtQijZgtUKMoqSiUwNlMA2gYDWgPlNSugHqSH9+10+QalLvLRLud6/58atLFo20hpJFNk+muV4cP6QNv0hY5JBYmPPe7jErQX26nnAdpYCyHXdnSamI3BXGdot3eC9mLbt13/k/zvC81Kfal9HQBQe4u7ro8LmUoFYgYmZC/CZmDH2K2PiBLZtXfouHIBYXFr+pg2lQuCqAzeJUKgcNAYP7AndxFH2yBEhWuGSMULpO0fCeyBtoiGtkMjy8sA2OpmJtDWED4OYDvTC6mwPtCmJwX2gJ7OaVzjJGgvtlPPA7Qxqth9RPvadSi3G1tsO47rV9Pc7wNt7BRIY66YMz24BUIqCIDuP/WE9S7/7VxDTxzsVqjXScszDrSxcdFDkUnlM1sA2meeeWYZWICxNTaADsBPOeWUAtqso+jkzRIBPnyDVwYHgws8mrSs65F+atCm0zaFANQ+3EYFYtYqZB9o2/uNnsg+cl1mQ+0PTNBebGfvA21Mg/BjU7XpFHA2c7K7iOkoFmX6KcZ2tCXQthlG15ZRybQX277RJtOc+0AbANINA8lYp5LWQqGFZush+jsVisVA72YyDAjhB8uUScszDrSxY7KoXHZpl38XaCOPrKJq0KbDt4D6yEc+spTX7MH6jLLaGHgSa5dJv2to+plA22jkRTokpm1kM9q2Qdu0wgjLPJBKxXRkSAHboK0yHdh8e8FjSH6ZZjRI9IG2ejMgG3B1zmiD008/vexko3NKo6OwMNFptY92os/2nN222/WfoD26Pdr1tZH/+0CbmoGqggwgcNodEMMC7ctaA8O2EGndi0zACHpj+FFjAblC5liA8Bnwv+ubx4G2PJEJgwXCIY9JQFsZHZ6z8gqMawAADMNJREFU8GiAUX4zCOXqKtMir80FtE1HLCxYdLIrBP2PBQfMTMMZjTEw9tZsOMOUbNyHBmgzC9PgbLwdNpe1i8q45/P+ZKAwCrRNGU156SK1Ab01Qfbfb3UNtJkMGpzZcGNWZmD0nLkQOVlbLJvs9oE2ADYwA0mbW7AWw0r1d5YlVBNkwTXyou9SU2DB9Mh2nolvZRpo1mbgl2e9u02kcR4F2kzzqGNoApQ5nhsK2tg0jYCDGodenurHTIFOPDZmiXw34jwVaBsJVbpOGoWmo2YVomObkgBvHZgJmemxkdcIzDYynhl3BtrAWj718dvf/rY0+Ljn8/5kQDEKtA3EWBWQ1qYOC0tW5HUUdU0eAthZkWgz02SLkF2sKZn2ZO2zkfIMxFh9MNtrO9ccccQRpe9buyAXZATbBdjKTHbokM3GOW8hb1g2gK/lAkhatPQ8B5ywQGl/N6sk+mizvtq5RjrYA2CBP8OHeNZOS/aVNVCYNZ544onle2xRZms0QE8eqfYwdATUt/z+978v5JMlSpdJY+S/yPNUoD1rAalPMC8OFqOO+9///muVPus78/nxAAG0AS09tI7ZxY51RJ3BbKm9mg60Q4/IecHR5aZsz0i6Q6v06Vwzvl1WQXb1abpqjjVdel9qE4O7+1QgCFn7u8gT9QMCSC/dlq92+vX6byChnzeLANTWa0Jdsl7vnCTfDQFt24gZ2UyXRh3pur7YDg1IMWTTUzMjKq5JhKkG7VHPYVkYOfUZdjYqbd5brAxkfS9/fW8IaBvF6LbEFRl10EOlEC1OiLQLdZQ2cbaqPkn9010DZB5lo54zvY12txYyKm3eW1z7Z12vRl1vCGincKyGcEzaThYo6QvZ40/6bKbfnDKR7Tr/dk3QXuIIaynw8xf4rNOs01WXgQTtBO1kxSkDKQMrJAMJ2ivUWKvOELL8yXJTBmaXgQTtBO1kWSkDKQMrJANTgTYrg5NOOql4CLEE4HQhOhYDdiMpm0aeTjyIeD8xtBeLlqnfJPaObDvZDnv+QQ96UArWOguWiGzaS7tpV/GFtSebWo4OHCzqmDEcG3i9CTYf7sJDmJQgQd7hsHg55JlMMztDm7QOH/e4x5VYMyET0WZkQ9yZ6O+RLznh/ah9wzFGH7aBAXzwvJj6+rMY6+yf49khZ/JJ1uTD+5KDDHvu2kEn8uHQ4528coeEgY7nVuE8FWiz5+WWKgynIOM8kPzno68SOWCILcAOlzur+9KJ7CVOSZfxfVdlyYfHnXy6HD26nslr03dujk5iw/BitEWcsJXq04DJBJDjTB0+gKcjzzShCSZx7w3TQK7GN95440QdN9t3+vadtO6AHlt97R7+FOz3r7/++uJxiFDVeQq3rG1FxgPO7hnMhTkQ2oBHZBzSIQVDB3sx+3ku8soUSZKMCrMKvCPmSZSFU46yCxUt3WYjBlOBNndTsQYEETfqCqQiaAwQtxdcBIwSKEi4Qx2eW6n73EiHxNLWAEZuwWZ46fGii0bJ8/p0XJ3wj3/8Y4m1gKFEhLShO9fogOLQYD4Gb4f/7fbCkMSFsDtIekSuT1u263ya/5zbuJ8LPxEHEAfK3M2Rt8iXlywXd32cc5boee7xiOWTgQAwByVXMMGAjcTxOIw8Rp2FzvBOA4i8sX/EAlkUF6eWM9uHCaMhHKyyei/GjwQijDZmwP6dlQ/hwPprxg7D+InQDkjLO1seo8q4qHtTg7ZK50ihoFQepjzi6vLbD9BWYbHdmA93D5AbhSNexagPTdBebIcG2uItEPK6XYaCto6kbbnBG5wxHR2ZO3CXWixjjyy2fes2neY3F3MbBej3yFrMrgAmYBbGFCM3uw7QBnTuR0gKv20ELA+sGQEcUhaDB5AG3OQUAHPQwtyRxlC1AGUBpczs3TPLJ8+i9VHZ+m0AkQ/ZVE4BoZwFqALcBiPpeG3z8lVOMUqUdaiWYMg3TZtmLqCtQeiZgLadtrtAWwHpwYzCKoO+bFyhE7QX26lnBW0CTpVl2mr6q5MZpKnNDNrt9k7QXmz7tut/0v+CKWljW4sJEgU45UGPrb1d1/+pLwK03QfcdMzWQ4466qiyDRjGbFuyeo1kVHmoSc3mDRrBzqld5INVC/3sebNDcbLN7MW2CdDGmg000ofKVmAq/6Vxji3QqFww+NiJxzcDeqC/0qBNPWIre+oLH+SjjWymKn2gDaixb5URCxWjGipBe7Gdeh6gbRcj0dd0Ip6ROoRZWddORQnai23fUX1t3D3GB9imAVmfFxzKM9QH1q+uvfbasgBpplUzbWmozWwOjN26BzuEXhXuoGsG1lUWQEqWzOK8UxrGEJg9EgiUqXO8A77QfyMLcAlrdh/w+28NRn6epe7xGzBj3tZsarCn9hHkynoPdcoyqEimZtrA13Y8PtxikjCd9JTUHn2gTdcUm2kmaC9fh50HaAPoUInpWAZ0coJhtTtjgvbyyUC7jeI/Zo1JU3lpX0DssBEGkNSWIj9iq23QNhO3aA3sMWCL1w4AH+Af7+k794E2EJYnxk5dAtidhYCOzQsCtEMPrhx2ZjfQAGqMnTrP4CN+NkaO1ZsxUJ1ISzW0UVEH23UyNWgbLUVq84FGKSvKFpi8oA+06bKoUFI9spydtQ+0DcQYjoWdaGPtbCpKBnRmzJoctPeINE3OPSKXs73bYND3n+UG9SeVAfVHxNNmtscqxIybesQCIwAXi5pOmZ471B90xVQL/jMdDeA2M+97b33d+7F8IBuqVYuaSKMNgg0k3mkhFNtWTsBLPUddoiyAX/nqPSLJdXu7MfkzqBDTm/bAICQ/GwSb/dfl2ojfU4N2LERaWPDRmLdOa2+1LtCm07IlkZ1MjIS5ELl8HbkPtDEMbaYD6DwhqBiKDssKAJvS/v7X+0i6x4yw3qEknk+mvXwyEG1Tn1luYJwWD9lgx6If9QY1B7M64InlIm82ObB2ZeOAruBhNs+llgCqZCjeRfVADUP94VyrIoIZk6ewWsHqgSrdOJkDzkiEciiPMtiAxeweOFPb1aDdt0ek8hhgWKxZAMXCMXqyH4uvUeaNOM8M2grNtMs0GBNj3hegbdSzkmtk1ejUKEbYrv0Cuz4+dNrM0DSarYAc9E6bzWC+6/sXfa0PtJUDq6EC03G1AXUHkz2dNMKrAm27CtEZYium1BZ7dM5gZ/U3JWgvP2hjyNreojKgpT4IMGUfrY3ZW9MvO1iIkRMqC/0cicOmzdCoT6hDgB+wBZrsqUMmADyVBhWMjaTpkeMelmuGTpawZvIXYApY+XEYRKIcrkmPTJJH6ZktjgNt32NhVdmpWJQXyzYIYOqT7LwVZZ/3eS6grWGpPjSE6TFWpYGBLZZFJaLyVKIp9RCW7UMDtO+5557C0IG+Q35WjOddGVs9v1GgbT3Cyr26x7hZiRiUdYgAZKCN3VCdAetIw2PWIk67fhO0lx+0WWpQewBLg3N7e692m7Z12pgpuQHk5MUg7zAI2P7LAmHkweQOc0f+qNxqfw4mezF4yEcackaGAHZ7QZNDWJdOexxo89xW3nAiUlazR9gFzOnxo7wbdZ4KtHfccceyl1od7N41DNioa3Q1UvFEYr+t03J33nvvvSf6aCO6qZB86sNIy7Nyoypts753FGhTkejAVuXNnnROU1JsKBZogLaB2wKTxR+zLgxLxwx2VtddgvbygzZVCHaNERu4w8yvbsf6N5UCSxGy5Dr1KfANnTK2Cg8AYNsM1LqIZy0YdrnJGwBgjPvkiyyyGOnSMysnNQwyicFT35FfzyMZGDQMUU6/MWxsns7doqnykl/lpcKx6bCBo/7Wjfo9FWjPWlgVY/S2EfCog6nNrO/K54cDAwH+n//5nzIrsrKujdr1B3yxDZ5kbSAG2nR/ZlME3GEW1s4Dm8J4sJj0iBzePu16XKX/BnYzbEcf8JMncsWZq0u+fC9G7d6ofGatF+Wg4iW/3mNQaMv6rO+Y5fkNAW16ITafFhVGHbHyPMsH5rPDQYFNKkC1aq5dMOZJ6q8G7VHPWaCy4u89jlFp897w9su62hp1tSGgbaQFEHRRo46uaU8K5voJpvo2u9EmzhaaJqlvK/QshMbZ4Fu4jnYPR4lJ3pNp108Gsm6Xv243BLRTMJZfMKZpIzMog/EyLNZMU/58ZnPK5WZr1wTtdY5RvdkEJr8ngS1lYGNlIEE7QXsiFUh22I3tsFn/Wf8J2gnaCdopAykDKyQDCdor1FjJspJlpQykDCRoJ2gny0oZSBlYIRlI0F6hxkqWlSwrZSBlIEE7QTtZVspAysAKyUCC9go1VrKsZFkpAykDCdoJ2smyUgZSBlZIBhK0V6ixkmUly0oZSBlI0E7QTpaVMpAysEIy8H85u6sU4RDt3QAAAABJRU5ErkJggg==;" vertex="1" parent="1">
          <mxGeometry x="440" y="908.25" width="147.46" height="80" as="geometry" />
        </mxCell>
        <mxCell id="6bSPFQIg_zKgYMIiMJCl-47" value="" style="edgeStyle=orthogonalEdgeStyle;rounded=0;orthogonalLoop=1;jettySize=auto;html=1;fontSize=18;" edge="1" parent="1" source="6bSPFQIg_zKgYMIiMJCl-36" target="6bSPFQIg_zKgYMIiMJCl-21">
          <mxGeometry relative="1" as="geometry" />
        </mxCell>
        <mxCell id="6bSPFQIg_zKgYMIiMJCl-36" value="" style="shape=mxgraph.signs.healthcare.brain;html=1;pointerEvents=1;fillColor=#000000;strokeColor=none;verticalLabelPosition=bottom;verticalAlign=top;align=center;fontSize=18;" vertex="1" parent="1">
          <mxGeometry x="178.39" y="720" width="98" height="85" as="geometry" />
        </mxCell>
        <mxCell id="6bSPFQIg_zKgYMIiMJCl-44" value="" style="edgeStyle=orthogonalEdgeStyle;rounded=0;orthogonalLoop=1;jettySize=auto;html=1;fontSize=18;" edge="1" parent="1" source="6bSPFQIg_zKgYMIiMJCl-42" target="6bSPFQIg_zKgYMIiMJCl-19">
          <mxGeometry relative="1" as="geometry" />
        </mxCell>
        <mxCell id="6bSPFQIg_zKgYMIiMJCl-42" value="" style="shape=mxgraph.signs.healthcare.brain;html=1;pointerEvents=1;fillColor=#000000;strokeColor=none;verticalLabelPosition=bottom;verticalAlign=top;align=center;fontSize=18;" vertex="1" parent="1">
          <mxGeometry x="320.29999999999995" y="720" width="98" height="85" as="geometry" />
        </mxCell>
        <mxCell id="6bSPFQIg_zKgYMIiMJCl-45" value="" style="edgeStyle=orthogonalEdgeStyle;rounded=0;orthogonalLoop=1;jettySize=auto;html=1;fontSize=18;" edge="1" parent="1" source="6bSPFQIg_zKgYMIiMJCl-43" target="6bSPFQIg_zKgYMIiMJCl-22">
          <mxGeometry relative="1" as="geometry" />
        </mxCell>
        <mxCell id="6bSPFQIg_zKgYMIiMJCl-43" value="" style="shape=mxgraph.signs.healthcare.brain;html=1;pointerEvents=1;fillColor=#000000;strokeColor=none;verticalLabelPosition=bottom;verticalAlign=top;align=center;fontSize=18;" vertex="1" parent="1">
          <mxGeometry x="464.74" y="720" width="98" height="85" as="geometry" />
        </mxCell>
        <mxCell id="6bSPFQIg_zKgYMIiMJCl-50" value="" style="rounded=0;whiteSpace=wrap;html=1;fontSize=18;fillColor=#b1ddf0;strokeColor=#10739e;" vertex="1" parent="1">
          <mxGeometry x="600" y="680" width="210" height="150" as="geometry" />
        </mxCell>
        <mxCell id="6bSPFQIg_zKgYMIiMJCl-72" value="" style="edgeStyle=orthogonalEdgeStyle;rounded=0;orthogonalLoop=1;jettySize=auto;html=1;fontSize=18;" edge="1" parent="1" source="6bSPFQIg_zKgYMIiMJCl-52" target="6bSPFQIg_zKgYMIiMJCl-65">
          <mxGeometry relative="1" as="geometry" />
        </mxCell>
        <mxCell id="6bSPFQIg_zKgYMIiMJCl-52" value="" style="shape=image;verticalLabelPosition=bottom;labelBackgroundColor=#ffffff;verticalAlign=top;aspect=fixed;imageAspect=0;image=data:image/png,iVBORw0KGgoAAAANSUhEUgAAAWgAAADNCAYAAACVQ+o8AAAAAXNSR0IArs4c6QAAAARnQU1BAACxjwv8YQUAAAAJcEhZcwAADsMAAA7DAcdvqGQAAGWASURBVHhe7b13dBxHlqe7+96eme6Z6ZajJJJwVfDeAwRBkAAJeu+9FSlS9N57UqIoUZQoT3nvvffee6+Wl1rt3fS4s/v2nX3nvvtFVRayCllAFZKSSlT88TtAZWSYjKz87o0bURn/LTs7W6ysrKysfngVVAyQhvF7pWFCSBbQVlZWVimiwrJWaRx9hvQau1t6TdhjAW1lZWWVKnIAXT9ml9SP22UBbWVlZZUqAtC9FdB1CujaMTstoK2srKxSRQVlA6Rh9B4F9E4LaCsrK6tUUn5ZiwGzIwvoJJSXlydlZWWSm5vrmW71w4j7kp+fb5Wi8rpnVt6ygPahgoICqampkerqaqmqqrJKEXE/rFJLhYWFEXk9S1besoD2qdLSUgNpKyur+LKA7pryy5qldvQOC+iuyg1oPIXy8nJzzOqHE/fA6odVRUWFGc1YQPtTBNBhWUAnKYDgfAn5Pycnx/M8q+9PhJ7cQLD6YcT8jAW0P1lA+5QDaLxnr3Sr718W0KkhC2j/soD2KQvo1JMFdGrIAtq/8kr7S/XIXVIzaqfUjtpuAZ2sLKBTTxbQqSELaP8C0FXD96p2S/WIrRbQycoCOvVkAZ0asoD2Lzegq4ZvsYBOVhbQqScL6NSQBbR/WUD7lAV06skCOjVkAe1fbYDeo7Ix6KRlAZ16soBODVlA+1cboEOQtoBOUhbQqScL6NSQBbR/RYc47Pugk5YFdOrJAjo1ZAHtXyFAE97YobIx6KRlAZ16soBODVlA+1deabOCeVtYFtBJywI69WQBnRqygPavvNJ+BsyOLKCTlAV06skCOjVkAe1fFtA+ZQGderKATg1ZQPuXBbRPWUCnniygU0MW0P5lAe1TFtCpJwvo1JAFtH9ZQPuUBXTqyQI6NWQB7V8W0D5lAZ16soBODVlA+5cFtE9ZQKeeLKBTQxbQ/mUB7VMW0KknC+jUkAW0f1lA+5QFdOrJAjo1ZAHtX3klfaVi6KaQhmy0gE5WFtCpJwvo1JAFtH/lljRJ+eANEVlAJykL6NSTBXRqyALavyygfcoCOvVkAZ0asoD2Lwton7KATj1ZQKeGLKD9ywLapyygU08W0KkhC2j/soD2KQvo1JMFdGrIAtq/LKB9ygI69WQBnRqygPYvC2ifsoBOPVlAp4YsoP3LAtqnLKBTTxbQqSELaP+ygPYpC+jUkwV0asgC2r8soH3KAjr1ZAGdGrKA9i8LaJ+ygE49WUCnhiyg/csC2qcsoFNPFtCpIQto/7KA9ikL6NSTBXRqyALavyygfcoCOvVkAZ0asoD2Lwton7KATj1ZQKeGLKD9y7wPesgmC+iuygI69WQBfWRUVFRkvt8VFRXm++18z8vLy6WkpMSke+VzZAHtX8aDHrLRvLDfAroLsoBOPVlA+xcArqysjAA2VnzfAXdxcbFnfmQB7V95pX2lcthms91VxdDNFtDJygI69WQB7U/AuaqqKgLXjgTEOd+rHAto/7J7EvqUBXTqyQK66yJs0ZHn7CXO9yrLAtq/LKB9ygI69WQB3XURtnCgmoyAcWxZFtD+ZQHtUxbQqScL6K6JeDLfYweqyYh8sZOGFtD+ZQHtUxbQqScL6K7JDdSuKNaLtoD2Lwton7KATj1ZQHdNXQ1vOGL5nbs8C2j/soD2KQvo1JMFdNdkAZ16soD2KQvo1JMFdNfkN8TBsxCvPPdxr3tm5S0LaJ+ygE49WUB3TUwSOkBNVnz/7SThkZcFtE9ZQKeeLKC7LrvMLrVkAe1TFtCpJwvorgsvuis/VPF6L4cFtH9ZQPuUBXTqyQLan5L9qXe893FYQPuXeReHBXTXZQGderKA9q9EPOmO4IwsoP0r8j7oIRvMa0ctoJOUBXTqyQL6yIiwBZAFxHjUfMf5y2e+915hDbcsoP3LvrDfpyygU08W0EdWgBhPmdAHfzsDsyMLaP+ygPYpC+jUkwV0asgC2r8soH3KAjr1ZAGdGrKA9i8LaJ+ygE49WUCnhiyg/Su3uEnKBq2XMgvorskCOvVkAZ0asoD2Lwton7KATj1ZQKeGLKD9yw1oZAGdpCygU08W0KkhC2j/igA6LAvoJGUBnXqygPYnltLxvQaw/O3oxygdyQLavyygfcoCOvVkAd01sc6ZlyXxXXbA6ny3+XFKvN2748kC2r9YxWEB7UMW0KknC+jkxfc4FsyxIp2X8tsfqnx/MoAm/mwB3TVZQKeeLKCTEyDtDM5u4WUnAmkLaP+ygPYpC+jUkwV04krEc/ZS7PZWXrKA9q9QiMMCusuygE49WUAnJib/ugJnR53FpC2g/Su3uFnBvMUCuquygE49WUAnJjdAuyImDjsKdVhA+5cFtE9ZQKeeLKA7F2AFsA5AuyK+8x150RbQ/pVb0lfBvNECuquygE49WUB3LsIbie6aEk985/n+e5WPLKD9yy6z8ykL6NSTBXTn8ht/dgSEvcpHFtD+ZQHtUxbQqScL6M5lPegfhyygfcoCOvVkAZ2YWM/sALQrAvAd/QzcAtq/LKB9ygI69fRTArSzDZVXWmdyvrtdFYD3KteRBbR/GUCH32Rn32bXBaUaoHNycjyP/5R0NAMaGAO+2PAE379EN3N15GclR2feM7KA9i8AbXdU8aFUAHRubq754uNN8VDQJv7Py8v7SQL7aAU09zWRuHEyLzbqSiya7zpt8SrPLQto/7KA9qkfEtDA1/GCqN95GBzx4NE+AO6V/2jV0QhoYOd1j+OJcxOFNOclCmnKpS1e5cTKAtq/LKB96ocCNHB2P7T85SHjL8B2/ncekPz8fM9yjkYdbYDmO+a+l4mK70Ci8elEPGnSE/GcHVlA+5cFtE/9EIDGI3bg7IA49uHiGJM4jnfN/4DLq7yjTUcToP3+4i+Rlxo5oi6+z3xX3N8r6uf7lijsHVlA+5cFtE9934DGc2ZISp08ODxM1O08CLFyHi7O4WH9KcSkjyZAA8WO7m9nIq9XuR0JUFOvIz57ndeZLKD9ywLap75vQBOqcLxl4Ow8AB2J851zeeC8yj2adDQBOtF73JGS8aKPpCyg/csC2qe+b0A73jP1xYY1OpLjaeNRH+1e9NEE6GTucTxRhlfZ37UsoP0rr7SvVA7bbFQxdJMFdLL6PgENWPGGqC/ZuKQb6Ed7LPpoAjT3LfZeJivK8Cr7u5YFtH/llfaTquFbIrKATlLfJ6CZHHQgm+yDy/lOnqM9zGE96GhhzL3K/q5lAe1fFtA+9UMB2o8Ik3iVf7TIxqCjZWPQP15ZQPvUjyXEAdhtiOPHJ0Y7yY6W3CKvV7nfhyyg/csBtBOHtoBOUt83oN1L7JJ5cPHEALSdJPxxiSVufrzoH8p7RhbQ/pVX0lcqhmyS8sEbpVz/WkAnqe8T0Aj4OJ5wog8uUHY8b7vM7vsVgKXvuWd8R7gXfGe8zo0njHIyxtgRdXK/vcr8PmQB7V9mmd2QDQrpjdaD7oq+b0Dj/TpffADdGaR5SGkj7ePcVPKeeZkT67qPpLg+AA2YjrTckElE9LtjTGMFtJP5AQj3PBlIcy5g9yrr+5IFtH+F1kFvDAHaLrNLXt83oBFgA7bUiUeGYkHgABmRxjmp9nB0Zly6IqAHoL3S/MoNmc7kGEWvchxx/clAuiPgu9UVL/27kAW0fxHiMGugTZjD/lAlaf0QgEaxS+74HznQdj67H5BUiz0frYCmDe6+70hAzKuMeMKTJ09s+c595/uYDPS/S1lA+1deST8pH7JZ4WwB3SX9UIBGALej+CTHeUjwuL3y/9A6WgHtBlNn4h51JXziiPv/Q4cy4skC2r9yS1oUzDvDsiGOpPVDAtoRAOYhJa4J9BAPB6BKNa/ZraMV0HiyXvnjKVUB61cW0P4VDWi7DjpppQKgHQFjQh+pDGW3jlZAxxvRxBMg8yrnxy4LaP+KBvQOC+hklUqA/rHpaAV0MtflN8SRyrKA9q9oQO+0gE5WFtBd19EK6I7mBWL1Q/6Q5LuWBbR/WUD7lAV013W0AhoBp84gTaz6aPWekQW0f1lA+5QFdNd1NAOadji/3vQScD5aJwcdWUD7V25Js5QN3hGWBXTSsoDuuo5mQDvi++H2pPk/2V8R/lhlAe1fucUK6EEK57AsoJOUBXTX9VMAtCO8Zb4rR3NII1YW0P6VW9JXPectCuetqm0W0MnKArrr4mEFWEdSrAkH0MDhSMsNGavORZ9ZQPtT9J6EGy2gk5UFdOoJQLuBYPXDyALav3KLm9RzXh+W/al30rKATj1ZQKeGLKD9KxrQ6y2gk5UFdOrJAjo1ZAHtXxbQPmUBnXqygE4NWUD7lwW0T1lAp54soFNDFtD+ZQHtUxbQqScL6NSQBbR/5Rb3kZLWdRbQXZUFdOrJAjo1ZAHtX7lFjQroNVI6KARpC+gk5QAa8YW0+uHlfi+21Q+n2B19LKCTF4AuHrBGihXSgNoCOkm5AW1lZdVejC4toLumCKDDsoBOUvy02Mt7sPrhxIuIrFJHsS+F8nqOrLxlAe1Tzi4mVqkjfu5tlTqKvT9ez5GVtyygraysrFJUFtBWVlZWKSrWQbPMzgLaysrKKsUEoEsHrlNIrzUrOSygraysrFJE9peEVlZWVimq0C8J10opsoC2srKySh0BaEIbNgZtZWVllWLKLbarOKysrKxSUnaZnZWVlVWKygLaysrKKkVlAW1lZWWVospRQBf2XykFLSuksGWVBbSVlZVVqiinqLfkNy+PyALaysrKKkVkAW1lZWWVorKAtrKyskpRJQXowuJcGTy2WkZOrZPhk2qk3+AyyS+Mfr9rfmGO7LxwnDQPKY86Hk8VNQWy/dBYGToh/p5+BVpHQVF0PTm52TJK2zFySp0Mm1AjvZtLJCcnOl88jZpaK/uvnizn3TzdlBGbnl+QY6419rgf1fUpMm2lvtZRleYY9YycUitlVfmR83r1LZbmoeV6fTmRY/HEPQj1Qa1nejw19CuWMTPqZfS0OqmoLfA8J1aDx1SZutwaGL6OkvI8GTKuWsbN7GXaUlWfWJk/ZeX2C0rBlIAUTHVpcsDz3HjKqdHv0Mig5JTGHC/W4+OCktsQjDqOcvuE6i2cFZDcprb0nCp9ziaGjueP0TLL2vKQlj/BOy2u9PnMbdG6pmm+mZpvlObTdsVNK3Hl7aJyqvUaxofbOS7Qrl+M8vQc7efc/m3XntuobXHugfZN3tD2/eapgmzJGx4011AwSetz90u+pg0Lp2m5OfWuMsNp3IvIsThKCtCA8NYXl8gdLy+VG59ZJNc9fqqs3DlEikrzIudU9yqUB95dKbOX94vKG099B5XJIx+uldM2tXqmo/lrWuSUVS1Rx4DCYx+vk9tfWio3PXuaXP3IfFm0sTUhsAKmC2+fJa/+cbus3DWkXfrUU/vIwvUD2h33o41nj5T731klNz69SM69cbo51qe1VJ74ZL3MWto3ct6OC8bJ4fvmJgTOqx6eL7e9sMT0g1e6l+qbiuTyB+bJna8uUy2VQ7fMkPLqzuu69N45cqvW5ejBd1fJtXr/Sdt8zii55fnFchvfjVeWyoV3zJRKC+kOVbE3Q5qeP1GaXgip3xsnSPN7x3me6yXgU3NlmtTd2FPyBrY96HmtQak+nC793jxByrUOd56CGQFpuKe79HnuJGl67kQp25wp2erUAOCqC9JD7VH1eeYkKduuaQqSnMpsqTw3XfO0pZXv1nIL28r1Ut6QoPS6q4c0vRjKZ+rbGioTOPe605WmKtuhaQo8r7ISkl5H1aHwNWi5fV/qJhX7tJ1F0eeVrM2Slo+Ok5rL0yLHKs9Jl+Z3j4/ci5qr2tI6UvHSLGl8UvvyxW7S99VuUnVeeqS+wvmBUBplanvqbuhpDAFpGBLq597l9G5frltJAXrCnAZ58rP1cujWGbJJH0oAfe+bK2SQelekF5flGU8R2AKC2PzAe8SkWk0rltreReZ8PO1nvtwoy7YNMuWEvMe2PHnqZV7x4Dzj7ZIH74xj5dX58tbfdsmB66fK9vPHynVPnCoPvrdaZixuiuQF4hiVWI8OgzJ2Zr0B9Lozhkel5eblyIHrpsplCknqo81u7516h6q3yDW483Wms66ZrIZojazbN0Lmrmw2x1pHVsqv/t99snTroMh55986U+55Y3mkbkYkjFQ41znH0ZItg+TAtVPknX/f3S4tnnZcMFae+2aTMRj02+t/3iHLdwz2PNetZdsHyybNY3RglLzyh21y7WMLTNqWg6Nk72UTZcWOIbLnkvHy9t93yalH2MAdbSqcHZDKszNU6VJ5QMHycjcDDq9zvQRQ+398rJRuVLCFYZnTKyj1t/WQvq93k9Zvf2FA7Zyf26Ajpwe7S99XFFxnZmi+LMkfGwIGXmPz28dL3U09zfHGx06WxqdOkpxa9ZzVI8V4UC5pvR8+Wfo8e6Lk9u3Y+wPQNVekScVZGcYQ9Hn6JIW75tORA4A2aXr9pDU+EQIZxsWrrISknnGlArLmcJoxBA33dpd+b51gvHPnnPyxei1vHi+tX/9Seqmhco5jLDBo3AfuR8nqrEhaR2rUa6Ld5TszjLFs+fA4KVoQGgXRX83vHG8MHQZgwJe/lJJV4XKVb8VLskz7yOcuM1ZJAXri3Ab1+NZFvM6Vu4fK019slEmn9DafCW0889UmeeE3W2TRhrYHlNADAH5IAfrwB6vl+V9vlqcVytsPjTGAfu6bzXKfgv45Pc7/5940XaFaKGUKwwfUU3vn33bLm3/dacBy9+vLZPL83gaUwGXBuv6mDsIWj/1qnZyjwM7Lz5GxOoS/Uz3957/dLM98vVH2XDpeCkvaQNt/eIW8/Ptt7QB931sr5Q2t6+2/7zb1PfjeKjk1XMcqvd7H9fpf+HaLucaDN04zdbnzx9OB66Zo25ebEIZzjFDHp//nTAM/59gFt8/UNqyQ2sYi01eH750rT36+QV787VZjqDA6zrkISL/zb7uijnUkvPhbX1ishkgfIm37ox+vlat09OF1bjzNX9NfPvivvTI9bAzdBgwj+9H/OkPWxvSrVXzljw4aQFZf0gbUjkRYY9Af/0nqrlMPzOV1MsQuPyNDSpZnyYBPj5Hqy9oe/qJFeI4K9G0K9PAxR4QEgH35LvU4tbz6WxTyCnKAz/Ac8FTs1zT9ztRqnf1eP8FANracKOGZu7zs2ms1n0Iwb7Dmi0nDm8SDzRvhA9Aqrt8Jo5SuzZTWL46RwjkhYHIcaOLNAsZeCnAnX+OjJ0vD/W2fE1Xrr9UIXhS+Z9pv3MOq8OfeD54c6sMKfc70mgf9/p9DIxYnv44kqi9Ol8F/+7kJx0SOxyhpQD+lHvSeSyeYYTkwAaBD1UslffDYKlmqIAY67ge0obnEDIsvvWeOzFvVItc/udDkGz293gAa+DJUX7FziJytHiEQnLOinwHIgrX9DURufHqh8cwJneBdxgK6srbAlHvzs6dJSUWeXKPe3S3PnSbLtcy9hycovNfK4i0DI22KB+hTVrfI7Qp2YEp9tLdP/1KTNnFeb+MhAsV9V06U577eFPGGO5MD6PokAM0I4ZGP1qrXPVx2XTROXlJIbztvTORclCygX/ztFrnoztmRzzc8tVDuUePoPqcjlVbmm9EKIydGQM7xaQv7mH4mzPHQ+6ulcUCoz6w6V/meDGn5QL2vUxOLQZsH+68/84yVEq4ApAM+jwZ02a5MGfDZMeotdjcea697ekixgtzAsk69yLt6mDyABVib4bpChzg3YCMNiPX/laZdqGkxoQMvAaYKNRgM77m+agWxA1C85fLT29JqrtY0r5hxFwQUaSuAzG0O9VHplkzp+1o3KV2vnquCNArQT55kDESDXnuvO3pI0WK9DwmEW/prfzLqIJaPIev/2bHmekgjlEJ6n6dPlP6fHGv63GmLo1ztg8F/+Xkkj5eSBvTz6lXe//ZKE4N8Sj07hrulCkTnHDzfWEAzRAfIey+bILm5OXLODdPkrleXmYk9AA14GHoznJ+yoNEAGViTl3AEMLjozlmR8lAsoIHFlQ+eIne+stRMur36x21y+0tLjJdL3pd/v1XOvHJSZCIxHqBpw9UPz5cbFPbu46iXtpfrOl2vg5ALw3zgGXuel7oK6CsfOsVcGzFpQIoRcs5FyQKasM6hW0IxcIT3zL1xn9ORZi7pK09+tkGWutqM1pw+3MxL3PvGChOHJs7vTreKr96PnSSNj5+c0KQRIsyAN8xQ2SsdxQKaUMOgP/yzGfoTqzUhh2dPlJxywh9BEw8lT9NLChSFsPGYAXR9UGqv72lgg/fZ/9NjzZA9MuHXgZgEDMWhu0mzeq20B+CbtMkBqVcYhtKON0P9nPr2ZSQtNRyEObiWCjUAJo5eFzQxdGDK9RB6cAOaWHX9zT0MKIlh4+kXzujcWNJngJ37gQb+9l/aAL1ORyw68iA8RLiJ2L97YtJIWdT8/nHSpIYk6rhLSQP66S82mImlc66bqkP9zTJnebQH6QVoYHrRHbMMeG99brE8/OEaOePyiVJUkhuKQX+1SZbvCAGZ2DCx2lV7hprPiQKa2Dfe2zWPzjce9Ps6BL/txcVy+N45ZtKNeDnevR9AX3rPbANZIHrW1VNM2GHDWSPaneclL0D3US/zM+0rQifOMUYZxKAZEQBo4v1O2g1PLTITtM5nlCygCdsw4ed8vkXvx52vLYs6J55YdcJ1YKDd14FoLwaHEQV1cL/d6VbewsskJgpAeWC9zolVn6dOkn4KGa80R+0ArcAFssRImaTiMx51jsKZya4WBUW1esYFU4IGJsSxiTPj1Te/pwC9NF3yJwaNhwl0ElnpAMTzBqh3qTAG8pRDvNukKUidNCblqN8JR3RZarAqD+h1fXmMVJ2vRoTRhB4nhEJIiFAG7QekwLNsZyh+z0Robu+gUdHCLBnwld4PJhhjy48RKzEwVpTP+XjKTsiDOQWMINdk0jB6Z7cvs99rJxiPPva4oy7HoGsbC40Xffn9c6Wyrm0SjomtWEAz8bb/qsly92vLZdfF42TFjsHqVYeW4bknCfkcC2jimwALyAJXA1gVgH7jLztkEROSCouFGwYYMOCJcw7wZAJx0NgqA45hE2uMV+q0acCICnkFQMd4wIRV8FpvenZRpD5Tp6ZhEFiBwYTdiEk1xhv1A2iMwbv/vseMKIi31/QulLsUljc8vcj0GYC+/slTjcFhOSKerjMx5yhZQBMCArB45NRHzP+Su9pCHgVFjGL6yNhZvaLyIUZCGEv6lYlajtE3hLCIjdNm+hgjzmqV2PxWMdK+w8Pk4U1mgowJrtYvftnhMDwW0EwmAqXiZVkmX+U5IaAQZ2YiiwlKE2LRNhGWwFPGeJRuyDQhDyBOGqES8uVPbINpnnqGrMLIcw/hS/S5ZxkfbVRhgDAIhfM0n4LbnUaIh7Sixa7JufByuLxBifdL6ebQNdZe3VONi343a/W4lo8BIO5sVo2oBv3l59L6zS9CEA+3xYRX9NyCmQFp/VIBrX3glMsEKx5xfqxRggtqFAipMAE4QA2t6V9No/zaa9SbxoNXQ0F8ujY2lKH1mTDIMydFH3fJ1yThtkNjzKoOIAmkgeq+KyepV7jfLAFjErDfoDIzRMczfOLT9WY53GUKdWK5TQNLOwU0AADOeN/EvtfvH6H5ygyg3//PPcbTBajEPfGSWY9LPuq7/52VJhQBUA4qWMfPaTBprFo4+5op8va/7jLt2XH+WBkzvd6k0elnqjFhwpH6Nh8cFVmlAnhYTob3T4z7xd9s8QVoRD89rnXhcV7x4Clm8pQVFqQB6Cc/X2/af7FC9HmF6epwvzhKFtCnrhtg6rhQRyRMOjLh6V7mN3B0pQE44SE8ZndeVps8qffQHXfn3l5w20zTz/uumCiXPzDXTAInGvr5KatAPVJiybXM5POwe5zjJTy/If/2j6EYskc6igU063XxvBnCE+8lPsuwnIm1ovmsbjjBrPKoPpxmQh9NrNRQj5IJRDzm3g+dHEpj5YKWgffrlI0HOeTv/2hi486xgukBEwcGjgCTZWisDAH6rLdueEDTtB0mDW9T63NPEjJx2vrtv5hJSedYh1JPmFg2YOS6GAUQO8cgsKKkUNvjCIg3PqZtAf7a73U39zShiVptD6EQYtWEZ5yy6e+B2hZWe7jrZK15jfYxoRNGB/VqbJ0QDuXTb4RuaEd/PHaWLrryFy0MyJB//wfj9buPuxUBdL/lkte3E0C3DC3Xof1kGT875F3hSbIkjVUOeE5MZF181ywDSkIL5944TQaNrpLR0+vkjleXmnjn+fowk/boR6E4c01DoSkDMFMm66L3XTHJGAOnXuLShDgACnBsGVZhVmRc++gCUxaAoO6Rk2sjUGE5H8YCeCPizw68MSwXa3nXaHvIf95N080kl1Mfk5cAh3xna9uGa1kcZ1TAGmKW4O24cJzsViMz5dTGSL6OFA/QTLASJyd+jiHCqDnnAGi86Uvunm3aglGr1v5y508W0Hi6XL+5DjWU688cETXZ17ulxIRwMAqs9HDnXbSh1dybOtdIhBEOoxb6hDZiSDYdGG1CXe68Vu0F/Ho/crKBkVd6POHx9dWhMWCLnXhyxKqJyLIupN4aHmr9rT0UYN0NVAAzgMLDK1fPGG++QUHMKg5WguDFMvwHLMAJSJPflKvlOWWzrM1MwLHkL3yMazJ1aR5AXXe91rcwlI/wCHVE0hSOxXjPrjJZUTL0f/7fUrqp/aoTT2neXnd11zK7mzg7qr89BOjYc6svTZMy1nKHPzPpicFAdTf3kOKVWVExdtrNkjqWRTrHED9CMdegddVomflqBCNpem/pY4weIx7yun84xP+9Hz05tHolNjbtUpQH3RmgUYEOy50hPzeXz86DzPAYcBJbRvxohHM37B9pgAzgOQYo8Xi3siKBMjSfu0yG/pHPKv4HIgyl+eukmTrC9Rgwu/I4bevVr9gAz10H5ce20w0jU19prjT216F7hdYXnowh/EEIB2NEGdTpXrPdkQA0k4q3PL9EDin8I2laF/UTbmBy0wkdIAB9zg1TjREDirEeLQaKZYEf/a/To453Jtpeo+VVKkRzY5YJcu2s8Y41BIjrJ2/scY6V1xaYvqa/OC/2HCsP8d3hF3Th72UywkPl4a6/Sb22ao8HnFUWMQaWevCYDdRj6+VcJgxZPsdw3/297igNaV1mvbFr6Vykrr5Bya3X/2mPU19HaWEBdxOCqYg+3qGAKtfliM9ezyftzHd91vpDMejQ/+3y6Ll44aZM93EtJ0/7hElIt3Ex4nr0fBM+4Rrc9Wm+6otCSwuLlriMqIeSCnF0VWZlhgIaD/j82+bJtc9vkbve3y3Tl7X9QOM7Ux8djhe2/9FMXHF+Y2JL55IRYQHCGOfdMsN4sF7nxIpJzDOvmuSZhliSeP6tM6JiyFY/HZWsyJLKg+lR4YajRXj3HYVwfsxiVGJ+LMS6aLdR81BygC6rkMCSdRIc7/IAExBrZxdvHiinXzVXtr16vyx65VkZ9fBjUjTHNeFVXSfZte0nprKbWiSwYbdkHTgsgf0XS2DVVsluaPu1YHZVrWTXtYVDolRaLplX3SnBeYu90z0U2HehBM443zMtIZWUSWDLPglOdq1iyC+QsiUrpemiy6Tp3Auk14RQjLkzEWaYdXCTZJ11iWSdcYEEx02NpAV2nC2NBy8w5aGsvYckuHhNVP6uKDh1rmTRz/u0vmGJGZKI8vIluHyDBNbvjDoenDJHsujX08+X4Mjx0WlzF0tg2cbkjOhRpPzivtI48nQpqYnul0RU3GuUNEzZJgVVbXMInSm/qFH6jN4vZb2in+GiyuHSNOaA9J96pfQevkcKSsJOSk6unjtN+o0/ZNLqh2yTvMJQODInt0hqBqySfhMuCGn8+VLR55SocuOpoGyAXvcZMmDaVdqes6SwPOaVC3i1JaXSNO5cqWhMrMxElJNXIn3HHZKqfm1MKGuY2XYNqrpB+n0Mp+XmV5nPXDv5CssTcypz88pD+aZcbq6B642k64ikuLVVGsftlQFaLv1Ou0ijT+sGbdBrnmv6PjlA9+0vmXc8oQ/aIe/0DkRIoWrzDsn58I+St/9CCe46R4JDRkfSA7sPKthihur60GZdcqNkPP6WZN75pGTc97xk3Pa4BCe2LT0LbN0nge37o/M5UlhmXXarBGdGr3zoSJm3PCKZNz3kmdapCouNIcl46BUJTmh7AIKTZkvGE29Kxt1PS/pjr0vmbY9Jdo2HMYpRzYIFkvv0u+b8jHuelYxHX5Pg0FCfZdyux+59LqL0lz6RzBsfbFdGMgq2Dg21837t54deNvVl90784Q/OPFXzv63X+EbbMYVz+nMfmGvPePAlyXj4lahrD87SPHpfDdRzo38lebSrrNcMGbviZZm65XPpPWKP5znxlFtQI6MWPymDZt2kkG+bP+lIJbUTTJ7p23+tML0gcpz8Q0+5R8avfkNGLHxEJqx9W1omHzawKK4eI6NOe0LGrXxFRp72uExa/740jVWg5ORrviYZuegxmbTuPb2OF2XM8hf0OvZG1eml3LwKaZ1+rUxY85aMOPVhU+/g2bdGwO8IuM3Y8RtpmXJZ1HE/AsAzd/1eBs66OXKs/5QrzD3gGtCAaVdH0oDlRL2+0Uuf0b/vyrD595m+d9LjqWH4LpmofTVqydOmz4af+qDCPvS6hjw1ksMW3K/X/boef0jv4c3GEJBGn9PG0Uuf1b4fnSSgWwabhzbr3Cu809XDzh41QYJL1ktwjA7Nq8NvWcOzGjRcMg/fImnv/16Bpd7lqInGw83OzVVQj1IovCCZV6u3O3GmZI9Qb6JUy6qskfRn3pesQ1cr8KYZ7y44e2HEYw4OHmkMRuYN94fyUWZ56EKzq+o0zwz1npcoZFwed7g9hDKAAx6f8Uxpu6YBw8xbH207b9hY48Vn53QeVw2qJwiMAqu3RR3PvP6+EFz1uoMLlkvam19LYN2OqHO8lHX4Zi3vfdO+4PRTJO2936kRO8OkBSfPMceM5i4x/Zp18PJ2ZSSjrAuvl7TXvpDgjPkSnLNIen70Jx1NtD3IHaqqRrL0/qW//KmkP/9R5HjmdfdJ+osfG1AH9N6la/lZZ1/Sli8/X7LOv1rB/aoER4xrO36Uq6Csv4xd/qKM1gcYODSNPcfzPC/l5BbK0Hl3y+SNH0tZfWKj2Xx90EcsfEjrfEGmbftaPcKrImnlDbNl0oYPjYdYUjNOhsy9yxiOvKIGA+9eQ7ZKdfNSKa2bbAA+ZtnzmtZbCiuGyYTVbxqgVTYtkMo+86WwrHMPk3OAMpDEADRPOmzgV1LnhPNypLr/cpmhhmTKpl/JwJk3ROXvmnK0jafKlM2fypSNv1LQ3htJA7pck7kGlXs0A2CBJSOO+sGbZdqWL6S2dW0kPZ4wPiNPe8zk4/xpW78w+Ulr0BHKVG0HxqykZqwUVSmI1eA5eYurRpn+J3+ujrCODKAVtgEdZuMhZTzwomQ88qpkXXBdKBzRpJ73DQ/og/or6fn539Vjes5AKzhagVrbIJk3P2wAw8NNWtbVd4Ue1ooqSVcPMuuyW4x3F1snHmPa29+ah96Ued29Ec/VeGbqdaa9860ENoeg5gioZdylHt3j6i3S3rueMkNtU6YB9COh69l5wFxLYKV2bF4n3l11nbnGDLxjxzCFlf7q5wa2BvJqkBgRZF1yU9Q5XmKkQp8FF681YE57+9eeYYys/ZdI2lvfSPZwf4DLeOptyVCDF2mnQpN+8jo3VoGNu43XnXn742pUPowc53tg+pPPlMlISM9z0hH3LF3rzjrzoqjjR7MY0tYN3GC8WiCUDKCr+p0ms/f+Vfro0Dg7J7FRB1Cv1ge8rGGWMQhuQAOk8WveNJ5cRZ8FxlMeoZ5xbgGrnpgILw4Nt3MKFd53GE8ZQJMPb5swRXXLSnMtOQm0J7+kr4He8IUPS7kO5YfMvdMAiTAL6cXVY2X0sueMVz1Ryz8SgC4sH6zX9IgZKQBPN6BHLn5CQfyUXsMKE+7IyW37Xce0rV8aD5t+yCtsUG/4A2me6HIw4mjG9m/NKIT/6ZOJa9+JeOb035jlz5v7XztwvRq6mPBOdq70Grrd3ONaNY5HBNBBhUPGI69J4NwrJTh2ioF1+rPq/SkoswsKDXAzL79Ngfkbkx4crp4pHjTe9ZjJ6im/px60gpk0hvElZSZ2i1fIw2vAffCyKC8rOHpSCAA3PdhWZtgTxvsmFJL2vnqde86L5EGZ19wl6QrnwKot5pzgKUslu28oRpR526PGgw6ol2eMw17Nm8AwnxFC+lPvhOLX+mV2p6WpJ0oc2fmcce+zBubuczzV3Gr6lPBF2htfGUOVXRPzE+p+reqxfmhCOfRXVFqSSqeOy7Wc8OfMG9XgPPl21Dleog/NyEENCu1wAzpkmEMeNKMZvGva686fXVyiRvqhduA+2uXEHads+iQpQLfOuF5m7vyd8Yq90uOJ4TPfTbxAN6Bz8sqkZdKlMnPHb9ST/kA9849C3l7M97i4epzxdAGNE/4Yu+IlGbfyVTMa4P9eQ7dFeYNeyskpkD6j9sv0rV+ZMAAGg7g4hiAnr9QA3xniT9L6jgSg+44/X9v3ojEIwNIN6OELHjRhCLzo8ToiaJ54keRqn5A2a/cfTYyY/zFYE9SQ0f9O3niinzB0JbUTdQSyTWbs/K0MnnO7SSNsA+jxkEcve9YYQ/rSnT+vsE6m60hnuKYdGUDrsDjt479IxtPvmRhsxpPvSM9P/mYg6JzDUDbtrV9H5TNSGBP7zLzE40Y09pPAis0G3jzoGfe9YMBs0opK1MMNhUba5UPqgae9+5t2gMYYGBCp4TDH1LNzQhjAGa817c1vJLBup7YtsZf+BEdNNPkCa9uHLnp+/Gf1ctu8Qzz7ROLFwdPWmDIZGaQTG37iLVOP+5zA9rMk/c2vJVsNhPt4V0ToxXj64c+Z19+vRuqdqHPaqaI6dD06Csqu6xUOy7QBODh9nmm3uXePvWGMNoYvqgxV1gXXmJFQ7PGfgpIF9MjTnjAA8ErDqybeSWxz2Pz7pVI94thzYgFdWNZqYsmAa9DMm3T4/ZmZvDKec/ic3IIqA2JEGMQcy69Ur3O51A/ZbDy+UYufMqGLwor2o1238gpqZIjCCii2Tr/ODPeHzLvTeOVl9dP02t6R3sN5hW7eEQF0QUk/res96TvuXGNYKN8NaCYhMSz16q0Omnmzes2fm+sibdbuP2mfnm3+z80PATqR9tB+DN3ULZ/JuFWvmhDHoFnqYGnanNP/ZoxZzYCVxoueov3db0L70SNx/0kbPjpCgFZPuSdx0CvvkAArLs65TALnXRXl8cYFdHFpGNA3tk8LK6ieIsBMf0khuCk8EVFUHIldx55vFA/QeJzU5RFXNkN0BQVgNKGPlsRmbSOABuoxaemvfSlZF7VZ3XT6UEcTkXNoh7Y11gPGyBFjz24eKMHJs42XmnWxy3o3NEnmnU91fVIzRukY11sUtOHP9C0G0X2OGdmox+t8xgATXuE8wkPpL3wkaR/+MbR6hpEQcwzEn5dvVIOz2swpeLU368LrTCgo9vhPQckDmsm69zzTmGBiuD5q6dMKzCekqnlJu3NiAV3bus7ABMjilePB4uEVlIbec1NUMUy9vEfNOVVNvKMm2rN2hKcJ3IFs2/HcsKfflodQyOQNH5qJyrzCWnPtfK7se5oMnXeX8TZHL33OXMfs3X82IaBkJ1HdGjTzRuMJ4yGHyvyTAWbTmHNCowrXuYRtCGv0GR2CMvF6Rhf8n1tQp3B/X1omu+d6CH0Q0ozuEyb9qvotUehvkZr+K02/EOMnDQ+acJJzLgAndOR8bjv+mkzUEU3ygL70JhOWMCLuqZ4sE1npL3ysEL5GsgePlGwFc3D2oqglcHEBrWAy8c6b1KtkYg7Plhl9wh8LV4biz/WN5iE3EHRiyppuVgfc8Xg4nwLOHSuuqlVA/9aEWyLHVECP4XRw8kzJrqwOhUbUUzdprJi462kJLl1vvL3Ma+42YQR3fi8FB40wniFLyWLBD5BYwZCt10GfpL/xpQS2nhmVN+vQVRJYH/2LQOM969A/u6ZesgcONwB1gz04f5lpo4mRu/IZ5WvfLdtoPOx2aXFEXDz95U/M3AATmmnv/zbaGFfXmuV3gd3nmnvOseD0+cbYZV0cUsbjb4SM4oHLJLv/4NDopLzSrNwIbNtv7n9gacwOMIXFoRDHI69GH/+JKFlA48HN3PW7MBii0/CGS+omhqQgzCtof04soOsHbTIQBNQAq3nixeZzQdlAVasMPeVe4+32Hnm6mfQysWY9D4+XZXX8zStulEGzbzXnEUN2yq5WA4FHzySjc6y0boq55lAMPVca8Da1vurmZcZbxZseNPsWI2CN1+qemMvNL5f+ky8zHq9zrCOxnG+Igj9SpgkxvB8OxxSYmD7L4FhF0nvE6Qror6R+cGjkT6iFlS8FpS2mf6Zt+dxA1ym7tH6KKZOJVOcYIsxDuKZIRxOMEqZs+lTKe4d+r4DhxIMuqhqlxmyq6evYlSqEUwhxjFBjnDSgGQoTJkAsyTJrW6vrDJyBVMZjrxuZ2PDQUZH8cQFNmgIq/fWvFGQvmNUABprqVZrhsYryTNkKV+LNkXxnXWI8L/JlXn9vZK0wHhkQ7vnFvxvDkXn3MxJcEgKDge/jb0r6U1qeQoEhOqsrSIus4lBoABLiylnnqMV0YtvxpMYAEJM/spIkrOCc0yT9ybcNvNKf/UAy1OsF1pH0U1fotX8pmeqxu/MF9pxrvH1jvGgvIY5wO1HWxTeEDI1XeEO9a+rJVAPWLi2exkwy/ULcOUP7mv+z3euWBwwJ3QOOs26dY4C6V59QnF6VdcXtJs6MQTUjAv1rJmIffNncSzOSYO7BKVPF/TTGbf/FUcd/KkoW0FXqac494+/SOKrNyCejWEATsmA1CV4zXhve7JC5txsvsKb/Kpm9588ya9cfzKoRvGjCGHjVwAmvlEk3BPSYUHMvQyNeveDA/zbL6pxjLM8j7ks9hExYQcIKEybL8tRLzS/pF9FkLRMAOkvUEMsTZ+/5a0KxYER73GUy+qD+0CRoaETCZCTXwPWxqoNJRdIYVRCXn7jmbQNZJjYxWk7ZLKejfxhhOMcQhotldE6/NI09GPHWmYycuPZdI8qmD8oa2pYOI4zP3H1/l7qkJgl1eIvXFth6RpvWbFMvOTxZ0adZAss2hH5Ysfc89X5Xmck6Jz8eN/HkSHkuBVsGGg8y68wL9ZxNIc9bH3DKN5NPHF+/MxR/xlt28vUdIIG1280KAPMjlvCEHiALbD69rZ0bdoWgT75SvY7ZC83a66yzLw0teQuHMlgzTTzdnKeeMNeLl2i8c47Fk55Lu4m1BpaotXd78kySzl9qJhAD289s92MNJigD9Nei1dHH6W9++KEjADxh1hm7wyDBGaeEJmFjQiMmbexkNQbqcbsmJxNRcNo8NQwHJbDrgAQnxizh4odKm/aGwjhO/D5GrMgglBE5pn1N/D1L72FQvxus2nGfT9uzDl6hhv/1dvH1n4pqB64zS6u80rxEbBivFrCX1PJdah+q60is7S2NLGnD28szYQmA3zLpsDQM22kATLn8MAPPmUk8Rw0j9hjPPK+wl3rfm82qBn7IwooEAOiuC/AA2PIGHa1GjucYo4C3iiccWm7GdbQPndT2X2m8TPcxftgy98z/UI90btTxREXIoaJ32yt3MUKEW5onXGCA7I6hA3G89+ZJl5j+iZ3MK6oaYa4hNpREGaziIO5d07Jcvem2sCCgrtIRRfPEC82IgZU1UXnVOIxb8bLxtHNLmpMAdKICyvpgeqZ1JIbDxGLdcGMmGe+V4+5z3TL51Bp2thQuVsWloba6gO9LNfUG+CzNc//qz4g2ch1ev5gjJMIvIr2gRxpx384MRIz4JWPmLY+GoO6RHldOfa44c5S4hmTvLfeOfJQdkxacscCMYAIb95hRS2y6lbeKKofJSPXaCHfkFyf2wq7OBKiZwIsXY/ZWrvG0c/K8712OPr8sq+OvVxr1JbI0zy1WWbA+OTZ+3HXxPqGyyMqNdtL2MUnKMsP26TnCevF216DXhufunmiNltaZX6H5otnDNfGLTMIqZslf0XfwLo5TA/lSpQ3wSjvq1dCkXv/2qDDMD6LqupCRwHB5paeIzA9t8LgxUB7pVvHFD0fqWteZn297pR+tYrThHgEcTcIIGA+/8RT9vyA5QFcrdA+lF8tjJ1VG9PDJFTIu0GYdm4I58vUv62RjlvcQ+LtQg9Z5R48yWZbV5mX21WOXpZXKy92q5H5t4/hgMl5BtlTotT5ycqWco9frHKvRYxekl8iLWuajeu1TgnEsP15y/pHxyvdlFMnzJ1bJ41rfrEDinsaZGcXyzMnV5hqmuvKVqq7UfqFMrmG2GlN3vnM0H9dc4jr2nYpRg0eI5qeg+a0BuX9dT3lyS3e5aF6GNJYm99KjWc3ZcumCPBnKi+ldxwdWB+XGpWmydGj7V222VmnasjRZPqztRURVhdly7qwM0xZ079qekfSKgmw5MCMzKm3NyM5fYlSu+XZMyJQH1/eQp/X6Ljs1XVrDb90bXBOUe9eEynN0j36e0tS+vd7C+WvvAFLulQvT5emt3eWOVWkyo19bebTZXd/Bme3fwcy10o7dkxN7xempA0P3z9Elp7S9D5t+vva0dL23PeTOVT1lXO+2e1tblC3nz8mQlcOzJDfmLX6IHxU5P0BKCtD9FHrP6YP94XG15uFGDysAxocBnafCc76uZ6mMjQEiabnh/wFdWfh/R/mqOj1eEHO8Mw3Xel7QNj2hbRnoqvOitBL5WNt5V49yee2EanlWz2nV9rvzxlOl6kYF/l9/3ssAzjl+usLyk2Pr5L7uFQr+anldyx2WJPiT0VI1OF8cUycPqYEBqB8fWyvjEqgPqH+lRvJ+beeLmu8zLWN0ON/FamDeP65G7u5eLi/pNXzzi3oZ5Spzudb5mh4/oKB27pfVkdeExqC8tvckeWhDT7l+Sbq8dcZJct7s+C9uj9XkpqC8vPskufiUDANYjhXmZsvqkQE9frJ8eeh4OddVXoGmrRwekBd3nSxfn3+8XDC3LW2QgvOFnSfLs9u7y/0KYOC5fFgIbgMqg/LMtu7y/I62tNUJAHqCAukpBeW9a3rItYvTzPVhNGgrIAWElIeeUoB/du4JkTq7IkAHEF/bc5Jco38f39zD1D9U6yL9hiVp8t6ZJ5r67lOdEwPoSm3XjXrOtxccJ7etaNvooCNhVH91oFsI0Fom98JJu3pRuvbZyeaaX9I+f1H7t0X7krSiPH1Gp2WYe7FAjbSTx0tJAbpZAQeYABReMwLEeGWk48He0LNM7lQoTnN5bTzoazRtQ2aB8cCBwxUK0MFhMACIi/Xz3ZrvGoX7wqx8A3QnfzyVq27S+t5XEE+P8S7fOEEhpOUN1bJXad2AdXNm5149bd2u5711fI0BGeB30l7Ra39cgT1Cy5yh9X2hENyvMHTnP5ICysASuOIFA9PD2k9e57r1nrb9Gc07UvNxH778Zb3xmkmboPcM8GNY5mk//5//1ii7XP3CKOlqPZcyBuk5znGrI6tVI7Lkk3O6yUz18gAWQAEcXufGqkE97ee2nyxPqHc2JAwgVFccVDilGUB9cFY3udAF4Rr12vAur1NYfnh2tyhvb7zC9HU1FnvUcxzVKyij6oNaVihttH5+RQ3B/ultafWul9nHEyCe3RIw5/dXMAFIjACeZZEaC46b8lRXqHf9qtYxzvVC+2SVr4CmP+5Y2VMGaB1bxmXJuwrkeQNCAKRv8f65HupsqWirK0/z7piQZa7zjdNPkrtWJ3YfbtKRCN66UybX5qRNUQM6t3/AjGYWqKf9jRrF0wa3wZj6MVKvqkHpUxZdrltdAvTt6l16pQPomzXtf/5fvWVPZhu4ClW36fFfqQf4lAIPwN+qnwE8njR5XtVyOfbUSVUGTJMULO6yvQS0PlA4X6LQivX2gNl54fDEYG33+8fXyoXqPbrP8RJQe1rbcK0aijcV8m5A//Zf6o1h4f8c1dsKMQyEk36k9cd/6mX6mrrQa91q5FGXRx9PX+u136lGkP/J94bmezp8HfQToxX+X2IA3ScqNIToe7zuyxMwBlZdE0Pe1xUGeF6EEN7U/72G3V7arPD5/cXHmQee++scBzRjFXLN+vC/v//EKEDjYQISYPnBWSdGAXpmc8B4uDeoJ4/XfeqggPG4SQM0byi8b1YY4eFTp5PWmUrzQ945eTAowBNDEXue42mWuV9qn6SMB71YQa/AO10NzWObeiiwuxvjR/oTagCBKdewfnSWlLg2M8AwYCAvnJtuvN1EAf2Aes6v6GiFMjEIXK+TRnu4H/xPeOXLQyfItL5tAOe+YTz+cMmxcvqU+CGVLgGa4TPDY/SgwhaP0jmnXs/BKzvD5VkCaLzZL/WhX6BQqFcvjXBJsR4n7PAr9W4vUniSF08bOLi9unjCI+bc07TM2LQ//HMvE5Lg//5aLjC9IuxFxhOddljPwVNmZEAeN6D/9rOGCPQR590VBqEfMRKoCMsd+vmv/9FbrnK1+ekTK43xcj7HE6Gnz7Vf6MtzM4pNu7lv7nOI0dP+d/Uaq/V/dxoQp54PdAThPm515ATkzlav9C+Hj5FvLzxOnt6mw3F25vA4N1a3LE+Tj3VondcBKIGwG9BufXh2NKAxFo8poJ7f2d0A5yP1sPfrEBzI4Ok+srGH8X5fVnhRL+GBRCC9UEFPGOcr9R4pd7HLg3SEMfjivBM805IVwMNrpj8J8awd1RbjvVn7jLYQavjsYDe5VT9Xq5fPM3/ZgnQDcEYjtDNRQF+1KN143PTN5+eeIPev66Gji+h7iAdNfwNzN8ARAH9/fzd5eEP0XodudQnQhBSI7SKGw+7YbkeAfqlblUl3jiPg/u//0GDCCUzoEdf9Rofke10eeDztzSg0oYs5Ht7279TbPTPchgFaJyC6rBOPcJGC/mutmzANYRFivkAMT53Y+J/Uo73QBWjaeodel7uMZFWtwggQI0eEh5y0f/vHBhPPdz4DTUIXzud4mhzMM2USe2dy8ZNjaqMMDcaRdr+jfeLVd4j4NX3olWblX0ww4e3dtjLkmQIPQhBe58bqIX2ggaVXmqNkAA04JvUJyqyWgJzSGpC7FVCUz6RliaZNbAylzdO027W9tBvwuMv0Up+yoIkrn6Ee4sMK+UfVq8WjdtLxmIEbsWJiwO68yYoQB5Nxz2zvbjxSJl7RRL0u0keqoZnTP2CEgSEExCTdIjUQH6nROayQXjY0IO/sO9F404R9HA84nobWhsIYs1XbJxCyOkG2j2+Lz49Rzxz44pWP1z5053X0nLaXOQOvNNQlQN+jXuMQBSsCfu6JvY4ADYCYIHSOIyb5AB9QJPa7Q7VL4UyowX2el3bquZ+qpzg/ZiUC+kTh6sRribd+pJ9ZoeCkE+PGOLjbjrf67S/qTbjlJW3rX37eIL/9l1461C81E5jUdbMrpMFkqRPb7arwmAklXK0gRm4PndEBq2Scz4Rz6HvnM9Yf4xjbp3jAxK1Z9bFA+4ZQids4Eb55Q+FN/8WGhhyxQoeRklealX9dMCfDxH3x2oj3MqkEHLzOjRWxS0ISXmmOkgG0W3ynMBh4ou44rSO8fibbAJ5zDDgCIy+gcYwVHUCaMgmnOGmrRmSZIf7GMZ1POnam4rxsUz6rUaiPsAre7TYXMB1NVmh/qIDeOSHTxL9/dU43M0GKocD7/lQ/0wdOyAUvHBh3NGrAkDHyoH4+N6lxIqRDmUDc2Q81VkxqUrdXGjqiMWjE0BlAO94rcgCN9xcLE5blMSH1xMmVMkk9P+KfhC6Y3HOf5yViqAzlt+j5sWmAjRDMcC3/kvQSAzvWZzvpDP8JYbjBNU/T92q7MRCIPEw2LtTjhGNYyocnPimQK2cp7IH5alf8lhAFIQ8n/puo6JPasNzrx4l3s4rjFO2T3doeDAYGzEmfrMcxerH3gxgzhnKM9iH9QDud1R+Xapm/Uc+Y2PlabfsK7cMpMV40xojwxmMJxLutuqZzZmYaiAIsPE2gy8PqdW6sWKL124uOk6Zyb68MJQNoYEtctrki9P/jm7vLs9u6m8lAwLRBAdq/MvQ/4Q5ixsS5nfx4rO/tP1F2TmyD4XA9d/v4TNPGvnp9eOVvqlFxJgIB94PqXRJ7L1OgOvkcMeFJ2OfCed7XECsmHt/ed5IxdACamDBt4rpI3zkxNMlJuwlNAOiFOooBnkwQAnJE7J5VK3N0xFAQhiqjALzc2P5kUpXwUF8tk3tCmGO1Gh3SiOdT/yE9vnRoljEYzooSR9z336hBYGLXfdytpAANfJ9Uz8o97HY0SNMeVRgwEfjv/9DbrBx4U2E2Vx9+AA0QgEXsD1jwYHcrFN9Wjw7YAkWg414FEk/AnWV/TCwCR3faMgUPcP3s2DpTLvHnSlfdgJg49b0dwJT1zkxoOp9napvwrmkj8fQb9ZqAqpMO6LjuZAEdTy16fYQ1aD/14T2z5ttJB9x49bFx6VaFMSMI7gV9sMEFdYzSv/6swYRyvlQPGbm9cjxqjADpp3rE9q2OjADhfet6GiDg+RHi2Orh7XmJyb6vDh1vvD+WbHmd8+qek+XADG+4UZd7CR6rLQAynvG72h4AvEHBBkSn9Q2YyTUnjZAE8HN7k4fnp8ufDx8TBTBCIniwTj7CImdOzYzA2Ew+anq8awZof738GAM+r/RY8b3Fe2Vk8c6ZJ5k+BZKOIXlofQ/TFqBJvXjI1R4Tlni8TFi6jxG+oL9vU4/Yffw+NapOmYx+LtV+cFa4cF/xxonZ41lzjuNdI/rvPP38GzW0hJec47FKCtDAFAi5JwUdsdRutqaxjnaFir+nqefJhCDDJkIWE1Vey+eAHLFQQhybVJRT5XFerLgpnE/4gnBGrQteAJsyt2k6qxTw/t15mTjEMEzUc9zH3cJIjHel40UDaTz2lVpm7LpqjrP07kiCDS+Za8RTJ6TkTsPT3ZBV2C7EU6LH6Ut+LESYo8iVdoqey/1xy+1BMzpgFQuGKXatutWRE/DDoyPuCQyJjXoBw0v5+nADWGC0aWyWJ6T5kQZrmGOPI5b2uZeEUS+eJKEGwg7T+gUja6v5S9vwovEOp2tabDuH1wWNF42H7RxjtQbLyyiTVQwAu1dJdJ2Uy482nGNusU77mwuOjwqldCY8UurcpHUC+EHqsTqhBQwNk4Zo7oCANJa2z48wHLF1AvmtapSIS7uPEyph3fk6LZMfHfUtb0vj85IhbTIedLh/uPf8iOglNXaHF3Q84ZoUoL9rAUC8ba+0eOIXf8S7+TEHYHenYRiAk5dRIK0sbDxi0zpSR2UuVjATk8YoxaZ1VdRHnzhL42JFn3mlcdwdX09UezIK5fYe5Wadt1e61ZEVAOEHJsl+D4lbM/y/TB9wd7ihqzLfawU98PBKK4yT5qQTVoi9BpNPry1evo60fUKmCcMkm9e5Dq+YLyDEuMUe70yUyUSqV5mU1xFgvcQvFjGwl+sIyCvO71ZKAdqP8IQJCXilfV8Cinj+sV/UH5OYXBz4A/ejVWLiQSfcwV+v9B+zAL5XbPpoEEDHS+9V4p3uli9AV52XLrXX9JScau/070O11/WUvq90kz5PnyRVF4QmPvIGB6XpuROlYFpoxjinKnRe1SFN7+SmF0zW4c/jJ0nTiydK8zvHe57jpbwh2uF39pC+r50gTS93k4ozMiQngV9c5eowqf428nUL5Ttb84VvXMX+DOnzzInm+mhP5QFNizM0s/rxifciN47cJ2zpn8hO0W7x1jNeVTlw1o2dbjHliLeu8SpR9ubjPcbOcV4sz0vzeUMc2yzxbmNe2MMb2XilKG9XG7PsOfPeYrbSqmhiG60cyS2oNe9kJg+boHIO5bjr9BIvAaobuN68h5m8bJXFvn2xb35j95Zxq183rxd1H/ejisa5Mn7NW9JvYtsWU71HnmHe3Ry6hudlgPtd2bUTzfuhx696zey7SP+Zd2WE0+OptH6ayRfqm3A+vW7ScnJL9PMus4ntuJUvy7AF95m35Zk09oeccpl5VSl9X1bVT/qOXq9wXmmUFKABUp9nTpJcYjNqFXIq9Xh4aUo2www+85cF4eX6BRmo5zFUqFAw9QvlydZhA585nj8iKLnNyQ3Xmp4/Ufop3KrOTZfi5aEJh4IJARn0x3+S4iWhzznqZTQ9e6LUa3tzivSzApv6gGregOj6cvVz5YF0abi/uwz73/89Kq0j1VyWJi0fHCfVF6ZL3c09pP+vjpWiBZ0vvq86P92cW32x5ruxhwz48pdSvDjU7vpbe+ixnlJ5Trr0uquHDPzdP0vhXP8L+q1+eOUV9TLbHvFCd3bOcPa9S1SNI84wL7znXcrudw3HEwBomXyZedk+u5T0n9K2bZPZ1VsBxTum+4w60+wiAqR5XSbvhR4480ZpnX6N2dIKUA2df6+wP19h2UADoJGLHjPlUX5l30VR9Xopv7ivMQYjFz9pDBQ7rmA0nF29ERvGspPK9O2/ViNwXVT+rordTYDsjB3f6rXeHTnOZq4T171nrgH1GrI9ksa1s3M577tmWyr2guQ1oE56PA1b8IDp676ab/CcO8xL+8vD76CuVMNDOewcw24vvIM6cg/VKNa2rjZ5eV90y4AhsnbLAYX0FgX0+iQBfXd346kC6PzxAWl48GQpnBMCSMEU/ayQ4zOeYOOjJ0u/t4830On9sP7/5glSvChgQM3nhge6G8DhtXJ+Z56uo74vnWjyA13H8yyYGJDBf/m5FC91AfqFE0178Wr7PHmSAV7ze8dLy4cKVYVjtjNZETY0jA5G/H//LVJPZ6LtXG9OjT4MTUHp/8kxBtpe57rV/MHx0viYtr825E33//QYqVNvn7S8VjVYDUHTHvpx6H/9Dyld7z3rbfXjEvDj5fj1g7cmvaMKO49M3/6NecDxYr3OiRXbRLEHH0BnF233jirlDbPMbikNmgbI2bpqrII3r7DBeOqAmFea8t5njAqeNJAFouMVohgXdqFG8d9/3CbKA0DstsI7kZvGnSfs7o23Sjqw4tqAPyDjndexZSQrroNdXWg7wHVvGjti4SNmZOBcA21y0tjtJbSjS7UxIGzNRT866fGE0Q1dX5UUaF9hAJyNYYfMu8fsXFNUNVJy88qN1+x+O19uXoXZtBdDOnDEPNl5+iHZtOOgAnpD1wFdOC8gAz47RkrWhABSfFqW8Qz5XH9rTwOe+ju6y5C//6M03Ndd+r3RzYQd8oYGZfBffy59tJyKfRnS+8HuCs7jpHB2Yp4igMYwuI91BujBf/2Z1n+CVJ6dYQxGf9q9Khp8eK3JAHrQn/8pCsiELHrdE38BuiPaUntt2/Kdvi+rwVFj5nwunBGQ8r0ZpjwMSm5LciMMq9QVe+DxN1lA91WgseUVe9p5pcdT6OX4Be22vCL0AaDYGw+PEQixUWrsUJ4hN54v3iEQK6mdpOB5x2yXNVSh0zTuXANfdx4vASTqYTdv9uvDOGAUQltl5ZpwBxCt6rfYlH8kAF3df4UxCnjHbG/lBjQhppBHe7e0qAdtdk0JbzAwc9fvTX/zP+0jr3v7rniatu0rcx5bdRWUNOs1AvpbTRrXTTiINrCFFh40oHbnL6wYLLP3/lkmnXabATTasffQdwdoYrOFswIy7P/571KyOst4mwhAM3Q38eE8zadQ7f/psVK2K7F3snYF0IQ/6q7vaf7PG6le60fHSc3l0d5usoAe8q8/M+EN53Pfl7vpqKDjn+Oiof/xD1F10599nmr7wULtVWnS760TQh66Gjbi606a1dGhZAENIMnjtUtJeeNc88Aj9rUrLB/S7px2gFYvnL0E8frwZCdvUm966I7IO4kRHmizQpt9C9nmCpCy6zfhBwMabRN5CR2wiayTz0vEYNmjb+rmzw0YzQ7bev3saMIWWxgBYts5Cq1JR8CDBpKEbNg4Nr+4j4G+G9DshI6B4hghJ8ItoS24smX2nj+Js8M3XvT4NW8k1B7qAuYYInYqB/SD54Q2fJ695y9mL0LKIWyCQWTj3ugycrWd78ncre9EAI0SB3SOAlo9xLiAXqKg/aQN0AAyb3jQAJrwB3kbHjrZALr1m19I+c4QkAumBgzYTZjDXV8ceQGaWDZeecnKUFsIEwBMYubZhdkhg3B+CKY59XqDFIDEet1lJO1B//Gfo0Db7/UTjEFwn+MlDIkT0kC00+1B0z9F8wNScWaGtP76Fyb04qRZHR1KFtBshzRx7TueaUwwMfE0btUrBjRmsi/mnFhAVzadGvEMq9VrZSutMctfUNCGd2pRUAOxaVu/lOYJFxqgc5ztmtjtmpBLUcVwM7k2Rb3hkk52OyFUQKgBiFU2LTBQZ8hf1mu6GorLQuGbuXdqG3WYv/3XJtTBjt9eZSUi9gWcufN3JsZOmZTP9ZpdzHVEAbSJTzPZanbu3vqV9B6xx+QlzEAcmf/xoPHsB0y7Jqp8L7Hz+YBpV8lgBTCjEe4xdZMG9LlmdhIvLBukZb5lQkexZbAv4fxdnyqYzwsrSUCzcoIVD8R/mbzq/9mxkRhpybosA94oQA8LA1o9XDegB/7uX8zqBfKZctSDLt/TdUCz0oGQQ/npoTJy+wel5f3jpfYaBai2Gw+69uoQTHMbNe1D9aDVU3WXkSygW94LxaCdz4R0orxyHR0UTApKbk1bHkTYghi085lwS90N0caCNjOpSX/2uiP+m6+sfpxKFtDDF9wvU7d86pkG5OoGrVOtl9qBaxUC7UMOsYDupd4ysdaKxnn6OcesxGAY7njfxK3xcvuOP18hFX8LNVZbkI8VDM4xtnCqUgPg3s+PNrJDdv1gPPEcs4Equ2nXDFhtdhPn/wmr3zSac/q/GqAm0z+xGhQO2zDpGCrzbwrs30rLZMI40THzosoRxhA5K0eY3HPgychgymbu1cG2PGqk2HCXUUHkWFiMOjhe1muazNjxW6kbuMEcn7T+w6hJSiZonfCHW9Q9d8vbLkCf1zGg80cHzZAbmNbd1EMGfPFLqWJYr/BhkrDlfYXUvd2lbHum9H7kZOMdJgLowX/7mVmNUb4r0xxvVpjikXu1IVZegEbEmInbVh5KN54zwCzbEvLSqY9JSpbC1V4fio+XqkFx508W0PRD/4+PNatJ6m/XvlHQuldxsMKEkYEb4qjirAxzLh49/dT6TWgVB0avl/ZlxYEM0y/1CmY8/7KdiRkuqx+PkgU0u0vPPePfpLz3bM/0zhQLaGK9wGDgjBtM/JdJs3GrmAhsknKF9hSFLqGIVvUc+0+9wqwuAFbFVaPNqgdWIjSO2mc8XcIThD6csjl39t6/6t+LI8eYHCOUgEdbP3iLGebjmTJZWVwzzizjc0RcnNCDeykhYRAAP2jWTZFjHYnJzKgy1ctnx2zaQayZCTlWqLDLOKGQ0IqL0I7hA6ZfY66dMMfQU+4xoQl2KnfKJjSB8eIanGMI75gwU9O4g2a0w6iHWD9pjEaIu7OTOKGlqXo/ONedv7RuihqSv8r4U69LHNAFkwImPgpsWV6Hh8hSNdIACnFkjrN2lyVtAIa4M8Pzmqt6Sm7foPR9tZuJo1YeTDfrlk2I49tfSOOTmu9Z8p6kcMwILYWLqd9L8QCNJ4+RAPy0mfgwqyRIG/iHfw61U0cApFcfTpecXtH5kwU018SEY5/nwtfAembXTz+L1OCwltk9IYhoU91NPUP59PoJYbDskLz0H33Z59kTzUgFiOeEXzZjdfQIbwrv0SvNS4VlrQqRD8xD35UdvVmf22vYjshnJisJA4w87YnQEruFD0v9kC1m+I9XTbiD5WlMpiEmtgq0DYQqWKLGhBfHh867W6rVG3bvVN175OnGALGczjnGuutG9cpZnkd9/AXwxIqdcxwNVs8SD959rG7QRpl35n8aw+A+nqgGz77FXK/zmYnK0LWFrh1YOjt8E6oAvlwjxqf3SJY1tr2LiOtl6SFLDJ1jiKV4o02ep8w1sMGvk1ZYPtjEpqmPMonts+zSSSeUQp1T1VsfOHxO4oBmDXH+yKCJE+MNE781a5lJZz2zDt/zR2n65IBZzwyQmYjLqdX/WSutnraZ5GItdB35gwbQA776pQlpEJvOH6PHk/jhC4Ae8MkxZgINQ+AcJ8yR26ptUaNCHSxjM6ECTRv4238xsMOTzx8Xvo5wvvyxoR+c9HvthKQATT+wZJD66KNYA5NTFoqvE25xH0csyzNt0b6LXLu2lRUbBdo+0ui3H/IHQVbfnfJLmtvN4nco9fpqBqxSSL9nPFovsHUkVhWw/KvtWI6BAnHY0vqpZiVGaOmXfm91iI7HSpw5IsImCmEAjrcMfEpqxppyGda3lRuCPzFuZ8WKI9pMCIXwAMCKdw148aHVHW3HiJUThiB27D6eqCiT5XRtn/uaScGS2vHG83WuHTlxdq4Rg+Regof4DIwLtEz38Rw9Tl+yIsS0M2pCN8ccY1khZbrbQrwfw0OMvGH4HmkZMDRxQCcqXr7t7GTQmfLVAx/++S+lMhx+SFZ47WYdNeEAF6A70mD12FvUQ+anlrG/o3cAjVfe+7HEXv9oZfVDCE+yZdIlBqBe6UerqvqdFonnHm3COODdA2m8eH6okjCgeUMV70blDVq8wYnXFFaE33rlqKwgtL3MpD6JxZAb1LO+5rZuMuOU6BiwW7xrwHm7liNeorJZ27F5dqasPTVTpkzPknx+neg6J57m3dFdbtjbw7zukTdqudP4sUvFqIDUjQt5tO40P+KdCfQbbV48OFQnL2DhzVv9XC9M4Y1ZvAkrkRewcA8ojzK80uOJF6yzxT31eKXHE69FZMcI3pvr3kYesUu1805d/nenWXkrOLBaApvGSmDHRAnObJbswuReUJXT2ksKlkyXnF7hibucHAmObZDA5nES2KllnjJAsktD4YbgkJpQXaQ52jhG68xta0dsWlknb2VsKtPzPPLVhyfeGkslsGK4BHZPkuDiIZJd1flPpBMRE3tev54Mju/d1g69nuDslrb06kIJLhps+iWwaoRk17VNDgZH1pt2B3ZpO0lrSGITjpJ8CS4cFF2XypTn7hfaMzns8RflSXB+qwRH99J71pbHSD1twkfOqCEpQLP1DXt6sU0LmzKyESQbXbpf1gLE2V3X2U23M7F1zrtnnyjrFTRe6Qgo8Lo/9zHqZCeEZ7aFdkLgHbb7XO+b7UijRwfk4gUZZqdd3vUam84rF3dP6ppHH0+8m5fXQ7JdkbO1Ea98/OzcbuaVk855F83NMNu41xa3LyNW7J32pF47/eCVHk+8IpH+Yhsir3QvYTie13vPdkDc3+c0P/vVkcZL2J00RNoYNUixZVi1KTiwSjLuXC0ZT2+XjCe2SMaTWyU4SyHtca6nKgol87aVknX1aZLdNxQeAVCZ96w1ZWU8tlnSn90uwZUKHNKWDg3V85SmqdJf3CVp7+03oAIwGY97pA3oeHu14LR+Ufkynt8pae/ul+DUvgbGWRfNk4xn9Poe2SgZz+2QwJ7Jkp3ffu32EZGCLuvwAkl/84xQW7QPss4PTfShwN7JkqH9kfHoJnN9WRfOk+zikEHMuGdN6D48vFHSX9kjWZefqv0bvZGypyoLJXDWdEl/4wzJvD16OWPGo5vb+kWV/u6ZknUp7zDR9PICybpgrmTetVqy+3Uc2koK0Oz+wIuoLzolXVYqxG5dkWZ2RHC8KaDJ7gl4pbEeL+qtabynltcjsiUMb6xijzK2gee9sZMaA+YtT+7wCK8rfHB9T/MSbfI0lASNd0n57CpxcFaG8STZdfgDbdvK4W2wqywMmvfAsk29cwxRPvXwEu5dE6NBjGd+/eJ0uXdNT1Mf+7K537cLOKdomcm+4vHyBelmx4xlQ7PMO2c5xnt0/+OqXxjP2jnvBr3OF3edbK6TunnNI+fFeqyId/hy/X+85Nh2afE0UfuYl4ezuwV7pXmd4yVebfm19tci9f55ty07QTgvID9fjcq3F4S2lUcYvkRftP5TFV5lukIwuGaUBNSzy3hqm2TeusLzXC9lXblQ0t7X/HP7t3lhg9UTPmOqgXLw1IEGjpl3rAql9a+U4LJhElw+3CjzzlUGZtnVRQYSUWm3rJD0t/Z1Co/shpKofFnXnKYg0japoQhOaJT01/YaaAZntUjmdUsUgtuMJ+9Zll/l5UjmfWqcFLKh9mi7JrXFqDMUyvRFcN4AyTpnlqS/froE54RWm2A4AqtHqhfc3xiVtA/OVuOjRsYpO44YPQDndD0/48ltUWkYRKdfuB9pn58ngQPhd3jo/QpOapL0l3ZL5k3Lo/LFKilAz1JAs1OBswsC28iw+SLH+cxLu9nJgQfZ2WoGAdn90zMNENjG5sOzTjSg3zs50wD6s3NPMGls7/7OvpPkjpVpMkC9S4DP1unA4Ivzjjc7QbAJI9uXA+hvLzhOVg0P1YPHxh5v1y9JNwBfMYyt3rsbAwKM2JK9n2uLIPaCY+ffWEA/tqm7fHneCQYy1IeH6oQk2O6e66NM+uGOVT2ld4JvlwPQeK28VNw55gVoDBF9AaDZreHB9T3kld2h+th0c3DMZp287P0PFycOaLYSYqRx3eI0szuG1zleOjAz0/TJfB0ZsVvz79Q4nqHlkHaW3lvu0YLWgNkM9dd6X/ZPO7IjkKNNxttTaBgvTh/YrEvmh6DocW6sgtP7Sc9fXyhZ581Rj9T1athc/Z+QRvhv5n3rJOOB9VF5jVoqQwZBgRqVHzWWGq8488ZlEQ8zIemwPePBDSGvUKEfPKVV0t8+04CK9IBCykARgxKb90hIrwOvlVFFcKKCeVB1qB/C6WkfHlAveor5PziiXtJf3WOMpEkvVK+ecI6ORAL71SN+/ywJTo6e9PPUqHoTvjAjFu1Pz3NUeMsG+iNdE6VqUAKnT5Wev7vYGA33+W4lDWjgeu1p6QauwIMNDwEN6QzZ8aCAjht8vJSaLXXIx84KgI3tzfEKATRbw7AtOTsPnDsrU95VSANYvNl56iWyRQ3DfnZLmK4eOLsxxAKaz5zD8BvPnG3U71sbKhPD8fa+E6PCGfEATVydPdkwJNRHexvCL2Fih2BCHwCKMj85p1tkD7LO1BVAM0J4VeFMHbzAnF2DL4rZoy1ZQKNK7R+2midc5ZXuJe4T+7K9q/2IMJwt4R07CFPRZowIBpbdlPvH2c3DKqQAXhwAU68tqA965t1rpOfX53ueGytg3vPrC9TDjV5R4BYx7fRX90rgvPZrpfEuMQZAs12aet7p75wpgXWj2zzzBITHTFgksH2i5ssxRsTUcfYMCaonTrgBL5I4sFd+3wLQD22Q9Jd369+Nkqn/A08nrp/+5j4TDjLx9q3jJe3Tg3oPwh5tc4W2b45k3L9O74med9UiE4aIKt9LClkMYcbjhDPiAFpHLtTFCCK7ICa801gmaV+dL1kYQ/dxl5IGNDve4qm+e+ZJxgtmOxt21HXOwUOLBTTgBsgXK1yALt4s26MDK+NBHzzBeHWkUQexWifmzG65DPlvWhb9S79YQDPhxsaUxKQBEHDDA8aI4BVjBICS8zL9eIDG+75XwU6s2H0cEdZgHzG2yifs8rV6lGwcGXuel7oK6NuWp5k20Q9cG7F/51zUFUAj2pMMoAmnvKMAxnDh0fMdYE6CNIwacOaesl3/62pQ2Q4otgyrNgWnNBlPNf0VBcpzO4xHl/Zl6CfFnQnPGG80LkAVLsRaTVx7XPv3YmTcS5xagdInerNhk6aGIuPZHZ2HN2KE54pBiMStm8ok8+blJszBSIFrTPvsXBPvjs2bjAhLANCsaxebkIqZlCRN+yKwZqQxCIH9M/QatY+0PcHpobh+1mEdoWifmbY8sVXSPlFAHwj/4ATPWf8njpz+/E7JvH+9BIcm9pZA1BGgs86dJT1/o17yeI/16tpmwhzE7tulhZU0oNktGC/urOmhXWwdQDryAjTblzMx9tGBbuqFEcY4Uc7UITDgAdBsquhAipgxIQTH200U0IQvnt1+spk4K1VA//nwsSYccu1paUbEdpepV+4H0OxoTPvZrPPs8PXjScee5yUvQLPjMX3l3g35doU/53F9APq6JW3v3qB+IO18Rt8FoDGUscskqZsQFKGkmc1BE8e+a3XonmAE3zrjRBnbEDR71jFaYYWMO79VjHT4DaQD2ydIYNt440EDM89zY4R3yGSWVxrhBeCU9q5656e0Gm/Wnc7wnvAIQ3n3cZM2rE5hclFbrDRWhAI8jhNX7vn7S6Im5YzxUMgFNowxoYTABfNMzNusVnHlTVaBNaNMbD39hZ2SrtDPOhR6x3KsWCWR/uHZIS+aY0AYgO/StmybYDxl+j2Sh1BPrxIJrhwuaeRzpyG835hnwlFcQKuHzH0yYZ/YtLAwCBkKaa801OUYNKs1gAUg6+uK7bIxJNBxr4Jg364rFNDEPJlYwjserIAkDUAzSegsFYsFNMAklgw0AQdLxICHAbR6xZQ1uU/AeLYYAEIvQBjoM3FIGGVEPVAJRIbkiA0cmSSMXa1BHXeuYnVED/O/I9KIs7JlO21mpQexVj+Apl+4httWpJlRxhgFHF4/oRmuEUCzQoX+JfYM+AgPucs90oCu1n5lboFJW/fWXS/pCIi2sBcek5fcS0IZpHFdfBfY0ZiYPIYy1pBYxYjvVDjGyxIts7Lg6s5fdo+yrl+iw+Zz2w/DdTidefOyUIhCwQ+MTSzWSVejkHn7KhOPJQ4dlVfTsm5ZYTxLr9UbwRnNxgt1T7wZqQHI0uF7Tx2qZw+MeU8HUCMMoG2gXkBGGyPpxfkKzIkdxmDbqbHUhE9oD8oeFJ501P40sef6ErPChetP/+Cs0JI60lk9Qnu0flZTYAzNsjeWGc7oF5osLSswywLTPj7HLH106qQfsw7NVuh7v0o1HqAxBPR13AlHrY+6GBF5pqtaBgxSMB9UnZscoPmM50eYY9ekLAMeNnm8b20P+c+rf2Ee4Ft0eI5XxdI3IOQsi2Mb91s1jWVanQEaSFxzWrqJfRPCAPSswADQf73sGBMXpUxWSFy/JM2URz420wR2j6rnhxEhL8N00tgx+AH1+v506bGmnaxGIXZOGsKIcF3kwYOd2hRKY1hPPQD0kU09jBHwA2h0jQKfuojpsmzx7X0nGTiSBqDxVImtA0dGLxgGd/4jDWjuCTF/2opxdI5jAGknfcnyPP53rv2cmdFptHmfnSTsWCy1unyh8a5Y3cCyOJateZ4bo6BCBI+VtbXu44Et46TnNxdK2kcHJP3ZHZLO0rEH237Qgcee9sUhs1KhnWet4AX6xLdj01DWlYukx58Ot/NYg+MazCqGrCsWRudTIOKtMjLg2swyu63qlbqW2TERh8eedanW6eTrqhS+mXeu1tHFRsl8QEcYhA7uWSPBwSGAB5cMDS1BfGST8WrNKAEDWVts4JrJBOf969VQaj7uhSskQVyd+QGMTKQ+lzwBXVMUuXZAHJUWFnMAPf54abv76FYboEOQ7hDQLDvbqR6ns/6Vz8RgWfOMR816ZZZXXTo/Qy5UCJ49I9N4hsQoASmhAdYDX6wgxxvcrXkBLWXg5VJmo5YJnN3raPmRB8vJCJPgIRMLBh6XhOsBEICK447Xh7e8Y0KmXKV5yLdH201bSGM1Bu285BTNPy9DDmh+Z+kbIvxBCOZqhSerT4aFt0tnNQfXRiwbiGJUEv1RRjxAN5Vnm9UQpBM6WjMyYCY5SQPQd6qRuFjbiWGiTkI+7vxdBTRLId2xb0f8uvLQ7AyzCsPtQdfr8V3ahxg++oCRC/eONLxqvhekHdY0fqwSuzW/VYwUDoQZmLhisoqlaPFCCO1UUWBWZ7DEy+21AllWDABg1vmiwNlt4YrgsNrQpGFL+8lF80OWg7OiPVx3OksBFYCx3i7ruYn7ZrfGeN2sUlDv1VyftonleLFriwNnTJEe/3qFCUe4j3dJ6kETlmANc9Zlp0pg37RQ/D28koNRCm3JunieBJkAVYCafCXqxXMfrtB8mtdMamIo8fzDZeOZZ16/VIKrR0aOuRVYOypUpvt4mZbLj1OIuYdH4FFqKg+t/lBlV0X/PN6tlv4K6L0OoA92DOiuijgvM/9AYURdUJYOCa3McJZpJSLCDLX60BPi8EqPJ0DRFVgQYmDI7vYiARajAfcPcxIVE6RMsD6xubuZJHWnsZ07UHbXhQA0YCaNn8+70xCeNV7w77sA6HjiGumvco/6EJOxsUbCnYa80qw8BLD41Z1rOViiCo7qZR7urGsWR/0q7jsTwGLVSDJtxUOlbXnehofJvowXdpklel7pSQsPvqLQ22MlvKHesmddXFNlnHxOemNZ3OtIWtovhEzMuvDpHY+avhdA450ShiCOfMfKnmbyDrFkzuv8o1GEVy6al268UzxMr3Ni9fGBbiYc45WGzlbvnpEAIxKvdKujW3jdJmzgsRrjxyBCHMGZ0T+R/kkI73r9aB2VqHcduw49RhFAhyH9nQCaZXiEQZiQIzZpJvaaAlG/0DvaRR/UlwSNnNBAZ6KvmNz0SkOEFpwyvdKtjnLxcPN+C9dw/Ecl2v1jbbsfEQXgviUQ0mp2A1r1nQDaysrKyip5AegdFtBWVlZWqScLaCsrK6sUlQW0lZWVVYrKAbQDaQtoKysrqxSRBbSVlZVVisoC2srKyipF5QY0soC2srKyShFZQFtZWVmlqKIBfVD+f7MKNr+QPESnAAAAAElFTkSuQmCC;" vertex="1" parent="1">
          <mxGeometry x="634.75" y="908.25" width="140.49" height="80" as="geometry" />
        </mxCell>
        <mxCell id="6bSPFQIg_zKgYMIiMJCl-54" value="" style="edgeStyle=orthogonalEdgeStyle;rounded=0;orthogonalLoop=1;jettySize=auto;html=1;fontSize=18;" edge="1" parent="1" source="6bSPFQIg_zKgYMIiMJCl-53" target="6bSPFQIg_zKgYMIiMJCl-52">
          <mxGeometry relative="1" as="geometry" />
        </mxCell>
        <mxCell id="6bSPFQIg_zKgYMIiMJCl-53" value="" style="shape=mxgraph.signs.healthcare.brain;html=1;pointerEvents=1;fillColor=#000000;strokeColor=none;verticalLabelPosition=bottom;verticalAlign=top;align=center;fontSize=18;" vertex="1" parent="1">
          <mxGeometry x="656" y="720" width="98" height="85" as="geometry" />
        </mxCell>
        <mxCell id="6bSPFQIg_zKgYMIiMJCl-55" value="" style="shape=flexArrow;endArrow=classic;html=1;fillColor=#f5f5f5;strokeColor=#666666;" edge="1" parent="1">
          <mxGeometry width="50" height="50" relative="1" as="geometry">
            <mxPoint x="430" y="600" as="sourcePoint" />
            <mxPoint x="350" y="679" as="targetPoint" />
          </mxGeometry>
        </mxCell>
        <mxCell id="6bSPFQIg_zKgYMIiMJCl-56" value="" style="shape=flexArrow;endArrow=classic;html=1;fillColor=#f5f5f5;strokeColor=#666666;entryX=0.094;entryY=-0.004;entryDx=0;entryDy=0;entryPerimeter=0;" edge="1" parent="1" target="6bSPFQIg_zKgYMIiMJCl-50">
          <mxGeometry width="50" height="50" relative="1" as="geometry">
            <mxPoint x="540" y="600" as="sourcePoint" />
            <mxPoint x="377.4699999999998" y="690" as="targetPoint" />
          </mxGeometry>
        </mxCell>
        <mxCell id="6bSPFQIg_zKgYMIiMJCl-57" value="OnEvent" style="text;html=1;strokeColor=none;fillColor=none;align=center;verticalAlign=middle;whiteSpace=wrap;rounded=0;fontSize=18;" vertex="1" parent="1">
          <mxGeometry x="400" y="630" width="40" height="20" as="geometry" />
        </mxCell>
        <mxCell id="6bSPFQIg_zKgYMIiMJCl-58" value="TouchScreen" style="text;html=1;strokeColor=none;fillColor=none;align=center;verticalAlign=middle;whiteSpace=wrap;rounded=0;fontSize=18;" vertex="1" parent="1">
          <mxGeometry x="594.75" y="630" width="40" height="20" as="geometry" />
        </mxCell>
        <mxCell id="6bSPFQIg_zKgYMIiMJCl-59" value="keyboard" style="text;html=1;strokeColor=none;fillColor=none;align=center;verticalAlign=middle;whiteSpace=wrap;rounded=0;fontSize=18;" vertex="1" parent="1">
          <mxGeometry x="207.39" y="690" width="40" height="20" as="geometry" />
        </mxCell>
        <mxCell id="6bSPFQIg_zKgYMIiMJCl-60" value="mouse&lt;span style=&quot;color: rgba(0 , 0 , 0 , 0) ; font-family: monospace ; font-size: 0px&quot;&gt;%3CmxGraphModel%3E%3Croot%3E%3CmxCell%20id%3D%220%22%2F%3E%3CmxCell%20id%3D%221%22%20parent%3D%220%22%2F%3E%3CmxCell%20id%3D%222%22%20value%3D%22keyboard%22%20style%3D%22text%3Bhtml%3D1%3BstrokeColor%3Dnone%3BfillColor%3Dnone%3Balign%3Dcenter%3BverticalAlign%3Dmiddle%3BwhiteSpace%3Dwrap%3Brounded%3D0%3BfontSize%3D18%3B%22%20vertex%3D%221%22%20parent%3D%221%22%3E%3CmxGeometry%20x%3D%22207.39%22%20y%3D%22690%22%20width%3D%2240%22%20height%3D%2220%22%20as%3D%22geometry%22%2F%3E%3C%2FmxCell%3E%3C%2Froot%3E%3C%2FmxGraphModel%3E&lt;/span&gt;" style="text;html=1;strokeColor=none;fillColor=none;align=center;verticalAlign=middle;whiteSpace=wrap;rounded=0;fontSize=18;" vertex="1" parent="1">
          <mxGeometry x="349.29999999999995" y="690" width="40" height="20" as="geometry" />
        </mxCell>
        <mxCell id="6bSPFQIg_zKgYMIiMJCl-61" value="DPad" style="text;html=1;strokeColor=none;fillColor=none;align=center;verticalAlign=middle;whiteSpace=wrap;rounded=0;fontSize=18;" vertex="1" parent="1">
          <mxGeometry x="493.74" y="690" width="40" height="20" as="geometry" />
        </mxCell>
        <mxCell id="6bSPFQIg_zKgYMIiMJCl-62" value="VPad" style="text;html=1;strokeColor=none;fillColor=none;align=center;verticalAlign=middle;whiteSpace=wrap;rounded=0;fontSize=18;" vertex="1" parent="1">
          <mxGeometry x="685" y="690" width="40" height="20" as="geometry" />
        </mxCell>
        <mxCell id="6bSPFQIg_zKgYMIiMJCl-63" value="Visualizer" style="text;html=1;strokeColor=none;fillColor=none;align=center;verticalAlign=middle;whiteSpace=wrap;rounded=0;fontSize=18;fontStyle=1" vertex="1" parent="1">
          <mxGeometry x="178.39" y="880" width="40" height="20" as="geometry" />
        </mxCell>
        <mxCell id="6bSPFQIg_zKgYMIiMJCl-65" value="" style="rounded=1;whiteSpace=wrap;html=1;fillColor=#dae8fc;strokeColor=#6c8ebf;" vertex="1" parent="1">
          <mxGeometry x="98.73" y="1100" width="760" height="190" as="geometry" />
        </mxCell>
        <mxCell id="6bSPFQIg_zKgYMIiMJCl-67" value="" style="shape=image;verticalLabelPosition=bottom;labelBackgroundColor=#ffffff;verticalAlign=top;aspect=fixed;imageAspect=0;image=data:image/png,iVBORw0KGgoAAAANSUhEUgAAAggAAAEWCAYAAAADyG8VAAAgAElEQVR4Xu29B3hkV3nH/d7p6tre7HXHDbDpNRAIEHBw6CXABwTTOyGUj8BDIMBHJyEQeoAQEgihd7ApAUw3GIx72V1vL1rtqk7/nt97daSrq5nRHGkkjUbvyeNIO3NP+58r3v95a3CXS//fqlgzBAwBQ8AQMAQMAUMggkBgBMHeB0PAEDAEDAFDwBCIIxDc49K/rybElAiteDWqEkhR0jpUQiqSklIrhrUxOgCB9b0JSSYCOXKyPGs3uXQgk8XGf3+D3QmZKFQlX6rKpr6EpNMJ2T8Uvlsb+hJybKQyB6GebCAD3QnZf3z2fPEH1/cmZWi08TP14B/sScjoZFUqlapUWvw/IV2ZQAqlqpQrIqmESKkiEohIJh1Ifh68ouvtzwUymq/Kxr6kFMtVOT42gxWfVatVGR6vyCkb0oopz8zBqCchiUDk6OhM3w29CQmCQI6PleWU9Wk5MFySdFJkvFCVaoux6IDXvy22UJFAStP/+1ySlMz9u2mLhbbRIoJ7XvpKIwgtOhAIQkEyUwShLGkjCC1CdvUPs3NDSoXdvuMzpDGbCuS8U7Jy4/68DHQnVRCOFSoyka/KYE8yfI+CGcE4nq/I8FhFNvUn5fDJsgq9TCYh+48VpTcbyFBE+N3ptKwcGynLibGKjOVn/w9hLhPIht6kTBbCeSaLFTk0XJINfeGcpXJVsmmIR1k2DyT1+rDvWEkJB8LUtTtsz8jJsbIK3Y39Se2XSQWh4BwtCwSCvnuPzSXKWwZSkkqKHD5Rks39KSUAo5NlxQESBaGCuECgtq1Ly64jBRnsTsrIZEXArSc3s75SWVRAbx1I6U/XwHPTQEr3cdqmtGJ504HCNJnZsT4lQSCSL1RlNF+RvlxCcY021niHbVklK7uPFKQ49fWpG9JKLkYnK0rcBrqSMjRWlp0b03LzwcLqf2E7cAcVSUxf4JICQVgYMe5AaOpuaRZBqJSLa2nvLd9rPQ1CkEhKECRaPp8NuHoQOGVDSgXooeHytL4uGYicsz0rN+zLy+mb0jI8XpbeXEJJwNZ1KenrSsjvbptUATpZqMipG9Nyw/6CEoQT4wgmnkvLvqNF4fWqRHjAnU/PyYGhomonRiZmEwTmqFSrsrE/pX2Oj5ZUaEIGIAaHj5dkQ39STk5ARlIqCK/bV1ABG9UU7FifVhJw26GC5DIJ6c4E0pNNyL6homzoT0l/V0IF640HCnNu1Ts3pOXoaEmFfSIIJJsOlBAgtPcNlaQrk5DxQkUKxapiceB4SZIJ0c/RqBwdKcu6nqSUq1VJJQLZP/U9JMw1tCisi/2fsj4l6VSgBCGZDKRYqsq2wZQkEqK/owlY1xuSEzQVbp9oBc7amtF9QHTAApKwbV1ILibyFSUJG/pScnC4JBeempVr9+ZNi9CGf5pGEPwPZRZBOHrDd6VSmvAfxXo0RKD/lHtIbmCHobSGEdiOgEqK7D4yc8NFEJ21NS1DI2UVzBACbspnbcnKiYmKTBbKsnUwLYdPFGVssqq3YSRPdzYhtx4qyjnbMypU3W394PDMjWhdT0I2D6SUUMQbBOG0jWk5cLwoSDk0E6jFz9ySluGxsgq+ge6U3HwwL2dszqhKf8+xomzuT8qhEzNzcMtHC8EN/rRNKRmZrEoiqMrQaEU1CRAZBO1th+dePM7cnJFsWuTG/QU5fUtatSasA9Jx6+GC7NyUlmpF9DZ+1paMHBouyo4NGSU2mAJO3RjurTeL6UZUswHJujUyF4QGQQ7h4DuIABqcs7dmdFzGYN+Hh8ty9vaM3HqwIF3ZhJRKVdVUuAa5YI7dR0tyxua07mfHhpRA8A4cL8s529Oy6xAkqyqcM2djrf0QMILgfyZGEPwx8+5hBMEbso7rgIBJBoEUYjZuhPF8NmtuwoWSqH0c4Y5ggkDQIBVxDQGfo17n9sztNt64tZcrVVXr1+vfzAEwDmvCjDDfHuLjoXlAU1KvMTYaF+CCSDEHP1Pc/mv4CdQbB7MBJhY0FGhLMAe4hp8DDS0LppYTU+QoqoXge8wcPDkR8X3ATINOkM8wfZycKEsuFei/W+2P0cxZ2DPzI2AEYX6M4k+sOoLQna3KQ+46IWduy0smJXL5VT1y1c2h3b9dmxGEdj2Z5VvXVtTZgagq3DWE4B12ZOXmA3lVnXPrHpusyGSpqvZwhDif0w/1OLd7breo7xlnY19CSQD+Adjk+d41VN2MdehESR0co415UKePT1ZUKzGeL6tqHb+EQhlTRailODaCqSGlan60FP3dCTVtuHbujqwcOVHSeQZ6ElIsiaSTgfoWoNngM4Tt0Zhdn/7Mn01JOG9faH5BkCOo0ahAIJiT/YHd7qNF9U8YnSirsyfE5uhISTbRt1JVkwOmGPbrmmoQBlPqV4CZACpz477CtIkHfwGoByQKoY6pgnGiDWJ33o6sah/QbKAtoeHToA6OYxU9HzBF64BJZs9R0yAs319W8zMZQWgeK/dk2xKETCYjhcKMerQrU5UHXFiUv3vikIxPVuXvP7pZbjkQOlW1oiUSCUkmk5JKpfQ//s3/AJTLZSkWi1IqlaQSNfJ6TGoEwQOsDn00jCpIziII6oOwLSs37M+rwEHAI/iOj1Zk6/qUCuSrbpkUHPpwJMTTHpW8+iCoCaIi29anZW8NgXTR6Tn9vFipysmIUAde9UGohCYLBDg+CGgTcEJkjdyksdNjdyfKAbJw9a7JOSeD9z6C/JZDBSUy3MgZe/9QUdb3pfQzyMKfbp9rk8fJDwHPrTuRCDQ6gXWyBgQ6BGnaB2EwdD6M+iAcGcGRMalaAT6PEi+3UOeDMDpRUVMDc9yMP8SUxmPLQFI1EpATiAFOn1ETCuNAeDC9qHliqKQaILQljvBxBpwF5hz8JMwHoX3/gI0g+J9NTYKAF/LAwICOhnAcGxvT37u7uwXBTRsZGVHhGX0WITo6Ouq/iho9enp6puftyVblAy86Lnc7d0T+v//eLJ//cVfL1HisP5fLKSmYnJzU/cYbxKGrq0s/Hh8f9yYKRhBa8kqs6kFw4OvrTmq0wDQ7D0SINth9uDgtiPccwf6e0Zt8oVCRrmwgI+MVVWFDEFSI9iTl1kMFOV39A8IIBITl3qnQR8bHbr5hICV/3DU5528FIY6Nf2ikpH+/oWo9UPs6RGQyX5F1fWm59VBeztySkfF8eHvmNh4VxAhJ5ie07/RN4Vq43R88XlRbPt8jQG85VJwTSI0fAFqRWw7k5YwtoRMg68Dpcu+xomxfl5ZiuaI+Bedtz8jtR4uydX1a1fo4FOJgeduhvPTmQiFPNAQ+GTfsm7lUaBRD/5Tz4M6smhIgCHfcmZVr9uTlnG0Z1dIg2PGJuP1YUXGAuBGR4Brz4wR6/b6CnLc9K9fty8s5WzMaJLfvWFHO3JrRSBI0EWdvy8r1+/Kr+l3t1MUbQfA/2boEYXBwUEfjFh8lCNlsVj8/efLkLILAHxYEAeLQiuYIwoa+qrz9siG5eX9aPv39Xjl4vHXRAJAC9pPP53Xt8zWIAmSCZ+nTbDOC0CxSnfscN2mkJDf1aHP29Xo753tusQgyTO84OvIZBAL/hUwymGVXnyYfaq/Hb2HuyNz00SDkS6JRBFG7fKMTiK+Vmzs3eOcf4BP+j8Mj5oV4XzeHjl0NfRui8/I5Wo9auNXy5xjAR2MyNAMwl/ad8vuIngmaDHCAtEBWoo1IB+aLzgv54LNiJfRRwJFTczeUQ6dNa+2HgBEE/zNpW4Iw0N8jf3b+UXns/cbksz/olSt+n/PfXYMeTthPTEx4awTQJmBuaJYkGEFo6dGtysHIMUB4Hrdp1xD23NB3HynqLRhhj1pd8xBkElIpV9W3AIKAUOPmjDDCfk8fwvy6UekfK6oT3lh+RrDdYVtGhSv28DgBwNaO+YKogS2Dac0/EEZCJFULgCBEy8BnaCtUS5DHL2H2HNzA0V5wMyeagHkQ4NjjXcgmwrKWoyThkOyFmzpmBZ5De4HDH6YW1sJP9rWxL9RcEDaJnwL76lVTTNgXIhFqVmY7PiLAiSo4PFySs1VbEOZBcCgR2cBYrJX14KsBxrPIQSCqwYDYYUpxDoynbw77kmMBsxAmCCUJWbQZxhDa8Y/UCIL/qbQlQdjQX5EnPFDkr+5xSJ729q1yYjz0Nm5Vw78ADQXmEPwMFtIgCWgSapkk4uMZQVgIwp3VB4e87evDEDnXnA/C9fsJJ0yrAx7EAB8EbOYIxD/snlR1Oo54W/pTmlPA+SAUi/gqhD4ICP1ohMTFp2c1pBKtw8nx2QIL4R9IVdb1pfQWjDMiURJ9uZB8EHLILZpoAeaGJPz2lgl1CuY513DyYyzMHfzkBt2TTcrB4aIKTSUBU/4L8T8zwiyPjpY12gJihH8AvgIQgmM4RHYlG/og4ATJHJAnTeQ0VNI8DJg7XIPQ4AcBQcHcgbaE8EYXZYAPAr4WEDF8Ghr5IIAHJMVlcWS8MMmS+SCslr9UIwj+J9WWBOGfnjEsp2wSed4/D876HyT/7dXugS8F/gYLdTp0o0b9JBqtzQhCq05u9Y6D8xqC+vZIVkHU3tjDudVun0q8w60Z4QhRQPI54Y6aHL8BcgDgb7D/eKhByJB2+Rge/rOzAHJjRiDi1BgPC0SYk/mwXKoK6WeHx0rqKLh1IClBIpDjI2WNXsCuv2UwJSPjZc0fQJRD1MsfwlOtVOT4eEX9E2gIbJwU+7qSMtib1L5R3wh3guQ2KFUqettG2NKOniSbY0o1B/3dRFRU5NDxMAIBHwSICloXzBrplOhzuXRIEvYPl2TnxtSsPBMQGjDClHHhzpxAqG44UNA8CGB+1pZQC3BkpCTresjjUJZCMTTNuGgNzuiCU7KakAn/BjQHmoNia0Y/QzuBQ+ZYHi1MRc4/JSvX4pS5el/Vjl25EQT/o60bxdDX16ejcUNGmNKwv6fTYa0B/BIQsPgeICj5idMiTnyLbT25qqQzvTJ8MnSObGXD7wBHy1asEywwVTh86q3TCEIrT3B1joVgw2odF9YII3e7JqMg36Oix+eAm67ekKf8D7ixcuPnb43nIACa2a8SpmSOxu/zb9T9tXwQiEogoRFmA55BvY9A4ybPvEzicjbo/NUwZ4Kz/7sTcHZ91s9zJAqiabBPEOZi4JNaNnkIEWSDm7kK/Sl/A81zMOULwHDs0/lg8B0jsic+o6/DxGEVx3c94ZLjFXU8dD4IzMcYbn2sF8wZj/wGaAmiuQzYNw18XV8+YzXgwjmgvUGDwTPz1dZYnW/w6l+1EQT/M2yLMMdaDkfN3s59t4xpAN+BxWoP9H/ug0B6e3vnNVUYQfA9pc57fvtgUtXt0Sx7CCjqDBw8UZpOAlQoVVTAIgwR1gjz7gw2eooKhaF9aAvwZUAToAWZhigUNNvZkNs0t+to7H5UsKN6x2eA2zs3cXIZ4O+AcIQQkH8Aez/PsSaEvBOibpwztqQ1dTS5GVJTSZM0ZwO+FFPJiehXK7ERQhWHQNT/uj8SN035XLAWfCQwOWACwC+BkEiwQIjznDMdYNaASCCU4yYG1olm48jJ0nS65F2HZyIq8EGA1AyNVGTjQJh/gfTS0QYBOXtLmEOBs3PEgbBUGnkgCHEEQ+VWJLGKhZV23tu8OndkBMH/3LxMDP7DL7zHUhGEVo/bDOEwgrDw96BTeuKkiI07mvqYWyiFgAiLC0MMq1obQPMgrEspAbhx/6QM9oS+AjjuoRp3tRgQ5JsHCQssSFeaRD0ziu2LT89pcaFylfwCc30QuAljw08lw4RIOOhlkqLjEeGAAyCCF5+EjQMpueqWCSGvAJURpwnC5rSSAZfEKPRBSKjQxKcAfwLMJVfvnpyTaZH9MgfEgH0yDmSBGzjEBBMDJANtAiQG+7/LDgkp4ln+jSkDQkWIIumlowWr3Howz1DIifXU8kEoN5EHgWRRmDGcDwKmF8gQDpwQAnJVsEZMRrXyPnTKe7ya92EEwf/01hRBwDkRge7CNhvBhVWU/1mdz5aIuQJtRKMwSSMI/i9mp/XoSovG+EedFBEwarPem5czNqXDjIeBaObCTYMpyaUScsO+SbW9IyzxQSCOH/8BSAS3WuL8yRvAjTzqoIfdnIgIogzimRQRyJABIgHKldAHgfwFfI4Wgdh+kiiRw6A7S+KkkgpeBG50LHwQIBr4KoR+E4EmPsIHYV1vKJCPnSypij/eqPGgRaIqopoBfApYK3sNzQ6hFoI9kZBp3/GirhnNBuuEIPCM01i4KAeXgpr5IE0u2oGIC/6WtdhVX1gNEy0LH0Ig0EowNpkRIW7OTMDv5+/Iqgnh1oNFTQyFaQTtAxoeyAFEjbwPR07g62AEoV3/do0g+J/MshIEVPL4ADTT8HeYz7bvxmkmkoBnm/U/oKzS/XFKEpHfozNs0PBDgHg0Cnk0gtDMiXf2M2QoRNWO0Is2hB2f85a5dL08i3B24YYThUroc5AOKx8izEcmwhBEkhohvOgbFd4IT+zpteo0cMvnP0L6ELBkW0RQchvnRowWI51KaClnBCyaBNT+zB+1rztfCQ07zIXqf83RwM9EMF3DIFr4yO391A1hcSeSIzEH+4MsQFDQeLAWxg1/T+i8rBkhT7RHb1cYBql5IfDJKIWaiPhcOF4eOllWcsP4GpI5RTCIcqBRcAosdS1TGRyjfhMQDfbD2bm+LgU2JAzNDuvEVAKeUZLS2W/16tqdEQT/81oRgsAf9HzNJTCa7zm+j6ZkbqgVaNJBcbuI3LdalZtE5GojCM0cgT0zDwII7G3rkrLn6OxaAdGiRepoqHmAo8l8AiHZDzkCxgpVwekOIco4jLm+L6HVCBHqUSdFbsnczFG9x4sHcSvmeYQg9nNs76EzYDgGSyBsks9wotTPqmGfaLZxVP+YCZxjI9/x5+KcLZmHfrWKF+XSjDs1x1RSJOdoyG0e4Y0wpz/EYDSPSSHUGECIMC9EHQ1Zo0ubHD2KDb0JrfS4Y11K+0UrXhJKigMo35O4Cc1AVAvDOC6XAqBgYnAOpRrmKFU5Nop5Iam1J5zTojkptuf/HBhB8D+XZSUIPstrta+A/rEHgaaLbsbE0OxaMTGoJ3mNFM1uDNMgNItm5z63Y31KBR15DFwjURDhd5gRKOuMQOUGfGIs9EHQKATNRyCaE4HbPcQAHwRu/zyDMMYkwC32YCSNM3kQSJIECYg73nELxobOeJgQypWK3H6kpLkXNKqhEqr4GQ9VOiGQ19ye13mjSYAIpSwWEbqEGKJyF00URP+hk2XZRJ6BREKu2TM5x1RHmCNUhPwF1GUgZBAhqyGcQyW16eO8id8Djpy3HCyoDwfCnDoNEIjDJ0uycwNpqavqW8BaoyYczC74K3Cjx1kRjcccH4REGHmAE2S9PAisNV+q6Lpc0qnpPAhTPgiuUJSFObbv37ARBP+zqRvF0N/fr6NhW29FSKDv0paCILCGVo/bTE4FIwi+p99Zz4cFfzLSkwvkd7fOCEtuw+duD50UqaswMl5SOzgCHaHI81ffNql+Bqiy8UEgFt8lSiqQKGldWgkCZodotMCddubk2GhJyQZOf9EGQeAqTK4DCAQ+CJBnSAhaB3wadqxPT0UxhBUmsdmjTYiq3nkGAc7z9EONj+odHwTyGWhGxbGy3szjvjyaKGkk1ILwH06N+DIgaCFJ7Ic94xQIcaFeQrRYk0uUxLjpRKB5GuJpoyERqP3xEyB/ARqQm/YXlFyMTlY19wRngGmGOcl0SfImSBdaDBqaijtszyhR23WkpMmiyFh5yobUtOkF0wPE5uCJstzx1Kz8ae/c4lSd9Uavzt0YQfA/t7YIc6y17FYLcjdHM1EHzcJoYY7NImXPgQACOH6bJ7oBAaNCckqgImy4qVIepDdH5EBF7fpahbEa+iogIElBjH8CavEwimGGCCAYIRgkCYo3TBTcrIdHKegQ+gzQ1uPTUAx/x3+BNMKsRUMsx8IwyGjaZMIKyQOAiYGERKwZNTuCHXMAz6OSZ63xBkFAMEMSiJRQTQllrrtxwAzLPWsq49GwDLX6XHQnlWjgV4FTJH3Bwgn5dX1hqKJrrMWRC+ZwToVoCiAtbg72BJasE8xYl4tWYCyIQ5jqOiQCWsp66jPWQl80OqwFTCBT1toPASMI/mdSkyCkgpw8Y/vPdbTdE/8nlw+9zH/kRfZYKoLQrKNiM8u3REnNoGTPgAC2cFTZqMijLR4ZEEcLIUdOABzpEMCQDG7KpAbmu3W9CRkanRslQG0E1P16e49d37HVaynziqjA05DGKXu7e3S+IlKsEyGJdkILNoV+jtqa6YvmgURNcc2C68secZ6MJjEiXxF5EZxTZ72+UQxxcEQDAkGA6ERzFBAWCeFiD5AjSFA0XbUbh+cCCetGuAa5YKc4TIIh46LhsGJN7fv3bgTB/2zqEIQued6p1+hot45fId8++lz/kRfZY6kIAsvCLECRpoXWYXBba3aNZmJY5MvQAd2xj6MmjxZO6s0GcqczuuXGfZMq+CldjF2dWymObzyLeYFwwI39JCUqqg8AJgZu1ufuyMl4vqypltFERNM4X3R6TlX9aATikQzc7LGrHz6B70JKExbdsDcvZ2/PyNhERe3tFHHCN4I5KIS060hBHf2iaZPP3ZGVE6MlvVmftS0j45MV1Tzg13DzgbyaRPBzuOnA3BLq5EEgEuH6fZNaIhkCdPREUU7fktUS0KdszMjuw6HfwbYNabl+76ScujGjfhX4buzYkJYb9k7KeTvCMs7khzh3R0au2zu73DMhoRAoQiUxkUR9EPAjQPsAcSCMc31vYk6hJcgUaZXRKOwbmil8hXmChgaHaIyNfQnV1pxj5Z7b9q/VCIL/0axJgkBYonNWXChJwFSBY2IzZaKNIPi/mJ3WgxBBBBJVGF1DOGmiJIo1bUrLcUL6qKI4NlWsqTshv71lUh32CHs8NeaDwGfbpoo1xfG66LSc5g5AsMUJgpoqKlXNdeB8ELgN93ejIg/rPOBfQG0C8hpwk98/NFdtzjNoNxDk1I5AvY4jJv1Ru4d+BGU5eHyuD8LODWmtgaAhhEHog3D0ZFn9AtB6oK7HVEFOCHA7MDzjg4Dmgme49ZMJkXnIgxDXXEDAWBf7P2V9SrM9kkcCcwHaE0Igne8GhKu2k6Jo7YaQIJTCcMxqaLqgcQaYjYiCODBcFmpukNdigTXgOu21b6v9GEHwP441SRCAaTHlnsnRALGwcs/+L9xa7YGJgayFh07MhDmqjXx9WoZGSmqvpxYCtmwiEhBC3Gy5wXIL54ZN8aMJTX+MD0J448UHYGS8Ij1dgSZPmlGLUwqapEUzoXnuOwgCdnXnD8ENPDRXhHZ6fBJwOsSej2YC4ejs7lETCVoP1lgoY6oISzZDehgXAQ/ZQeWOL0O8oUHA90L9HPqYV3Rv5ERAY8FPzAuYPzYPELUR5iDQCoqaEyH0w8ikEtPRH2hdomGMrAVBDnmAZLBWbvk7NqRk37EwGiTMtVDRcFFMDDiJlsoVdWJ0jYgP8CGRkxtP+4qoE+iGvtARkrapLyV7js3VmKzV976d9m0Ewf801ixBiJIEBH0zmgBIBfkZKErVLDlgHtMg+L+YndYDmzrCPh5REI8MqLVvbuZag4AwwkyYKMk5C+JrgBNjvCGg8biPCjr3DNoMNAiET9br3wz+qPpZl6ZumC/laGxA7PoI/XqNnAyuiBSCfqqGlO6dMMpmG/sbL1bULOESJbm+4MpIEA7Ix7Q/RWxwnqPNKiU99ZlLvERfzph/eyyv2W3Ycy1AwAiCP4h1nRT/n20/USecPZP/J1cM/Z3/yIvs0ax9f5HTaHeEPvkMEPqYDaJmB5f9kWf4nJBPX7OEEYRWnNLqHgOv/UMn8AmY2QfC/o47c3LT/ryWbe4lcmC0rEIG1T3Cl5svZIDbOPkG8LDHrn7oRFnLFXN7xweB56MRC4Q54uXP7ThOSiAIhOmh0sfHgVv5rYfCPALchLn1o34npwB2fzIM4qAXL/eM/Z+6C0RPkOeBdaIF4faPKYW1Y6NnrfHGDZyohNsOFeRUjWioqAPn6RtTsutoSWsnuJLWaFluOpCX7YOhDwQREtvWp3TNmCowgbh8CvgouAaxYA04dFJciX9jYnAC3JXYzhPmSP2HrtkYMg5hjudsz+pZ7DlC6exw9GiY40SxqhoZNBD4RrAua+2HgBEE/zNp2zBHBHazGRL9tz23B34JaAiIcuB3l+2ROgtoDNAw8HMhzQjCQlDrrD4Ic26qUSc/ShDj1HbD/vyUcCbMLoxK2L4+pSmGf3/bpOYGwHEQm7/WEugPveb5jHwJ5CGIl3vGSfH2YwUNlayVKAmSSx6EKmr8sZKq+CEAWlPgZEl/J8EQPxn7un2FOeWeT9mQ1kgGhDyVKrvTYWgjzpiYK/BHQFNxw4HCHA0Dgv3oaEmyyUAjE3CUxJzgwhLJp1DPBwFhjGkCkwv7QKsAQSBUNJoLAjMEJgOqQjIufg4QBBdxgUnCaSQYr16ipDOViFVl/7FIoiRyKEz5IIATGSnZt+VBaN+/WyMI/mfTtgTBfyvt28MIQvuezXKtjEx+JOpBkLnGzR1bPH4ChMohrNQHgRj7RGgGqEzZ+Llhu7LC3NDRFuCkh3GcaoxEQETzDTBfLhvIniPFWSmYmRt1OimbUZmjYicMkLUgIDXsT8stMx5EIaWREkdHqDkw2yyAfwLEAl8CSAu/E+qHsEXAcyOn75GRWsWaQsKEs6HrOzJe1nlPToQ/8RlAy4HPAEmU0DiAIUlLuzKikQeYUtAooOFgz/gbuIb5BnKFgyPaEcjD3mNh1kc0DWg9IAtgDpYnJkhZHSjmrmoluKD9gYjsOVaajuRwfcEcEnVyMkzqhDaErI/W2g8BIwj+Z7IsBAGPf27gRA6Mjo5Kb2+vFmLC2e/kyZP6x8fNHbMCWgNu8jwXbYzB584EQA4CbvSuoBOZH92YmFZI9mgAACAASURBVAr4npTKtcwBLllSX1/f9PyMzfyEP7JOty63BtbKMy5NM8+4xhzOabHWfEYQ/F/MTuvB7ZYWveHyb2dfb7RfVyMB4a11FChONJXpDz+DwoxMnB6GcePZFd2XmDZCZ0TRComYKRbSWIvmQFhAZxwPo2mb40MA11QNKSUvzsehGbyiY/VroinKaM/kfpghEOFn7EHrOFRmajxEx8DMQMMHxDX2zolO14CoVDWKo1ZuhwXAY12WAAEjCP6gLgtBePKTnyxHjx5VAbtp0yZZv369/PKXv5QzzzxTvva1r6nQfcQjHqE/L774Yi3J/I53vGPWbl7ykpfIWWedJb/4xS9keHhY7nOf+yjpeOtb36p/5He/+93l1FNPlf3798sFF1wgu3fvlhtvvFFuv/32WeMMDg7KM57xDLnmmmv0ue9///ty/fXXy+Me9zjZunWrHDlyRMnFd7/7XV2za8973vNkaGhIvvCFL+hHz3rWs3T+s88+W0nLN7/5TSUWP/3pT+ecghEE/xez03ogPKidcOuhGRs5t987bM/KrQfzKgRRh3N7R/jn0vgg4CEfetAjkBCokIX1/Un1wse7ntC9A8eKahqIhjNSE4CbPZ738eJBCDxMAJgesNETIUH+BfwRSPyDoFzfG97aeQ7fAsINyTIYdXokD8KBqVwLmEPwj0CwY1oghBG/iHwhzKwYb6j/e3JJNWeEWRjDSA1u/PgMoEXhZk9GSPbJjd8VtoIscGsnIoT1oWnB5EIkBcWToo2bPvsg1TX9yJfgCM1O0iVTHXISksAlBe3H7P7gft72jPog4JPhSMLOTSklFvh40PDrwNeDvUS1RJ32Hq/m/RhB8D+9JScICPtzzjlHBe/DHvYwvaWPjIzIrbfeKtu3b1dBjL2f7wYGBmTHjh1y/Phx+cQnPqFahRMnTuiuIAg8/9///d9KBO51r3upIH/Pe96j2oZLLrlEfv3rX8uWLVuUZHzmM5+Ru971rvLzn4cZIV0799xzlWjQFw0C5ABSAUFBe8DnBw8elKuvvlr/7eaHIOzdu1cJBUQHQoF/woUXXqhDv/nNb5ZnPvOZ8pGPfMQIgv972PE98HDHDr4rkgcB4UMeBHwQcKJDEONtjw8Cz2JKuPb2vJofuPFjYrgx4oOgn+G4d7SoNvxoemB8EHCqQ9HghJgDGRMDN3HCKSEmpFyGRHCrxzRA/QTCHE+Ml9XvAQfKq26dUHW+S8vMWKjT+3MJufVwQc0WrL0ni+AuqskD4Y1J4Opdk3N8EFDbu3LTjMv6CRncPJiU24+W1P8CgUv6ZYjVAZwTkwjiME10WJo5qZ+xB5JE6Q2+MKPP6KE2BMRpsqJOj9lM6IPgnBSdDwI4Yuqo64OwecoHoVGxpikfBMuD0L5/ykYQ/M9myQkCS3rCE56gN/+73OUucsUVV8hDH/pQ2bNnj5x22mnyjW98QxDakIJ73vOectttt8nmzZvl2muvVW3D7373O90VGgLMCFdddZX+3LZtmxINyMWxY8fkIQ95iAr6jRs36jPnn3++koOoFoBxuOU/7WlPk89+9rNKShD497///eXKK6+UBzzgAdr3fve7n3zve99TEsJP2nnnnafr+tOf/qSmEcgKBAbtAf8R5QBRYd3xZhoE/xez03ogfBG8UXOAJkranpHbDhX1lowmjEJAmADQJvA9jnsQCT7nNow9nVsqt2IVypmEHDweFkuKphHGtwHhjLCNCnVwpR/+Ac5Z7+R4WC4awoCqnfwHmj4YX4CupPA9IYnxWhIkcNJcAOOhcEVQY0pBa9HXhcMjQj/sG29nbM5okqHh8dCGzzjMO9CTVI0D4YlkkuQziMjB4yUlTIwPTqwXTJwPAngQ3RGN5CCiglTUaCTO3pJRzQhY4wCqUQ8b02q7IPqAAk7MB8kK60mERIMzIFES1SZ3HS5O+zTgx8A6iDohwoToBnA4Z1tGC2otxOzSae98u+3HCIL/iSwLQfBfVmf1MILQWee5kN0gPGm++QLoE7XBx8dpZJOP9ouuGTLBrRlh6GvTj47TTM2FelgRYhh1KIw/V29s3znJcDhdTTJSL8Lh6s7EYUUUBmae+D5hDdGz0+Oc+sz1xSyCtgK/BGvth4ARBP8zMYLgj5l3DyMI3pB1XAdunNx6uYW6hmaAcD8y7yFkUlPOh8gX5wCI2p4bP1oAfAY0C2JPUm3y3Hr5nds1z7sYfcYnrBInRezmtRwjsZmHeRbSWuvBVYQknA9ByPf4BOhzpBeuoB2IzbE1o9oL5k0E1bAUdIDjY1gRMZ0SITJ4yp9y1pniXMn6eC6XEqGgJIIV7QnzkoKZNSWTob8BmgHWoqmOK6LmDL7Pasbj8PbPZ3F/C4gIvgqYcuhLLQbXiGyAKKFBAFeXiyG6UFeSG+0D0QnOPIGGpkyWyNFQy4IPBTiggUHrY639EDCC4H8mRhD8MfPuYQTBG7KO64DARniQx8A11OPnnZKVG/blNXwOAUPgISmTsbsj8EiO5LIwIjxxciQskKRCoaNfQkP3+C7qpKh5EI4UVPDW8kFAICLw06lQMBKaiDBljTg3arnnk2UtuMRn5GOIl3s+fXNayQBkZWN/WPgIB0VKMyNIUfkTPVDLBwHhjDAfmyS1dEqJBeYI/CxIshQWWSprCCNY8Fl/F6QmLJsNmSAMEn8E5uJ7fB6ioZ6QDE3dPOWMCY7RYk0zPgiiSaUa5kEoUY8ikgeB9MukfS5UNF8E6+asLjjFajG06x+vEQT/k2lIELDV79y5Uz7/+c+r5z9Oeh/96Ef9Z2myRzrolrv2vFJ25b8n53Q9Svbm/0/25H8g6USPFCujEkjokZSQhCSDnExWjssduy+TY6Xfy4HCr5ucZe5j+BK8/vWvlz/+8Y/yxS9+cfqBRz7ykep38PWvf11wUuTnTTfdpFkXcV5sNqOiEYQFH03HdNy5MaWCDGHumt5Od2TUcQ5nQFT+GtpXrapmIJ0O5PYjRfXkx2EPmzl5DahdgNocAU++ACIJEH5jEQe9c7dnVADXimKAHKifQyrQ2z1+AEQfaC6GJBkbi6rZ4HaMLwC2dXIOxJ0AcaTEJ4BIhMHu0GEQJ8IDx4k4SCrBwe8iHlnA/iEIqOOJjsCGj3blMMWaBlNatArfCoQvRIi1kFURB0ocDdMJl+I5TJIEiUA491FfIlJOm/khE+RIOHNzRmG/6WBB9wkhOnVDGqOPrgOTAedBZcYgwPwSnlLoSIr/gmhCqDA/RFlzKXBO7E8TPSUDHZPsktfts2JN7fiHawTB/1QaEoSXv/zl6pD3s5/9TB7+8IfrHwSCdKlaJuiTzem7SSkYk+5gm5ze9WCpVIpSqI7JROmEdKUGJKimpCe1SY4Wr5fdk5dLRQoymNkpt41/f8HLYo/ve9/7NOTy29/+9vQ4H/zgB9Up8ctf/rK85S1v0ciIRz/60Ro++bGPfUydE5tpRhCaQamzn5lyQZjjvOY+Z/f8jnmBsHutbxDLk+Ds7+4nQh0BH7WHR1Gs54OgGQ6rVVXlR53p1L/BfRCxr/MZH9cbjzmj9RKmh5gar5bDHtUV8UGAEEX9IKLjMG4UgyiGtXwnan1GkiVu/uEGQj+CWbhNzeE+I5QSkhGtpxDFN7o+8NDcFFPnQH0JSF40kqKz3+rVtTsjCP7n1ZAgvOAFL9B8AXe72930xkz+AsL44kmM/Ket3SNKEAYT58o5PZfIWOmQXDf+BdmRvbf0J06TVKJLDhWullsmvyw9iVOlUB1eNEEgtTI5EAhTfPvb367RC7/61a/kpS99qSZMIuyRkEeeueWWWzQq401vepNGUTTTjCA0g1JnP4NARN0erRWAgMGJjloFjYQ8NnjU/ggeMiCiNt9ztKSClZLNaAniwhtzAZqCWw4V5jjN0Y+GcCMSAQ2AK4YUFe5xh8q4gyA3cPpix3eFlZToxBz6ap2sFmMiydIUwXHzOgGMRsSVVnbRExCnBAmNyrOdK6eJU415qSmBZuIsLdlcUdxcIw8CBAuNAGYbwktdESz3DGOfsQVtgWiIqsMEDQK5E9DkcIauyiV+CVFNTme/1atrd0YQ/M+rIUFAUGJiIDSRMMJDhw7Jj3/8Y/9ZmuyRCXrlwp6/lVsmvq6E4PbJn0sySMnW7F1l18QVMpA6XU0L+cqwjJR3SyrolVOy95OCDMvuiR80OcvcxzAxoBkgqRJhjvz+la98RYkRWR8J0cTcgCaFUE0SJH3nO9/RPAjNNCMIzaDU2c+cvjEtwZSTohOGqMAv3JmT6/fmVcgQsjtRrOgNlrBH1O6EAlIvgXh+BBLx/ggzcghg98c/YN+xotr++cw1fBDIj0Aho7gPAr4E2NsRtKjyEWqE/RH+h4DmFsznh4aLctqmjN68r7s9r/b+aLnns7ZkdE1oAiioxO+YIRDszAl5gSyQyyGuRSAPAuNS7IlcDpUypo6SbBpIy+1Hw0JPEB9CJbevSyvRIbUz4+J7gSkD9T44QVBwxoyXe4ZkEDaJiYQ0zK4Ww3QehMFUePufJw/CWVtD809DH4Qpoqcmhr1z99vZb/fq2J0RBP9zajsnxUDSUpXmVPd6WxFisRHUzQlrf4gW38MIwuIxXO0jYJ9HSCHgXXMe8jceyKudHVs4QmyC2gYDKc1toImSpnID4DCIvwLEAE95zAT8DkGIp1UmYQ+EgeRD8WqOaBYQjAhPnP2Gx9BGBOrbgD3/9mNFOXd7VrMrIvDJg4AfQbwYEoQCYkJWR0gHEQWsef8QfhIpzVFAhEQtH4R4oiQyQh4eLgn5EYg6oC/Ok6QuZh4KITE/RAmCQM4HfnKjhyRBUuJRDER54L/Bs6dtCjU44IcvA5goIRLReajI2JMJ/RXQGriMia6aIwmbdh8p6FxEXlCoisnVj6JUVV8HNEGWKKl9/1KNIPifTUOCEK2oSJZDahy42gf+U83fgxsU81BSmds5yYdc7QP3HeYNbvCtbmgRyPrIfKRjJp1zVEMAFq6aIxkY+b7ZZgShWaQ69zmEGwI9HiOPwOHmjbbACSaEUqUaKs5xknPqewiFquSxfVdECBVEkHEjpk80zDFesyGKLMIcwUhCIpcsie9x/iMhELf9ZOBqE8ysG5KjoYxTzZkqGENDGqc4ujNXQFpq7ZnuCNgjJ4oalcC4oXNm6BTIntxe+VzNEeVw3wpSZL8uLwTPZdNoP2a/Q5gRIGU4EtKRcRyRYF4a63YhnCSholhUdJ9aiyEI1+Dm4DPm5jP2DvZkleQ8ce601n4IGEHwP5OGBOGpT32qZjpEKL/4xS/WzIGkNl6qhuB9/OMfr3UU8At47GMfK1/60pdk3bp1uo4HPehBcvjwYfnNb37T0iWQXvnVr361Oiiyhg0bNug80boK1HxgLThr8jk+CZhfeI7Uy2Ro/Na3vlUzssEIQkuPywZbJAIIYYRx1BFvkUN6d6+Vs8B7kCY6OKLRbGZD30RM0SUsJulUE1uxRxaJgBEEfwAbEoSnP/3p6tmPM94b3/hGvVEjKJv13vddDsIZuz8aAkcW+P1///d/9fZO/QZSKbeaIFAf4jWveY0K/R/96EfymMc8RkM78UegXXrppep78Pvf/16e+MQnargnER04L55xxhmqTeBZsLJqjr6nbs8bAoaAIbD0CBhB8Me4IUF4ylOeomGOP/zhD+VJT3qSqvzx8sfUsBQNUuDqMVx22WVaeAkyQkEl1oDpAfV/qwkC5oM3vOENal5A0LNnTCmufDQaFIgLToz8RFsAKSAnwkUXXaSVKaknQagk5arjzTQIS/G22JiGgCFgCDSPgBGE5rFyTzYkCBAChCWCGfs8t3l+X6qG4H3FK14hH/jAB1RbATl47WtfK+9973tVWL/sZS/TZEUQhlY35qZBfiAqaE0wHeD7wGeYV9AOYI7gd7BgjfzOf2g4nL+EEYRWn46NZwgYAobA4hAwguCPX9tFMcS34BwG/bfWPj1Mg9A+Z2ErMQQMgbWJgBEE/3Nve4Lgv6X262EEof3OxFZkCBgCawsBIwj+520EwR8z7x5GELwhsw6GgCFgCLQUASMI/nAaQfDHzLuHEQRvyKyDIWAIGAItRcAIgj+cRhD8MfPuYQTBGzLrYAgYAoZASxEwguAPpxEEf8y8exhB8IbMOhgChoAh0FIEjCD4w2kEwR8z7x5GELwhsw6GgCFgCLQUASMI/nAaQfDHzLuHEQRvyKyDIWAIGAItRcAIgj+cRhD8MfPuYQTBGzLrYAgYAoZASxEwguAPpxEEf8y8exhB8IbMOhgChoAh0FIEjCD4w2kEwR8z7x5GELwhsw6GgCFgCLQUASMI/nAaQfDHzLuHEQRvyKyDIWAIGAItRcAIgj+cRhD8MfPuYQTBGzLrYAgYAoZASxEwguAPpxEEf8y8exhB8IbMOhgChoAh0FIEjCD4w2kEwR8z7x5GELwhsw6GgCFgCLQUASMI/nDOIggjB6+VaqXoP4r1UASqEggvIS2QqiSkor93DZ4m6e5BQ8kQMAQMAUNghRAwguAP/CyC4N/dekQRgCAUJKMfJaQsaSkZQIaAIWAIGAJtgIARBP9DMILgj1ndHkYQWgimDWUIGAKGQAsRMILgD2bMxPAnqZbt1usPY9ijKiIVServ2e510r1ux0KHsn6GgCFgCBgCLUTACII/mOak6I9ZUz1yg6dL/46Lm3rWHjIEDAFDwBBYWgSMIPjjawTBH7OmehhBaAome8gQMAQMgWVBwAiCP8w1CUIQBDI4GHrdFwoFGRsbmx45l8tJV1eX/ntiYmL693w+L6lUSpLJUMU+OTkpPEsbGRmRUqkk2WxWuru753zPHIlEQvvX65tOp6W3t3fO98ViUarVqmQyoXNgdN7R0VHhe8bt6+vT71kn66CxpnK5PP3vkydP6r9b0YwgtAJFG8MQMAQMgdYgYATBH0cjCEYQ/N8a62EIGAKGwCpDwAiC/4HVJQgDAwM6GjfwuAbBaQait3Vu5tzy0QTEb+rc5Lmtc8tvRoMQveW7vozd09MzZ2zWR+P7+Lys22kQnPYhrkGoVCrT2gc0HaZB8H+JrIchYAgYAu2OgBEE/xOq64Pg1P2o7zE5uIZAdSSg3u88G/0OoetMD4xHc2M2ei46b3SMaJ/4eFEI6OPW7+aP9+V7tx/3PM+6uevNW2uPbi18ZyYG/5fRehgChoAhsFQIGEHwR3ZeEwM3cHc7R1jiL+Drg8BN3t3+GQ/hCwFBoHKjdxoJnkPDwPdoHJyg5jm+a8YHIQrBQn0QWKvzaYiuPap9gGiARdzPws1vBMH/ZbQehoAhYAgsFQJGEPyRNYJQwwfBCIL/i2Q9DAFDwBBoZwSMIPifTl0TA1oCbvJoDZwKnps8/3bmB2757vfoc66f0wBw03ZaCG7efO9U+NExotqKqCmAbTGGu9XH1f5879YYNUtw43frcjf9uEaEPUWjJ5xPgvssqjWIr4+x3b7wx6CvaRD8X0LrYQgYAobAUiNgBMEf4Xk1CG7IqICOhjQiYPnOhQ7i6OdCCqPCn+cIi2zGSTEeIunGcz4CzjwRHW98fFxNH1GCgEDHzOAb5mgaBP8XyXoYAoaAIdDOCBhB8D8dIwhmYvB/a6yHIWAIGAKrDAEjCP4HVtfE4G7tbsi4KQDzAWp9NAN851Tt3OSdliAevRB1SIxqJLjpM5aLNIh+Fx0PFT7zueei6n9+xwQRj3ygP8+7NcVNDIwZXTtrRhNRK2lTdF3O3GJOiv4vnfUwBAwBQ2C5ETCC4I94XYLgBGp0yKjAjwpa52NQKzSwHmFAMEdt+NHxohEMzB+fy/ki8BzEwvkfxLfvfBB8YcFcUousxE0mjGsEwRdde94QMAQMgeVHwAiCP+ZNmxgYOiogo2mW+R2hWkujMDw8PCttM7d158SI4HcCNjoePgiM5whH1CchSjggJghyJ8zj23dhjr6wmA+CL2L2vCFgCBgC7Y2AEQT/8zGCUAMzIwj+L5L1MAQMAUOgnREwguB/OjUJQiJIycX9l5HvcNaIhcqo3Jj/H72xY4PHTBD9HQ0Ct/7od/HIAzcgz0V9CqIhlPwezXAY/S7eJ+pzEN8+GoZaqZOdiYJxXarmaF++b8bEEA35xJxhYY7+L6D1MAQMAUNgORAwguCPck2CkAq65HmnXjNntNHSYfn80IPaKpNioy3XMjFEK1ViMiEsM95Mg+D/IlkPQ8AQMATaGQEjCP6nYwTBCIL/W2M9DAFDwBBYZQgYQfA/sNo+CJKUHbl7zxmtXC3IoeJVkkyElRPLFcITQzNEs0WdWl2sqdGWnXkj/ky0EFUtE0S0WFOjglQ4XFoUg/9LZz0MAUPAEFhuBIwg+CM+r5NiPG/ABcHz5W4Dz9OZvjP0fBlK/8Z/1kX2iEY1sD5Ih/MriH7XimJN0aVasaZFHpx1NwQMAUNghRAwguAPvBGEeTIpGkHwf6mshyFgCBgC7YaAEQT/E6lLEAYGBnS0eIGi8+Q5cpf+Z+t33z/+YhlK/9Z/1kX2iGsQGC5aNClaPpr1Y1JwpaKjWgDMC/zntA84LPJvnBTdeI0IAmO7GhRoK3B6dM3KPS/ykK27IWAIGAItRMAIgj+YdTMp+g9lPaIIGEGw98EQMAQMgfZBwAiC/1kYQfDHrKkeRhCagskeMgQMAUNgWRAwguAPsxEEf8ya6mEEoSmY7CFDwBAwBJYFASMI/jAbQfDHrKkeRhCagskeMgQMAUNgWRAwguAPsxEEf8ya6mEEoSmY7CFDwBAwBJYFASMI/jAbQfDHrKkeRhCagskeMgQMAUNgWRAwguAPsxEEf8ya6mEEoSmY7CFDwBAwBJYFASMI/jDPSxDIEUBVxLvc5S5yyy23yMmTJ6crNvpP17gHhZTIYcB8ZEckfwG/u9bV1SXxqomtWgNzU40ymnqZXAh8Tr4D5ib/QrRiY6O5jSC06mRsHEPAEDAEFo+AEQR/DBsShB07dsgb3/hGef7zny/PfOYz5aabbpLh4WF56EMfKv/1X/8lBw8e9J+xQY++vj55xjOeIddff70+9ehHP1o+97nPCUmbrrjiCv33zTffLL/5TWvTO0MCnvWsZ8mePXvk+9///vQKX/7ylytR+cEPfiD3uc995Etf+pLs3LlTtm7dKt/73vdmJUaKb8sIQktfDRvMEDAEDIFFIWAEwR++hgQBgXy/+91P3v3ud8s97nEPOXHihFx33XXy4Ac/WP7nf/7Hf7Z5ekAQ7na3u6ngJfPh4x//eL2xf/nLX9bb+2233SYbN25sOUFgWWRE/PM//3P57ne/O60hec5zniNDQ0Pypz/9SR73uMfJz3/+c8Xjmmuuka9+9asNtQlGEFr+etiAhoAhYAgsGAEjCP7QNSQIL3zhC/XWzO361ltvVfMCQvLpT3+6fPSjH5WJiQn/GefRIEAQ9u/fL5dddpmcffbZKqB///vfy69+9Ss5evSobNiwYckIwgMf+ED5yU9+Iu985zvl1a9+tbzkJS9Rkwdk4LTTTlPSggblkY98pLzuda/T3+s1IwgtfTVsMEPAEDAEFoWAEQR/+BoSBGoSjI+Py7p167ReAer2w4cPy7Zt21Rwc6tvZevu7pYXv/jF8uEPf1ht/sz9qle9Sv8NOcDUcfnll8u1117bymmnx3J+BuzvwIEDatqg9PPY2JgSk0OHDulPtBpHjhxpuAYjCEtyRDaoIWAIGAILQsAIgj9s8zop+g/Z2h6Qk+PHj7d20GUYzQjCMoBsUxgChoAh0CQCRhCaBCryWEOCsH37dr0x7969Wy688EL5xS9+oVqEhz3sYerMd/rpp8sjHvEI+fd//3dVv3PLX0wjauGCCy7QmzrRBMyPtoDfcSQ8//zzZd++fQ1V+wuZn7HZHxESmA2Y99ixY9Lf36/z4oPgGpqUO93pTmpyOeOMM+T222+f3jfYEAmBhsEIwkJOwvoYAoaAIbA0CBhB8Me1IUHASe873/mOCuUvfOELsmvXLvmXf/kXede73qV+CDgPoopHgF566aXy3ve+V77+9a/7r2KqB06K97rXvTS0EXU/Too4RuKLgB8EZAW1f6ujGJgeJ0X2+6EPfUjufOc7q5AnqgE/jLe97W1KjGj4HzzxiU+Uz3/+80pmWOsDHvAANcH80z/9k7z+9a9XH4bfXLNX+ndcvGAsrKMhYAgYAoZA6xAwguCPZUOCgMDGsx8hvXnzZhXOn/zkJ+UjH/mIvOAFL5BLLrlEvva1r2m+gic96Uny2c9+1n8FkR4uigHfBqIVnvCEJ+jcn/70p2XTpk0a/rhUUQyPetSjVGuAluTtb3+7vOlNb9I9oy1xPhHMTUQHOOC8iWZj/fr1GnqJduNnP/uZnHPOOepQecPuE0YQFvU2WGdDwBAwBFqHgBEEfywbEgRu83e4wx3Usx+hiBMhKnW0BQhIBOgf//hHnfVv/uZv5Kc//al+v9AGQfjrv/5rNV/wkwRFd73rXeV3v/udhh8ihEdGRuTXv/71Qqeo2Y+ESORfwERCzgPCONGEQBr4Dm0B2oWPfexjSoYgLpg+0DSgQcFxk9wI+Epgdrj66qtl96G8EYSWnpINZggYAobAwhEwguCPXVs5KSKMScL0wx/+cDqEknDHT3ziEyqYuc27cEf/rS5vD/NBWF68bTZDwBAwBBohYATB//1omiAgoFGpO1u8/1Rrq4cRhLV13rZbQ8AQaG8EjCD4n09DgoB9Hae7V77yleokiFqd/8iqiNkBr/9WtnTQI3fqfr7sL14pZ2QfLiU5Kb8deb9kExtlsnJUgiApgf5fUrLBBhmr7JE75J4s47JX9k7+ZMFLwcGQpEj4PnzrW98SUiyTCOmxj32s+hSQbhpihIaDlNPUpcB5k2gGzB9XXXWVkidMFCRUwqkz2bPDTAwLPhHraAgYAoZAaxEwguCPZ0OC8Jd/+Zfqtf+GN7xB7n//+6vDIHZ2k/26kAAAIABJREFUnBNR++PU18qWCfpkc/puUgrGpDvYJjtzfy4JCeRY8UbJBuskk+iXRJCUVJCVffmfy7Hi9VKWcRnM7JTbxmdqKPiuiWyJz372s+WUU06Rf/iHf9Cohbe85S1KCiAL/O4afhKQB4jEc5/7XCUK+B2ceuqpmsQJnwkiIQ6fTBhB8D0Ie94QMAQMgSVCwAiCP7ANCQKZC2+44QYVfqRVhiD89re/VQfC//zP/1Qnwla2aYIgY7Iudb6c2/PXMlS4SW6d+I5sSJ8r61LnSSbRI/vzv5Zd+W9KT2KnFKrDiyYI7GFwcFCe9rSnyQc+8AGNYnjrW9+qzorkgCDV88UXX6w/KdpEuCf+EBSrwmcC50wcKCkoRXjkli1b5Iqf/ckIQitfDhvLEDAEDIFFIGAEwR+8hgSBLIaQAjz0yROA8CNKATU6nvukIG5lyyT65CHr/lX+b/j1kg6yMlI+IIEkpCe5WU6W9ko20a/mhbIUpFgZkUSQlnv3v0b2Fn4quyYuX9RS2BNJktgvAp5UypAGPmPfVLbEdMBnPAMefAYOJFPi3y7sEYyCrm1GEBZ1ItbZEDAEDIHWIWAEwR/Lpp0U/Yde2z3MSXFtn7/t3hAwBNoLASMI/ufRkCCQnAj7OgmKuFXfdNNNelu+973vrQmF0Czw+ze/+U2teki1x8W0hKRkU/oiOVneI4OpM2S4tEsmKocbDrkhdYGMVw7JRGXh/hDsCcdD1o/5gAyJOGNiNsCMwv5dw1GRtMxkj+Q5TBC1qjoaQVjMm2B9DQFDwBBoLQJGEPzxnDfVMlkMSSdMGuU//OEP6pz35Cc/WT74wQ9q2mXSEd94442aPIlEQhCHhbaok2JvsFMu6nuG/OT4W+SM3F/KjRNfke7EVjUr9CS2yPr0GfKb0fdIT3Lron0QMA+QKImaEpCCF73oRVpFEnLwvOc9T97//vdPh3fe97731SySpJ4m6oHy10RA0P7jP/5Dq1F+6lOfkl0HJ83EsNAXwfoZAoaAIdBiBIwg+APakCBQ+wCHxGuuuUbOPfdczaT48Y9/fMlSLcejGE7PPUQSQUL+MPJJuUPP4yQT9EpCkjJSOiDXT/yX5BKbWuKkSIElwhmJ2HjPe94j73jHOzRyAR8MEjX94z/+oyKLxoTPCf8kYdMtt9yi2RTRJpBxkgyP1GUAo71HS0YQ/N9H62EIGAKGwJIgYATBH9aGBOHP/uzPVPBdeeWVmlaZ6oZ48r/iFa/Qgk0UUSIfAo2b9re//W3VKCy0QRC2pO8pY5UDck7ucTJW3S+l6qhkZL0cLv1WNqXuIqlEtwwXb5aDxZ9LLtgiQVCVgcyORYU5YjZAAwIhIHyTAk2f+cxntFIl9Rf+7d/+TbUEfAchgEh84xvfkPvd735qYsBR0VV2xImRSo/X7xo2grDQF8H6GQKGgCHQYgSMIPgD2lZOiskgJxf1PFeuGfuUFKrN+TOc3/1UOVT4jQyVbvDf/RL2MB+EJQTXhjYEDAFDwBMBIwiegIlIWxEE/+W3bw8jCO17NrYyQ8AQWHsIGEHwP3MjCP6YNdXDCEJTMNlDhoAhYAgsCwJGEPxhNoLgj1lTPYwgNAWTPWQIGAKGwLIgYATBH2YjCP6YNdXDCEJTMNlDhoAhYAgsCwJGEPxhnkUQKqVJkWrVfxTroQhUJJCipPX3ZCKQTDJhyBgChoAhYAi0AQJGEPwPYRZB8O9uPaIIVCWQgmT0o4SUJS0lA8gQMAQMAUOgDRAwguB/CEYQ/DGr28MIQgvBtKEMAUPAEGghAkYQ/ME0HwR/zFa8x6YLHqU1MawZAoaAIWAINIeAEYTmcIo+ZQTBH7MV72EEYcWPwBZgCBgCqwwBIwj+B2YEwR+zFe9hBGHFj8AWYAgYAqsMASMI/gdmBMEfsxXvYQRhxY/AFmAIGAKrDAEjCP4H1pAg9PX1SSqVqjtqPp+X8fFx71mpCkmJ5XqtXC7LyZPN1WLwnrwDOhhB6IBDtC0YAobAsiJgBMEf7lVFECg/vWXLFtm1a5e85jWvka6uLvnkJz8p1113nf/OW9CDMtFUsTxy5Ih88YtflGq1qs6DfHb06FH5xS9+IS9/+cu18uWhQ4daMGM4hBGElkFpAxkChsAaQcAIgv9BryqCsHPnTjnzzDPlRz/6kZafvv/97y9f+tKX/Hfdoh6nnHKKPP3pT9e1vPGNb5QTJ04oaaF0NETmwIED8pWvfEUuueQS+drXvtaiWY0gtAxIG8gQMATWDAJGEPyPetURhAsuuEB+/OMfC+aPdiMIkANIwmMe8xjZtGmT7N27Vy6//HJ54AMfaATB/920HoaAIWAItAwBIwj+UDYkCJlMRlCj12v4ChSLRe9Z0+m0JJPJuv1Q1ePfEG/r16+X1772tfLHP/5RvvrVr8o555wjv/3tb73nb1UHzAnPfvaz1Zzw5S9/WZ773OfKxz72Mf1saGhIrrzySjWFvPWtb1UzRKuamRhahaSNYwgYAmsFASMI/idtUQz+mK14DyMIK34EtgBDwBBYZQgYQfA/sJaYGAYGBlTTMDExIZOTk3NWkcvl1DbvohMsisH/oKI9jCAsDj/rbQgYAmsPASMI/me+qgjCRRddJC94wQtk9+7dAsnYsWOHvPOd75Trr7/ef+ct6NHT0yMf+tCHZHR0VF72spepuQXzybvf/W45duyYOlM+5CEPka9//evy61//ugUzhkMYQWgZlDaQIWAIrBEEjCD4H/SqIggXX3yx/MM//IN897vfVae/lXZSPO2009QhkWgG/AyOHz+uxAVSQMQFfgdf+MIX5NGPfnRLoy2MIPi/6NbDEDAE1jYCRhD8z39V+SBAEBDGZ5xxhnz+859fcYKwbt06efOb36zmlb//+7+XJzzhCfK5z31OXvWqV6k55aqrrhLMKyMjI/LDH/7Q/3Tq9DCC0DIobSBDwBBYIwgYQfA/6HkJApEM3IppZE0sFAr+szToQUZF/BNQz4+NjTUcm6gB/kMgI4Ddz5YuyHMwzAysBd+LrVu3ysGDBzUEk0gM8ILQEO5YqVQ8R67/uBGElkFpAxkChsAaQcAIgv9BN0UQEIKOINQKP/SfNuyBsO/v71dBj0AlvXIrBelC19Xu/YwgtPsJ2foMAUOg3RAwguB/IitGEBwpwKkPAoJmAg0C+RG4kddqPDc4OCj79u3THAgPetCDVKW/lHUb0ApgIjjvvPOUzERNBXe6053U1+Bb3/qWPPnJT5Zvf/vbMjw8PGfpd77znVW78L3vfW/6u3PPPVdI+kSmRUwTP/3pTwVtzeHDh+etb2EEwf9Ftx6GgCGwthEwguB//jUJAjd7BDHNCW5+j4YnIpTrCfL5luHMCmgNEL78pPX29mpxqOic0bEQxvgfkEnxgx/8oHzmM5+Rq6++WsMrl6JBCF7ykpfI2972Nnnxi1+syZs++tGPTk9FEiSiFRDqYMba/vmf/3nWUvgcx0qeIS00SZVoL33pS7Xv/v37hRoTp59+uu7pRS96kUZBNGpGEJbitG1MQ8AQ6GQEjCD4n+6KEAQ0AdyWaYQI4n+ARoF8CjTMDKQsjrdoLQZ+pxDSv/7rv8ptt93mv/MmenDLf8ADHqDZEZ/61KcqcSEqgfWj7fi7v/s7LRRFWmUcEh/+8IfPEe4QhFe84hW6xl/+8peqYcA34YUvfKFce+21qpWAJPzFX/yFvOMd75gmCUYQmjgge8QQMAQMgSYRMILQJFCRx+oSBCesEd6upDPOhE6wc/NfqAYBMoC2ACKAoMXMUCqVVHuAloLPaqVwPvXUU+VTn/qUahDOP/98dQb827/925amMY5CyBrRErzhDW+Q17/+9apVed3rXief/exnNR8DZoW73/3uSgCoKon24JprrpH73ve+s2ovQCQwiaAdwCSCNuKv/uqvlBRAFD7+8Y/r59/85jc1lfSb3vQm0yD4v8vWwxAwBAyBuggYQfB/Obx8EBDcrY5iQMhDDCALmC2cuaHeVriRR9t8z/tDMrvHtm3b1DzA+pibn85PwkVV8Bmkh5+YT/g8nlGSz1hro75gQYN8mQZhsSdn/Q0BQ8AQmEHACIL/2+BFENAktDKKgeWiYkdoWhRD84dnPgjNY2VPGgKGgCEAAkYQ/N+DeQkCt3tuxTTIAaYAGjdmPnffcWPm+1o3em7PmCYwUbhxeNbdyjEroJmYrzIkZoXLLrtMrrjiCsHccNZZZ6nNv5WVEqMQsm5MAT/5yU/kKU95iq7/ve997/Qjz3zmM9W58MMf/rCaGb7xjW/os/FGlceNGzdqWmiH3xOf+EQhCuL973+/9v3Zz36mKaSZk2qVpkHwf5mthyFgCBgC9RAwguD/bsxLEOoN6W7+0e8RfrXU486MEH3WFW7yWTKZFAltpCFwf/e732lkwFLlTiCV8mMf+1h53/vepwQBAoOTomuvfOUr1edg+/bt8qtf/Uoe8YhH1HRSxJly165d6qSIQyINP4Q//OEPuo89e/bIgx/8YHnXu96lhIHICSMIPm+GPWsIGAKGQGMEjCD4vyELIgguCgHnwvXr16uAHhoaUqfFuBkCDQMaAswIPMsNmZoFCNt64Yz1tgFBuM997qP2faIGHvrQh8p3vvMdFdJL0dBQEJlA+CHFmPCR+PSnPy2PetSjNOcBgpy9kD0RDMiVgIBHq3DzzTfrktgvDo4QA3IeEBVBLYlnP/vZ2g//BpwfiZhAw/CBD3xAnRmNICzFidqYhoAhsFYRMILgf/LeBCGa/ZDwPmc2QHOAsIxrBlwpaOoWOCc8BLxz/GvGMdFtC4KBaQPzArd2CAqe//OZJvxhCXtAap7znOdohMKFF16oROfKK6+USy65RC6//HI1cbAOTB6XXnqpfgc+ODaSn8G1O97xjhoKSZKlRz7ykdMmkrPPPlvJApoHtAloYCBBJF4ygrDQU7N+hoAhYAjMRcAIgv9bsSCCgNBHEKIed3UaEPTE+MdzGDhTBLdkfqehZSBhULORC/7bal0PF33QuhHrj9TsXOakuBynYXMYAoZAJyFgBMH/NL0JAlM4EwO3ebIAojVAe+AKFEUjHXBO5HmXnZFbPxkE6eNrYvDfXmf2MILQmedquzIEDIGlQ8AIgj+2CyIICHuXFjk6Jap+MiPGG89CDKINdTrPLnUeA39I2r+HEYT2PyNboSFgCLQXAkYQ/M9jQQSBaSAJuVxOkxwh5CEHjXIk4KwISaAf5AA/BCMH/gdGDyMIC8PNehkChsDaRcAIgv/ZL5gg+E9lPVqFgBGEViFp4xgChsBaQcAIgv9JG0Hwx2zFexhBWPEjsAUYAobAKkPACIL/gRlB8MdsxXsYQVjxI7AFGAKGwCpDwAiC/4EZQfDHbMV7GEFY8SOwBRgChsAqQ8AIgv+BGUHwx2zFexhBWPEjsAUYAobAKkPACIL/gRlB8MdsxXsYQVjxI7AFGAKGwCpDwAiC/4EZQfDHbMV7GEFY8SOwBRgChsAqQ8AIgv+BGUHwx2zFexhBWPEjsAUYAobAKkPACIL/gRlB8MdsxXsYQVjxI7AFGAKGwCpDwAiC/4EZQfDHbMV7GEFY8SOwBRgChsAqQ8AIgv+BGUHwx2zFexhBWPEjsAUYAobAKkPACIL/gRlB8MdsxXsYQVjxI7AFGAKGwCpDoC0JQrU6F8WAj/T/rXgzgrDiR+C/ACMI/phZD0PAEFjbCLQDQahWK1IpF6VczEu1UpKqVEQqkARHFAIJEkkJJJBEOiuJRFoSqdmVkJfzFI0gLCfaLZrLCEKLgLRhDAFDYM0gsFIEoVIpSbk4KZVSISQF1arqB6AEtX5GD6QaBJIIEhIkUpJM5ZQ0UBF5uZoRhOVCuoXzGEFoIZg2lCFgCKwJBJaXIFSlUipKqTAeEgOpTwqcQaEWYXAHM00kgqSkMl2STOdU07DUzQjCUiO8BOMbQVgCUG1IQ8AQ6GgElosgVCoVKU6elGopr3jW0xTEvQ8cCZhDCmYZIKa+DRKSyvVKKp1bUn8FIwir8E/CCMIqPDRbsiFgCKwoAstBEEr5cSkWRiWYcj505MBtvJFZYb5no2M4rUOQTEu6q18SidSSYGsEYUlgXdpBjSAsLb42uiFgCHQeAktJEKqqNRiRSmlyGrhGmgPnRRDVItTTIDgyUJdcBAlJZ3slmelq+aEZQWg5pEs/oBGEpcfYZjAEDIHOQmCpCEK1UpbCxAmNTmgkzKPf1TMjRJ0WeWY+R8aZ7wNJY3JQktA6J0YjCKvwb8AIwio8NFuyIWAIrCgCS0EQIAf5sSGRamVeYR43M8QJgCMQ8ed8NBFoElLZnpbhbAShZVAu30BGEJYPa5vJEDAEOgOBVhOEUHMwLJVyac6dfb6bvyMHcWTjd/+4CaIWeYiOQf6EVK5HUpnWkAQjCKvw3TeCsAoPzZZsCBgCK4pASwlCtapmhXIpX1ehX0+4R0GIE4laAPk8o/0DzA39Ggq52GYEYbEIrkB/IwgrALpNaQgYAqsagVYShOLkqJQLY3PMCvPf8GdyJs6++c/4GzjtQjyJknu+kYPjTL6EhGS710uQXFyuBCMIq/CVN4KwCg/NlmwIGAIrikCrCAImhfw4fgeNMyLW0iDUilqIRi/Uy7DoQw5UicB/qbRku9ctymnRCMKKvrILm9wIwsJws16GgCGwdhFoBUEgTXJ+7JhIpaxAzpe7IPr9fM9GtQ9OyNcyL/iMk+kaWJSpwQjCKvx7MYKwCg/NlmwIGAIrikArCEKpOCnFiRPTNRSiN/t6mRHj+Q1q9alnTliI5iC6DhIoZbrXSZBILAh7IwgLgm1lOxlBWFn8bXZDwBBYfQgsliBQibEwdnyqCuPcQkvu1u80C/W0ALW0CvUcEZt5dqYO5MyZRPulcn2SynQv6MCMICwItpXtZARhZfG32Q0BQ2D1IbBYglAqTEpp8sQcs0IciajArmdiqPVMM2mY65kXHCmp5cMQJFOS7Vm/IF+EWQThxO2/kUq5sPpOvm1WHAgvYdiqkqDW9xK0wdPus6wlP5dgCzakIWAIGALLisBiCUJ+fLjpAkxNl3OOIBDNgVCLLEQ1FFFCENVY1H4mkEzPOkkk0954zyII3r2twywE8GktSEY/S0hZ0lIyhAwBQ8AQMATaAIHFEIR6GRPjAtlt0yd3QVwrEIWq2VwKrk+tJMuMQdXHdNeA9ykYQfCGrH4HIwgtBNOGMgQMAUOghQgshiCUihNSmjg5vZooAYgusVaOgnokIqoFqOdHEBX8tcwLbuxGGRf1mURCsj0bvTXPswjC+PE9AlOytjAEIAjoDUINAq/j6tIg5Pq3SjLd+opgC0PTehkChoAh0DoEFkMQCuNkTZycjl6IE4G4eSAquBeS58CRh1rjNDPX3KJPgeR6N0iQ8EucZE6KrXv/Vv1Ig6fdVzK9m1f9PmwDhoAhYAjEEVg4QahKfnRIoxdcW2x+gkaCv57JoZGDYnyvtdaX7hqUZDrr9WIYQfCCq7MfNoLQ2edruzME1jICCyUIhDfmR48JP6OtmdwF80UruPGaSZ8cJRX1zrFWzgX3GQWcKAnt01aMICQSCUmn01IoWNREvQMja9dyNiMIy4m2zWUIGALLicCCCUKlIvmxo5paOapBqKcF8Mme2GyeAx+zglsXP6MEJZHukkxXvxfkK0YQWOXg4KDk83kplVaXrd4L4QU+nMvlZGRkZIG9F9bNCMLCcLNehoAh0P4ILJQgVColKWBikJnaC7XIQT3B3Ci/QZRwxP0GnICPahdqhU/Gx4gSg+g6CXMM8yE031aUIAwMDMjJkydluW/KzcOzck/29PTI2NjYsi7ACMKywm2TGQKGwDIisGCCUC5JgfoLsRt5s9kP3RZrOTbOZ4KoZ3qoRSxqQRklFDgoZns3eiFuBMELruV72AjC8mFtMxkChkDnI9AKgjDfjT+KYrMEopbmoNZp1HNSnC+Pghs/YQShc15yIwidc5a2E0PAEFh5BBZMEKZMDDMW/ehv4b5qJShyGod6yYuiiNQzHcS90GqZG+ppDqJkht8p3JTt3eB1EKZB8IJr+R42grB8WNtMhoAh0PkILJQghFkUj007KTYyCzTSINS66c+XcbEZh0dHROJEJb7OZCorme5Br4M2guAF1/I9bARh+bC2mQwBQ6DzEVg4QSCKIQxzbORIWC8iwSFbLxIhftOvVZOhFgmIZ09s5Ayp6ZYz3ZLO9XkdtBEEL7iW72EjCMuHtc1kCBgCnY/AQgkC4Y3kQahUwyzDtfIf1CvOFCcHjYR6dOx6p9Eoz8F8a0jn+iWV8cuUawShTf8ujCC06cHYsgwBQ2BVIrBggiAi+fHjUikVaqZanq8KY9xvIKoxqKeRqEVE4imb41qF+TQIud6NqyvVsoU51v87M4KwKv83yBZtCBgCbYrAYghCKT8mxfzotDNis+GJ9chAo1TNzZgOfAmEBImwFkOQ8Dod0yB4wbV8DxtBWD6sbSZDwBBYCQSqUq1UpVotSaVclmq1HBYLrFZmcuMECSE8D8FGHH+QSIU/g3pxA/X3sRiCUCEXwvjQrJw9jUwNToC7W34j9X/cbFBPI1HLBFGvb5xkBAtIkqTz3fPSV1YTUwkZj97wXamUJpbtTTENgmkQlu1ls4kMAUOgLRAgMV6lXJBSYVyqpeJ0hsKoyjwqYOcI2SCpRYeoPAt5kCbJwmIIAmsujB+Xark4jaFPnoM48I0iGuppHWodXiNNRHScTNeAJNM57/M3guAN2fJ0MA3C8uBssxgChsDyIIB2AFV9uZSfjgiIzlyr8kyjGgS4C0IQkpluFX7zaRUWQxBYJ2sv5Ud1yc2EJ0b3Vi8ZUvymX48c1DJpRJ91v9fSqwQBGRQ3NE2kZq3bNAjL88fhO4sRBF/E7HlDwBBoRwQwHZTy41IuTqr5IC4EmxV0TjDXEoao0AnjC8sZ1zY/LJYgaE2GsePTe6gn3OOkp5ExJCr442cXD5vk+/hY8xEV+kCgfMMbpzE2gtCOf1IiRhDa81xsVYaAIdAsAlUplwpSmhyRSqXcMDyw3oi1NAhRghAXkIl0TtLZ3pre+oslCMxbnByVcmFslgYhTliacTJslBFxvlDGOKFq5MOAc2KmZ51mUVxIMxPDQlBbhj5GEJYBZJvCEDAElgiBqhQnx1SYxjUGtcLxwtsxDos18gwEfBaK1HrJiGap8IOkZLoHhOqF0dYKgqBZFUePTq/Fhxw4DUAtU0o90hNd/3x5DqLju2dTmR5J53oaJINufPxGEJboz2OxwxpBWCyC1t8QMARWAgF16Js4IVV8DWokForenquVilR4rlIUIaJBe0yJUO2s7CAkCEQ0pDJCyuDouE4wRglENQgkk+2TZCQxUCsIAnPgXFmcHPHOiRAnSrPWG8PJ99m402MIXULLOxP1sdBmBGGhyC1xPyMISwywDW8IGAItR4B0xMXxYSlPefvXuvUyKaQA80O1UqqtFohKz+gqVcWQUO0A5gScFGv5AjiBmcr2SirLDVqkVQQhjGgYlmq5oOPGNQL19hwnNbVu/NGtzhcaGYdoNhkLJN09oGRqMc0IwmLQW8K+RhCWEFwb2hAwBFqOgJKDiROacTDenPAin0C5OB7mO4gaDKal29Qvcbf/OvF8CQ13JIJhJgFQ/NHUVIrhVhEEFcxawAmHxXJdLUktB8R6GpV4lILDr5Z/QTOEZDGOibNIijkptvzvpCUDGkFoCYw2iCFgCCwTApgVNFKhVr2CalXKxQmp6Peh2WBWq+VcEH1ANQfBdEXFcIyZTqlsnySSqZrCmn5UMQySOSlK6JeQlJKkJKytsNCGBqQ4frxm97jKX0lFzBOgXgRCIz+LRmt1/RKprKS7BuYN+2xm36ZBaAalFXjGCMIKgG5TGgKGwIIQIIyxlB+pmR8AzQI5BNScsGQtUE0CGgXn0hgVtGgYUj0bpZQIkwW1giAwDoSoOHlCpX8dJcf0juer2eCIleswn0kiSjrcs0Eyow6avimV6x2LEYQle2EXN7ARhMXhZ70NAUNgeRBA8KNud+WQo7OGORAcOaiXLqiZdTa6V898h19CKp2T6nTcQ2TsVLcEXWHCoFYRhBmSMDIrx0Mt4R3fZS1TQa1nahVpmoXx1D+SqYxQsXExTonx+Y0gNPNursAzRhBWAHSb0hAwBPwQoBTyBJUOi3O9+tEcTI5qjYXpVkv3Hpd2Dcss1FPMzwwSahLCssbRocrVQKpdGyWd6WopQVCSUMprZINUQp8EN3cjM0J0282EMMb3EyUhyVROUl39LTErzFqX+SD4/T208ulMJiP8VyqVZHIytN25ZgShlUjbWIaAIbAUCKhgHB/WoWcJw2pVitRamPL0n8UQqjV8ENwDtaRrnEAwk/NHmFOHIVwF0QsuD4JbV7kSSCGRk66+jZIKyov2QYjjieNiYeKk1plwrZ7gb5QMqV7fmqQjCDQxVBjO2ZBZLej4TYOwINgW36m7u1uy2ZkQFEjCyMiIEYTFQ2sjGAKGwDIgEC1gFL8pY5vHKXG6xQ3qjaIUolRDZV7kYZwVp/89lSchTiCm+uCoB5FwvSuVQCYqCcn1DEoum205QVCSNOWMWSJBVKUyr2NiIz40n/aBEEZCOOMJoVp59EYQWolmk2Ol02np7e2d8/TExMS0JsE0CE2CaY8ZAobAiiDgtAdznOkId0TdrnUXpr6dz7SwBDtIJBGg3dNCGg3CZIUcChnpG1i3JARhWhFCYapCWH/C+WY0E54Yf6aWNsHVnSBaYb4CVYuF1QjCYhFcQP+uri7J5eaW3oxqEYwgLABY62IIGALLhgBhjWHY4uwQPpwSNRcCYYjOnDDNIqZ+aVR1aNqEgIbAEYyYWUE1CU6DELmHR8Mhg0BSub7pOgQQBDQI6BT6BzZIeuEJBpvGGI1CSBQmVKMAUlESMF8ypGlepcmhUlMag0zT8y/2QSMDKuoYAAANjklEQVQIi0Vwnv7JZFLK5dnxtqZBWGLQbXhDwBBYUgS4FefHhqad8qbTJ2uypJNz8wvWCkKIrnCePAdhkYapPAjT+RAivgx1YgwT6YwkMz1qZnAaBKbFxNDT07ekGM0evCqVcllIFEUWydBPoTKr9oTynWmVQSBBIqXmAxwQiUwIEjPJoJZr4auGIKRSKXXoQ6VSLBalUJibrWu5QGtmHjQErDeRSEilUpF8Pq//uRb3QWBPo6NhrXGaaRCaQdmeMQQMgZVAQOP/qbcw2yNANQqzfA9WYnGz5gwkrd79CSUIaBBomaRIX/+GJVfR19s+mgVMMPpTkyhMValCv0FWSHwn1AGz9Y6HPkeyKggCN27U8ghbWi2B67PppX4WMoOA54D5j5eANY+Njc3SJrAv/kPDECUPRhCW+oRsfEPAEFgMAoXJk1IuTEyLr5AoVFV7gHah+Ra7+us/a3k0To3oNAnzTRDRWJB2GIc+whwny6EMSScq0tu/fsFlkOebvlO+XxUEoa+vT1DVRx0yEKp4/YcMrL0a5ADBH12vevwWCjI+Pt7UYk2D0BRM9pAhYAisAAKYF6pTBZnc/wIT5lfCvLCoS2/rvRlVTZ/tFaIYcFJ0BKGnZ0CSmnnRWj0EVgVBGBgYmNYeuI1wI4cg8LPdGtoOZ16IrhctQTzfQb21G0Fot1O19RgChgAI6GVn7KhQqln/PaUIxzGxlMdM2mSeg1m9p7Cdo0Go4c0Yd3ysdyzOHzJIqpkh6oOABoH/nU5nl9MPYfW9P6uCICAsUdtHTQwQA2z27ahBQHNAGCPrdT4IaDwwMTS7XiMIq++PyVZsCKwFBNRBcfTYrNTKyGL1PyhM5T5oJkohShDiTor1EiHVihWMgl7LOhEkNAVxpZqY8UFIVCSXzUmmq38tHNmC97gqCALmBZz6ELYIX8IBuY3j2NeujTU7vwnIAZqDeDRDo7UbQWjXk7V1GQJrG4GQIBydc9kpF8bVQ39OdqComiH+ey0oW29lkHRuQCqSnApzDH0QcumUZHrWr+3DnGf3q4IguD04LQLEoNmb+Go9fSMIq/XkbN2GQGcjgK/B5OgxNS5E4/jD/AdEak2pD+JB/nNiHiIlm+eEOU5h6FIpz/o+loaxYSGDkG1gYqhIapYPQjaVlGzvhs4+rEXublURhEXudVV1N4Kwqo7LFmsIrBkEIAhqYphK+ePkcxmCQHx/LQ1ALRNC9MFm8xzUMieoVsLlSYjGXU59JiKpXL9UJTVLg5BJJSVnBKHhe2sEoU3/rI0gtOnB2LIMgTWOgBKEMXwQYhqExZgYopkW41qDWaRgRuj7mDLUB2FKg8BUmURFsumkZHtMg9DodTaC0KZ/7EYQ2vRgbFmGwBpHwPkg6K19qvEbDoqV0uyqtDO1GKI3/FqehJGUys1EQTCvWjJi6opaRMOZGKpJNTE4gpCjmm734Bo/zcbbN4LQpq+HEYQ2PRhbliGwxhHQMMfRo1KpVqJ1FdX/AEfFxm0JPBDnmZHMhGGYY2KWD0JXLqfRDdbqI2AEoU3fDiMIbXowtixDwBAIoxgq5Vluh9VySUr5mZL1IUy1bvgNMiXWtBssFPBwHuoY4IMQT5TU3dWr1R6ttSlB6O/n0Nov0VE7vDCEc5IIajnb4Gn3lUzv5uWc0uYyBAyBVYhAYfy4VmyclZagSqrl4bmkQHlCxHdgvv02UjLohA3GqjFPIpWRVKZnbqrlvkEt/WytTQmCHUx7IWAEob3Ow1ZjCLQrAsX8mGZNnK7iOLVQjWRwpZ6jOZejQn8+stBiK0Qq26tVEWcVa0pUpa9/vWoXrBlBsHegCQSMIDQBkj1iCBgCUikXpTB2XG/zTosAWaCccWmScs9o9yMJCuI1c+KZEvX7GgkNogxkTl4Fp01wSot4OWiZNi+wlqiJIZNKSF/fuqk12oHWQ2BFfRDsWNoLASMI7XUethpDoH0RqEp+7LgShVlaBMwMEIR4Rcd4noP4xmrmTohUO26Y54ByyVOEZFo7wWeBUMkxMVWQyREEHu3p7pOunBVqmu/9MoIwH0Jr6HsjCGvosG2rhsAiESBzYlicacYVUWsylApSLoxNjR4JX3Rag2ntQqRnPDwxqpaIT+A0CbN8EWrMkwhrMEgQVnCEIExUqI+TlL6BDZIOzP9tvlfACMJ8CK2h740grKHDtq0aAotEoFopSX50SI0Ms30RqlKaHJVqxdXKiav+m6j2qCQiygwifMMZNaZNGNMPz8qoqL4HqfR0XISr5pjKdEtPb5+kpLxIBDq/uxGEzj/jpndoBKFpqOxBQ8AQEJHixIiUi+OzoxnQKFTwRUC7MCvOYbZWYaEINuHEGCRSksr1hmGOU/OUq4FMVpLS1bdR8EEwgjD/ARhBmB+jNfOEEYQ1c9S2UUOgJQioFgFnxWpllrMig5dnJU6KOyEuZvp4HoWIBkFdERKSyvWpaSHq14gGoZzuk2zPoCSlZAShiSMwgtAESGvlESMIa+WkbZ+GQOsQKOZHBX+EadeA6XiEqlQKk1Kek355vrkbqAhcNISr1xAbCnKQzPRIkEzNiYmg3HPQs1mSybQRhPmOYOp7IwhNArUWHjOCsBZO2fZoCLQagTCioVouzsmDOFOjYWImJGE+E8G838cTJc10IGMiuQ1qVYBO5tZJJdOnmzcNQnPvgBGE5nBaE08ZQVgTx2ybNARajgD5D8iuSCEnp/CPGgIqxbyUixNT4Y/OKyAaxkivGmaIoEZ0wnQOBbqEDo+QAtUc1CEHiVROkl2DUgrCzIlGEJp7BYwgNIfTmnjKCMKaOGbbpCGwJAiUi5NSmDgxa+yo2QF/BSo+8nNOi+c5iPIF/d1Vg4z8VCaSkEQqK8l0TpMexTM78u8gmdaqjdUgJUVJG0HwOH0jCB5gdfqjRhA6/YRtf4bA0iJQKoxLcZIUzDPRC7OyLJOPoDiplR+r1OGplSlxeokRU0KUIEx1ws+AREguXXItswLRDJADnqlIwgiC5/EbQfAErJMfN4LQyadrezMElgcBRxIwGdS60YeEoappmTE7UBUyygmmQyOjqZojS08ks5LMoDGYHaUQd12AFGS6BtVhkWYEwf/8jSD4Y9axPYwgdOzR2sYMgWVFoFSYDEs/x8If4wGKeuuvVqSC2aFSCUtIqx/D1JOYDSAC+BbwX5CcUz+hVomGZDIj6a7QYdE1Iwj+r4ARBH/MOraHEYSOPVrbmCGw7AhUSkUp5kem6zXUC06ImyDi4ZJu4XXKOc1SPgRBIMl0l6SyPUosos0Igv8rYATBH7OO7WEEoWOP1jZmCKwIAlWKN+VH1e/AaROiN/6o8K+1wEi8w5ycjPHvEpo9sU+SKRwRo9+GIxtB8H8FjCD4Y9axPYwgdOzR2sYMgRVFQMtAF8aUKMQ1CdG6TPPlW6ylbZAgKalst6TSXQ3LNxtB8H8FjCD4Y9axPYwgdOzR2sYMgZVHoFpVX4Oy5kRAoxA6J9YzHdQiC1GCQPgi5oRkKjPL16DeRo0g+L8CRhD8MevYHkYQOvZobWOGQFshgOmhUi4oWZBKOXRSpC4kkY1aHzJsao5w+Q2CpJZqpkIjkQyh0+JcU4IRhNYdtRGE1mG56kcygrDqj9A2YAisWgTIi6ARDEQ+uCAGzYWUCEMaY06Hvhs1DYIvYiJGEPwx69geRhA69mhtY4bAmkfACIL/K2AEwR+zju1hBKFjj9Y2ZgiseQSMIPi/AkYQ/DHr2B5GEDr2aG1jhsCaR8AIgv8rYATBH7OO7WEEoWOP1jZmCKx5BIwg+L8CRhD8MevYHkYQOvZobWOGwJpHwAiC/ytgBMEfs47tYQShY4/WNmYIrHkEjCD4vwJGEPwx69geRhA69mhtY4bAmkfACIL/K2AEwR+zju1hBKFjj9Y2ZgiseQSMIPi/AkYQ/DHr2B5GEDr2aG1jhsCaR8AIgv8rYATBH7OO7WEEoWOP1jZmCKx5BIwg+L8CswjC0K0/lkpp0n8U6zGFQDwvuMsovjoA6t9xd8n0bFgdi7VVGgKGgCHggYARBA+wnES756WvrCamSmNoHmxrC0agKoEUJKP9k1KWlFCAZPW0sPBJ88VPVs/ObKWGgCGw1hEwguD/BszSIPh3tx5RBKIEISFlSa8ygmCnaQgYAoZApyJgBMH/ZI0g+GNWt4cRhBaCaUMZAoaAIdBCBIwg+INpBMEfMyMILcTMhjIEDAFDYDkQMILgj7IRBH/MjCC0EDMbyhAwBAyB5UDACII/ykYQ/DEzgtBCzGwoQ8AQMASWAwEjCP4oG0Hwx8wIQgsxs6EMAUPAEFgOBIwg+KNsBMEfMyMILcTMhjIEDAFDYDkQMILgj7IRBH/MjCC0EDMbyhAwBAyB5UDACII/ykYQ/DEzgtBCzGwoQ8AQMASWAwEjCP4oG0Hwx8wIQgsxs6EMAUPAEFgOBIwg+KNsBMEfMyMILcTMhjIEDAFDYDkQMILgj7IRBH/MjCC0EDMbyhAwBAyB5UDACII/ykYQ/DEzgtBCzGwoQ8AQMASWAwEjCP4oG0Hwx8wIQgsxs6EMAUPAEFgOBIwg+KNsBMEfMyMILcTMhjIEDAFDYDkQMILgj7IRBH/MjCC0EDMbyhAwBAyB5UDACII/yv8/ZVvDCk3sQAEAAAAASUVORK5CYII=;" vertex="1" parent="1">
          <mxGeometry x="353.40999999999997" y="1150" width="250.65" height="134" as="geometry" />
        </mxCell>
        <mxCell id="6bSPFQIg_zKgYMIiMJCl-68" value="LayoutSystem" style="text;html=1;strokeColor=none;fillColor=none;align=center;verticalAlign=middle;whiteSpace=wrap;rounded=0;fontSize=18;fontStyle=1" vertex="1" parent="1">
          <mxGeometry x="167.39" y="1130" width="40" height="20" as="geometry" />
        </mxCell>
        <mxCell id="6bSPFQIg_zKgYMIiMJCl-76" value="core" style="rounded=1;whiteSpace=wrap;html=1;fillColor=#dae8fc;strokeColor=#6c8ebf;fontStyle=1;fontSize=18;" vertex="1" parent="1">
          <mxGeometry x="323" y="1420" width="181.27" height="80" as="geometry" />
        </mxCell>
        <mxCell id="6bSPFQIg_zKgYMIiMJCl-81" value="" style="edgeStyle=orthogonalEdgeStyle;rounded=0;orthogonalLoop=1;jettySize=auto;html=1;fontSize=18;" edge="1" parent="1" source="6bSPFQIg_zKgYMIiMJCl-78" target="6bSPFQIg_zKgYMIiMJCl-76">
          <mxGeometry relative="1" as="geometry" />
        </mxCell>
        <mxCell id="6bSPFQIg_zKgYMIiMJCl-78" value="main" style="rounded=1;whiteSpace=wrap;html=1;fillColor=#b1ddf0;strokeColor=#10739e;fontStyle=1;fontSize=18;" vertex="1" parent="1">
          <mxGeometry x="218.73000000000002" y="1550" width="181.27" height="80" as="geometry" />
        </mxCell>
        <mxCell id="6bSPFQIg_zKgYMIiMJCl-82" value="" style="edgeStyle=orthogonalEdgeStyle;rounded=0;orthogonalLoop=1;jettySize=auto;html=1;fontSize=18;" edge="1" parent="1" source="6bSPFQIg_zKgYMIiMJCl-80" target="6bSPFQIg_zKgYMIiMJCl-76">
          <mxGeometry relative="1" as="geometry" />
        </mxCell>
        <mxCell id="6bSPFQIg_zKgYMIiMJCl-80" value="experimental" style="rounded=1;whiteSpace=wrap;html=1;fillColor=#b1ddf0;strokeColor=#10739e;fontStyle=1;fontSize=18;" vertex="1" parent="1">
          <mxGeometry x="428.6" y="1550" width="181.27" height="80" as="geometry" />
        </mxCell>
        <mxCell id="6bSPFQIg_zKgYMIiMJCl-85" value="InputControllerSystems" style="rounded=1;whiteSpace=wrap;html=1;fillColor=#dae8fc;strokeColor=#6c8ebf;align=left;fontSize=18;verticalAlign=top;" vertex="1" parent="1">
          <mxGeometry x="1030" y="630" width="760" height="460" as="geometry" />
        </mxCell>
        <mxCell id="6bSPFQIg_zKgYMIiMJCl-96" value="VPadPresentationSystems&lt;br&gt;" style="rounded=1;whiteSpace=wrap;html=1;fillColor=#dae8fc;strokeColor=#6c8ebf;align=left;fontSize=18;verticalAlign=top;" vertex="1" parent="1">
          <mxGeometry x="1050" y="1169" width="760" height="190" as="geometry" />
        </mxCell>
        <mxCell id="6bSPFQIg_zKgYMIiMJCl-128" value="" style="shape=image;html=1;verticalAlign=top;verticalLabelPosition=bottom;labelBackgroundColor=#ffffff;imageAspect=0;aspect=fixed;image=https://cdn3.iconfinder.com/data/icons/geek-3/24/Domo_Kun_character-128.png;fontSize=18;fillColor=#000000;" vertex="1" parent="1">
          <mxGeometry x="1137" y="828" width="84" height="84" as="geometry" />
        </mxCell>
        <mxCell id="6bSPFQIg_zKgYMIiMJCl-129" value="" style="shape=image;html=1;verticalAlign=top;verticalLabelPosition=bottom;labelBackgroundColor=#ffffff;imageAspect=0;aspect=fixed;image=https://cdn1.iconfinder.com/data/icons/videogames-5/32/Videogames_videogame_pacman_ghost_character_play-128.png;fontSize=18;fillColor=#000000;" vertex="1" parent="1">
          <mxGeometry x="1130" y="958" width="98" height="98" as="geometry" />
        </mxCell>
        <mxCell id="6bSPFQIg_zKgYMIiMJCl-133" value="" style="group" vertex="1" connectable="0" parent="1">
          <mxGeometry x="1489" y="1244" width="120" height="80" as="geometry" />
        </mxCell>
        <mxCell id="6bSPFQIg_zKgYMIiMJCl-106" value="" style="verticalLabelPosition=bottom;html=1;verticalAlign=top;align=center;strokeColor=none;shape=mxgraph.azure.tablet;pointerEvents=1;fontSize=18;fillColor=#000000;" vertex="1" parent="6bSPFQIg_zKgYMIiMJCl-133">
          <mxGeometry width="120" height="80" as="geometry" />
        </mxCell>
        <mxCell id="6bSPFQIg_zKgYMIiMJCl-107" value="" style="rounded=0;whiteSpace=wrap;html=1;fontSize=18;fillColor=#4D4D4D;" vertex="1" parent="6bSPFQIg_zKgYMIiMJCl-133">
          <mxGeometry x="8" y="5" width="105" height="70" as="geometry" />
        </mxCell>
        <mxCell id="6bSPFQIg_zKgYMIiMJCl-108" value="" style="ellipse;whiteSpace=wrap;html=1;aspect=fixed;fontSize=18;fillColor=#000000;" vertex="1" parent="6bSPFQIg_zKgYMIiMJCl-133">
          <mxGeometry x="20" y="40" width="20" height="20" as="geometry" />
        </mxCell>
        <mxCell id="6bSPFQIg_zKgYMIiMJCl-123" value="" style="ellipse;whiteSpace=wrap;html=1;aspect=fixed;fontSize=18;fillColor=#000000;" vertex="1" parent="6bSPFQIg_zKgYMIiMJCl-133">
          <mxGeometry x="80" y="40" width="20" height="20" as="geometry" />
        </mxCell>
        <mxCell id="6bSPFQIg_zKgYMIiMJCl-124" value="" style="ellipse;whiteSpace=wrap;html=1;aspect=fixed;fontSize=18;fillColor=#000000;" vertex="1" parent="6bSPFQIg_zKgYMIiMJCl-133">
          <mxGeometry x="80" y="20" width="10" height="10" as="geometry" />
        </mxCell>
        <mxCell id="6bSPFQIg_zKgYMIiMJCl-125" value="" style="ellipse;whiteSpace=wrap;html=1;aspect=fixed;fontSize=18;fillColor=#000000;" vertex="1" parent="6bSPFQIg_zKgYMIiMJCl-133">
          <mxGeometry x="30" y="20" width="10" height="10" as="geometry" />
        </mxCell>
        <mxCell id="6bSPFQIg_zKgYMIiMJCl-134" value="" style="group" vertex="1" connectable="0" parent="1">
          <mxGeometry x="1310" y="1244" width="120" height="80" as="geometry" />
        </mxCell>
        <mxCell id="6bSPFQIg_zKgYMIiMJCl-101" value="" style="verticalLabelPosition=bottom;html=1;verticalAlign=top;align=center;strokeColor=none;shape=mxgraph.azure.tablet;pointerEvents=1;fontSize=18;fillColor=#000000;" vertex="1" parent="6bSPFQIg_zKgYMIiMJCl-134">
          <mxGeometry width="120" height="80" as="geometry" />
        </mxCell>
        <mxCell id="6bSPFQIg_zKgYMIiMJCl-102" value="" style="rounded=0;whiteSpace=wrap;html=1;fontSize=18;fillColor=#4D4D4D;" vertex="1" parent="6bSPFQIg_zKgYMIiMJCl-134">
          <mxGeometry x="7.5" y="5" width="105" height="70" as="geometry" />
        </mxCell>
        <mxCell id="6bSPFQIg_zKgYMIiMJCl-104" value="" style="ellipse;whiteSpace=wrap;html=1;aspect=fixed;fontSize=18;fillColor=#000000;" vertex="1" parent="6bSPFQIg_zKgYMIiMJCl-134">
          <mxGeometry x="20" y="40" width="20" height="20" as="geometry" />
        </mxCell>
        <mxCell id="6bSPFQIg_zKgYMIiMJCl-117" value="" style="ellipse;whiteSpace=wrap;html=1;aspect=fixed;fontSize=18;fillColor=#000000;" vertex="1" parent="6bSPFQIg_zKgYMIiMJCl-134">
          <mxGeometry x="80" y="40" width="20" height="20" as="geometry" />
        </mxCell>
        <mxCell id="6bSPFQIg_zKgYMIiMJCl-135" value="" style="group" vertex="1" connectable="0" parent="1">
          <mxGeometry x="1120" y="1244" width="120" height="80" as="geometry" />
        </mxCell>
        <mxCell id="6bSPFQIg_zKgYMIiMJCl-114" value="" style="verticalLabelPosition=bottom;html=1;verticalAlign=top;align=center;strokeColor=none;shape=mxgraph.azure.tablet;pointerEvents=1;fontSize=18;fillColor=#000000;" vertex="1" parent="6bSPFQIg_zKgYMIiMJCl-135">
          <mxGeometry width="120" height="80" as="geometry" />
        </mxCell>
        <mxCell id="6bSPFQIg_zKgYMIiMJCl-115" value="" style="rounded=0;whiteSpace=wrap;html=1;fontSize=18;strokeColor=#314354;fontColor=#ffffff;fillColor=#4D4D4D;" vertex="1" parent="6bSPFQIg_zKgYMIiMJCl-135">
          <mxGeometry x="8" y="5" width="105" height="70" as="geometry" />
        </mxCell>
        <mxCell id="6bSPFQIg_zKgYMIiMJCl-116" value="" style="ellipse;whiteSpace=wrap;html=1;aspect=fixed;fontSize=18;fillColor=#000000;" vertex="1" parent="6bSPFQIg_zKgYMIiMJCl-135">
          <mxGeometry x="20" y="40" width="20" height="20" as="geometry" />
        </mxCell>
        <mxCell id="6bSPFQIg_zKgYMIiMJCl-119" value="" style="ellipse;whiteSpace=wrap;html=1;aspect=fixed;fontSize=18;fillColor=#000000;" vertex="1" parent="6bSPFQIg_zKgYMIiMJCl-135">
          <mxGeometry x="90" y="46" width="15" height="15" as="geometry" />
        </mxCell>
        <mxCell id="6bSPFQIg_zKgYMIiMJCl-118" value="" style="ellipse;whiteSpace=wrap;html=1;aspect=fixed;fontSize=18;fillColor=#000000;" vertex="1" parent="6bSPFQIg_zKgYMIiMJCl-135">
          <mxGeometry x="80" y="36" width="10" height="10" as="geometry" />
        </mxCell>
        <mxCell id="6bSPFQIg_zKgYMIiMJCl-121" value="" style="ellipse;whiteSpace=wrap;html=1;aspect=fixed;fontSize=18;fillColor=#000000;" vertex="1" parent="6bSPFQIg_zKgYMIiMJCl-135">
          <mxGeometry x="95" y="30" width="10" height="10" as="geometry" />
        </mxCell>
        <mxCell id="6bSPFQIg_zKgYMIiMJCl-122" value="" style="ellipse;whiteSpace=wrap;html=1;aspect=fixed;fontSize=18;fillColor=#000000;" vertex="1" parent="6bSPFQIg_zKgYMIiMJCl-135">
          <mxGeometry x="70" y="51" width="10" height="10" as="geometry" />
        </mxCell>
        <mxCell id="6bSPFQIg_zKgYMIiMJCl-136" value="" style="group" vertex="1" connectable="0" parent="1">
          <mxGeometry x="1156.25" y="683" width="61.4948974278318" height="70" as="geometry" />
        </mxCell>
        <mxCell id="6bSPFQIg_zKgYMIiMJCl-127" value="" style="shape=actor;whiteSpace=wrap;html=1;fontSize=18;fillColor=#000000;" vertex="1" parent="6bSPFQIg_zKgYMIiMJCl-136">
          <mxGeometry y="10" width="40" height="60" as="geometry" />
        </mxCell>
        <mxCell id="6bSPFQIg_zKgYMIiMJCl-130" value="" style="shape=image;html=1;verticalAlign=top;verticalLabelPosition=bottom;labelBackgroundColor=#ffffff;imageAspect=0;aspect=fixed;image=https://cdn2.iconfinder.com/data/icons/army-glyph-1/512/gun_military_weapon_military-128.png;fontSize=18;fillColor=#000000;direction=east;rotation=75;" vertex="1" parent="6bSPFQIg_zKgYMIiMJCl-136">
          <mxGeometry x="17" y="17" width="40" height="40" as="geometry" />
        </mxCell>
        <mxCell id="6bSPFQIg_zKgYMIiMJCl-131" value="" style="shape=image;html=1;verticalAlign=top;verticalLabelPosition=bottom;labelBackgroundColor=#ffffff;imageAspect=0;aspect=fixed;image=https://cdn1.iconfinder.com/data/icons/locations-redesign/48/Hunting1-128.png;fontSize=18;fillColor=#000000;" vertex="1" parent="6bSPFQIg_zKgYMIiMJCl-136">
          <mxGeometry x="30" width="20" height="20" as="geometry" />
        </mxCell>
        <mxCell id="6bSPFQIg_zKgYMIiMJCl-141" value="... ..." style="text;html=1;strokeColor=none;fillColor=none;align=center;verticalAlign=middle;whiteSpace=wrap;rounded=0;fontSize=18;" vertex="1" parent="1">
          <mxGeometry x="1694" y="1244" width="40" height="20" as="geometry" />
        </mxCell>
        <mxCell id="6bSPFQIg_zKgYMIiMJCl-148" value="" style="rounded=1;whiteSpace=wrap;html=1;fillColor=#dae8fc;strokeColor=#6c8ebf;" vertex="1" parent="1">
          <mxGeometry x="1030" y="235" width="760" height="190" as="geometry" />
        </mxCell>
        <mxCell id="6bSPFQIg_zKgYMIiMJCl-149" value="" style="verticalLabelPosition=bottom;verticalAlign=top;html=1;shadow=0;dashed=0;strokeWidth=1;shape=mxgraph.android.keyboard;" vertex="1" parent="1">
          <mxGeometry x="1100" y="280" width="185" height="100" as="geometry" />
        </mxCell>
        <mxCell id="6bSPFQIg_zKgYMIiMJCl-150" value="" style="shape=image;html=1;verticalAlign=top;verticalLabelPosition=bottom;labelBackgroundColor=#ffffff;imageAspect=0;aspect=fixed;image=https://cdn3.iconfinder.com/data/icons/google-material-design-icons/48/ic_mouse_48px-128.png" vertex="1" parent="1">
          <mxGeometry x="1310" y="266" width="128" height="128" as="geometry" />
        </mxCell>
        <mxCell id="6bSPFQIg_zKgYMIiMJCl-151" value="" style="shape=image;html=1;verticalAlign=top;verticalLabelPosition=bottom;labelBackgroundColor=#ffffff;imageAspect=0;aspect=fixed;image=https://cdn2.iconfinder.com/data/icons/computers-and-hardware-1/32/Computers_and_Hardware_joystick_videogame_controller-128.png" vertex="1" parent="1">
          <mxGeometry x="1470" y="266" width="128" height="128" as="geometry" />
        </mxCell>
        <mxCell id="6bSPFQIg_zKgYMIiMJCl-152" value="" style="shape=image;html=1;verticalAlign=top;verticalLabelPosition=bottom;labelBackgroundColor=#ffffff;imageAspect=0;aspect=fixed;image=https://cdn0.iconfinder.com/data/icons/google-material-design-3-0/48/ic_touch_app_48px-128.png" vertex="1" parent="1">
          <mxGeometry x="1620" y="260" width="128" height="128" as="geometry" />
        </mxCell>
        <mxCell id="6bSPFQIg_zKgYMIiMJCl-153" value="&lt;b style=&quot;font-size: 18px;&quot;&gt;硬件输入&lt;/b&gt;" style="text;html=1;strokeColor=none;fillColor=none;align=center;verticalAlign=middle;whiteSpace=wrap;rounded=0;fontSize=18;" vertex="1" parent="1">
          <mxGeometry x="1030" y="250" width="100" height="24" as="geometry" />
        </mxCell>
        <mxCell id="6bSPFQIg_zKgYMIiMJCl-154" value="" style="shape=flexArrow;endArrow=classic;html=1;fillColor=#eeeeee;strokeColor=#36393d;" edge="1" parent="1">
          <mxGeometry width="50" height="50" relative="1" as="geometry">
            <mxPoint x="1241" y="430" as="sourcePoint" />
            <mxPoint x="1241" y="610" as="targetPoint" />
          </mxGeometry>
        </mxCell>
        <mxCell id="6bSPFQIg_zKgYMIiMJCl-157" value="" style="shape=flexArrow;endArrow=classic;startArrow=classic;html=1;fontSize=18;entryX=0;entryY=0.5;entryDx=0;entryDy=0;fillColor=#bac8d3;strokeColor=#23445d;" edge="1" parent="1">
          <mxGeometry width="100" height="100" relative="1" as="geometry">
            <mxPoint x="1270" y="870" as="sourcePoint" />
            <mxPoint x="1397" y="870" as="targetPoint" />
          </mxGeometry>
        </mxCell>
        <mxCell id="6bSPFQIg_zKgYMIiMJCl-160" value="" style="shape=flexArrow;endArrow=classic;startArrow=classic;html=1;fontSize=18;entryX=0;entryY=0.5;entryDx=0;entryDy=0;exitX=1;exitY=0.5;exitDx=0;exitDy=0;fillColor=#bac8d3;strokeColor=#23445d;" edge="1" parent="1">
          <mxGeometry width="100" height="100" relative="1" as="geometry">
            <mxPoint x="1281" y="1007" as="sourcePoint" />
            <mxPoint x="1397" y="1007" as="targetPoint" />
          </mxGeometry>
        </mxCell>
        <mxCell id="6bSPFQIg_zKgYMIiMJCl-162" value="" style="shape=flexArrow;endArrow=classic;startArrow=classic;html=1;fontSize=18;entryX=0;entryY=0.5;entryDx=0;entryDy=0;exitX=1;exitY=0.5;exitDx=0;exitDy=0;fillColor=#bac8d3;strokeColor=#23445d;" edge="1" parent="1">
          <mxGeometry width="100" height="100" relative="1" as="geometry">
            <mxPoint x="1281" y="723" as="sourcePoint" />
            <mxPoint x="1397" y="724" as="targetPoint" />
            <Array as="points">
              <mxPoint x="1347" y="724" />
            </Array>
          </mxGeometry>
        </mxCell>
        <mxCell id="6bSPFQIg_zKgYMIiMJCl-164" value="" style="shape=curlyBracket;whiteSpace=wrap;html=1;rounded=1;fontSize=18;fillColor=#4D4D4D;" vertex="1" parent="1">
          <mxGeometry x="1430" y="665" width="20" height="120" as="geometry" />
        </mxCell>
        <mxCell id="6bSPFQIg_zKgYMIiMJCl-165" value="" style="shape=curlyBracket;whiteSpace=wrap;html=1;rounded=1;flipH=1;fontSize=18;fillColor=#4D4D4D;" vertex="1" parent="1">
          <mxGeometry x="1589" y="666" width="20" height="120" as="geometry" />
        </mxCell>
        <mxCell id="6bSPFQIg_zKgYMIiMJCl-166" value="&lt;ul&gt;&lt;li&gt;move - w/s/a/d&lt;/li&gt;&lt;li&gt;move - leftstick&lt;/li&gt;&lt;li&gt;jump - space&lt;/li&gt;&lt;li&gt;jump - button0&lt;/li&gt;&lt;/ul&gt;" style="text;strokeColor=none;fillColor=none;html=1;whiteSpace=wrap;verticalAlign=middle;overflow=hidden;fontSize=18;" vertex="1" parent="1">
          <mxGeometry x="1429" y="660" width="180" height="110" as="geometry" />
        </mxCell>
        <mxCell id="6bSPFQIg_zKgYMIiMJCl-167" value="" style="shape=curlyBracket;whiteSpace=wrap;html=1;rounded=1;fontSize=18;fillColor=#4D4D4D;" vertex="1" parent="1">
          <mxGeometry x="1430" y="814" width="20" height="120" as="geometry" />
        </mxCell>
        <mxCell id="6bSPFQIg_zKgYMIiMJCl-168" value="" style="shape=curlyBracket;whiteSpace=wrap;html=1;rounded=1;flipH=1;fontSize=18;fillColor=#4D4D4D;" vertex="1" parent="1">
          <mxGeometry x="1589" y="815" width="20" height="120" as="geometry" />
        </mxCell>
        <mxCell id="6bSPFQIg_zKgYMIiMJCl-169" value="&lt;ul&gt;&lt;li&gt;move - u/j/h/k&lt;/li&gt;&lt;li&gt;move - rightstick&lt;/li&gt;&lt;li&gt;jump - ctrl&lt;/li&gt;&lt;li&gt;jump - button1&lt;/li&gt;&lt;/ul&gt;" style="text;strokeColor=none;fillColor=none;html=1;whiteSpace=wrap;verticalAlign=middle;overflow=hidden;fontSize=18;" vertex="1" parent="1">
          <mxGeometry x="1429" y="809" width="180" height="110" as="geometry" />
        </mxCell>
        <mxCell id="6bSPFQIg_zKgYMIiMJCl-170" value="" style="shape=curlyBracket;whiteSpace=wrap;html=1;rounded=1;fontSize=18;fillColor=#4D4D4D;" vertex="1" parent="1">
          <mxGeometry x="1430" y="951" width="20" height="120" as="geometry" />
        </mxCell>
        <mxCell id="6bSPFQIg_zKgYMIiMJCl-171" value="" style="shape=curlyBracket;whiteSpace=wrap;html=1;rounded=1;flipH=1;fontSize=18;fillColor=#4D4D4D;" vertex="1" parent="1">
          <mxGeometry x="1589" y="952" width="20" height="120" as="geometry" />
        </mxCell>
        <mxCell id="6bSPFQIg_zKgYMIiMJCl-172" value="&lt;ul&gt;&lt;li&gt;move - w/s/a/d&lt;/li&gt;&lt;li&gt;move - leftstick&lt;/li&gt;&lt;li&gt;jump - space&lt;/li&gt;&lt;li&gt;jump - button0&lt;/li&gt;&lt;/ul&gt;" style="text;strokeColor=none;fillColor=none;html=1;whiteSpace=wrap;verticalAlign=middle;overflow=hidden;fontSize=18;" vertex="1" parent="1">
          <mxGeometry x="1429" y="946" width="180" height="110" as="geometry" />
        </mxCell>
        <mxCell id="6bSPFQIg_zKgYMIiMJCl-173" value="" style="shape=image;html=1;verticalAlign=top;verticalLabelPosition=bottom;labelBackgroundColor=#ffffff;imageAspect=0;aspect=fixed;image=https://cdn4.iconfinder.com/data/icons/glyphs/24/icons_settings-128.png;fontSize=18;fillColor=#4D4D4D;" vertex="1" parent="1">
          <mxGeometry x="1660" y="820" width="60" height="60" as="geometry" />
        </mxCell>
        <mxCell id="6bSPFQIg_zKgYMIiMJCl-174" value="InputActionAsset" style="text;html=1;strokeColor=none;fillColor=none;align=center;verticalAlign=middle;whiteSpace=wrap;rounded=0;fontSize=18;fontStyle=1" vertex="1" parent="1">
          <mxGeometry x="1670" y="894" width="40" height="20" as="geometry" />
        </mxCell>
      </root>
    </mxGraphModel>
  </diagram>
</mxfile>
